<?xml version="1.0" encoding="UTF-8" standalone="no"?>
<svg viewBox="0 0 300.79999 143.38284" xmlns="http://www.w3.org/2000/svg" xmlns:xlink="http://www.w3.org/1999/xlink">
<defs>
<filter id="filter4811">
<feGaussianBlur stdDeviation=".2745"/>
</filter>
<filter id="filter4508">
<feGaussianBlur stdDeviation="1.4727"/>
</filter>
<filter id="filter7840">
<feGaussianBlur stdDeviation="2.2497"/>
</filter>
<filter id="filter8344">
<feGaussianBlur stdDeviation=".5624"/>
</filter>
<filter id="filter4103"></filter>
<filter height="1.5242" id="filter4177" width="1.16171" x="-.08086" y="-.2621">
<feGaussianBlur stdDeviation="7.9299"/>
</filter>
<filter height="1.21594" id="filter4189" width="1.27759" x="-.1388" y="-.10797"></filter>
<linearGradient id="linearGradient6496">
<stop offset="0" stop-color="#fff"/>
<stop offset="1"/>
</linearGradient>
<linearGradient id="linearGradient4278">
<stop offset="0" stop-color="#333"/>
<stop offset="1"/>
</linearGradient>
<linearGradient id="linearGradient3283">
<stop offset="0" stop-color="#4d4d4d"/>
<stop offset="1"/>
</linearGradient>
<linearGradient id="linearGradient3237">
<stop offset="0" stop-color="#666"/>
<stop offset="1"/>
</linearGradient>
<linearGradient id="linearGradient31281">
<stop offset="0" stop-color="#f5cf9d"/>
<stop offset="1" stop-color="#efb466"/>
</linearGradient>
<linearGradient id="linearGradient6058">
<stop offset="0" stop-color="#eee"/>
<stop offset="1"/>
</linearGradient>
<linearGradient id="linearGradient3136">
<stop offset="0" stop-color="#fff"/>
<stop offset="1" stop-color="#fff" stop-opacity="0"/>
</linearGradient>
<linearGradient gradientUnits="userSpaceOnUse" id="linearGradient8138" x1="368.6248" x2="368.8623" y1="576.40621" y2="564.77122">
<stop offset="0" stop-color="#ccc"/>
<stop offset=".4163" stop-color="#808080"/>
<stop offset="1"/>
</linearGradient>
<linearGradient gradientUnits="userSpaceOnUse" id="linearGradient8204" x1="327.37698" x2="330.02638" y1="524.9998" y2="522.47207">
<stop offset="0"/>
<stop offset="1" stop-color="#4d4d4d"/>
</linearGradient>
<linearGradient gradientUnits="userSpaceOnUse" id="linearGradient8207" x1="329.18339" x2="333.88128" y1="523.67882" y2="517.8946">
<stop offset="0"/>
<stop offset="1" stop-color="#b3b3b3"/>
</linearGradient>
<linearGradient gradientTransform="matrix(.00225,7.0762466e-4,-7.0762466e-4,.00225,380.16196,476.01879)" gradientUnits="userSpaceOnUse" id="linearGradient8363" x1="986.2171" x2="216.72804" xlink:href="#linearGradient3136" y1="1019.8256" y2="202.35674"/>
<linearGradient gradientTransform="matrix(.00204,6.4178537e-4,-6.4178537e-4,.00204,380.20475,476.12149)" gradientUnits="userSpaceOnUse" id="linearGradient8365" x1="221.34767" x2="532.85608" xlink:href="#linearGradient3136" y1="69.92945" y2="529.76367"/>
<linearGradient gradientUnits="userSpaceOnUse" id="linearGradient8367" x2="0" xlink:href="#linearGradient3136" y1="476.79539" y2="477.7322"/>
<linearGradient gradientTransform="matrix(-.01889,.01462,.01462,.01889,382.10367,471.46083)" gradientUnits="userSpaceOnUse" id="linearGradient8369" x1="158.8333" x2="158.99269" xlink:href="#linearGradient3136" y1="138.48926" y2="175.0564"/>
<linearGradient gradientTransform="matrix(0,.02389,-.02389,0,384.16357,472.50448)" gradientUnits="userSpaceOnUse" id="linearGradient8371" x1="165.82292" x2="181.50717" xlink:href="#linearGradient3136" y1="156.58948" y2="152.28894"/>
<linearGradient gradientTransform="matrix(.00743,-.02271,.02271,.00743,375.78522,480.41208)" gradientUnits="userSpaceOnUse" id="linearGradient8373" x1="159.76962" x2="158.99269" xlink:href="#linearGradient3136" y1="127.11888" y2="175.0564"/>
<linearGradient gradientTransform="matrix(-.00743,-.02271,-.02271,.00743,386.32381,480.21967)" gradientUnits="userSpaceOnUse" id="linearGradient8375" x1="179.50685" x2="156.44305" xlink:href="#linearGradient3136" y1="143.05591" y2="175.58769"/>
<radialGradient cx="146.39215" cy="49.45716" gradientTransform="matrix(2.08242,-.87146,.28001,.6691,52.05851,609.80398)" gradientUnits="userSpaceOnUse" id="radialGradient7981" r="2.21839">
<stop offset="0" stop-color="#808080"/>
<stop offset="1"/>
</radialGradient>
<radialGradient cx="166.74696" cy="308.72125" gradientTransform="matrix(-23.04291,17.19897,-14.30741,-19.16781,8725.112,3592.0094)" gradientUnits="userSpaceOnUse" id="radialGradient8141" r="2.20846">
<stop offset="0" stop-color="#ff0e0e"/>
<stop offset="1"/>
</radialGradient>
<radialGradient cx="2138.9204" cy="-2156.5662" gradientTransform="matrix(-13.25391,15.07274,-15.16443,-13.33457,-4063.5563,-60432.993)" gradientUnits="userSpaceOnUse" id="radialGradient8145" r="2.20448">
<stop offset="0" stop-color="#dc0000"/>
<stop offset="1"/>
</radialGradient>
<radialGradient cx="2156.3389" cy="-2157.7769" gradientTransform="matrix(-15.46331,12.29884,8.29018,10.42334,51479.06,-3478.1742)" gradientUnits="userSpaceOnUse" id="radialGradient8155" r=".36627">
<stop offset="0" stop-color="#d6d6d6"/>
<stop offset=".5" stop-color="#828282"/>
<stop offset="1" stop-color="#2e2e2e"/>
</radialGradient>
<radialGradient cx="2156.3743" cy="-2157.7146" gradientTransform="matrix(-4.22591,-2.93291,-10.29703,14.83646,-12859.031,38889.103)" gradientUnits="userSpaceOnUse" id="radialGradient8158" r=".5421">
<stop offset="0"/>
<stop offset=".4402" stop-color="#c1c1c1"/>
<stop offset="1" stop-color="#6e6e6e"/>
</radialGradient>
<radialGradient cx="161.09946" cy="307.87552" gradientTransform="matrix(12.37512,.52837,-.06402,1.50024,-1583.1901,17.9459)" gradientUnits="userSpaceOnUse" id="radialGradient8185" r="10.6511">
<stop offset="0" stop-color="#980101"/>
<stop offset="1"/>
</radialGradient>
<radialGradient cx="-9739.752" cy="-7041.9805" gradientTransform="matrix(-.01573,-.08288,.21017,-.03988,1820.271,-568.1496)" gradientUnits="userSpaceOnUse" id="radialGradient8188" r="1212.8619">
<stop offset="0" stop-color="#ff8080"/>
<stop offset=".1482" stop-color="#f00"/>
<stop offset="1" stop-color="#2b0000"/>
</radialGradient>
<radialGradient cx="-13393.092" cy="-8873.1924" gradientTransform="matrix(1.34526,-.62558,.37949,.71724,7964.0766,-10907.036)" gradientUnits="userSpaceOnUse" id="radialGradient8379" r="194.82228">
<stop offset="0" stop-color="#eee"/>
<stop offset="1" stop-color="#aaa"/>
</radialGradient>
<radialGradient cx="-13591.438" cy="-8579.6055" gradientTransform="matrix(-.88326,-.49164,.91911,-1.45126,-17435.549,-28193.744)" gradientUnits="userSpaceOnUse" id="radialGradient8381" r="194.82228">
<stop offset="0" stop-color="#eee"/>
<stop offset="1" stop-color="#888"/>
</radialGradient>
<radialGradient cx="2156.3743" cy="-2157.7146" gradientTransform="matrix(.58201,-.45608,1.60123,2.04332,4356.3499,3234.657)" gradientUnits="userSpaceOnUse" id="radialGradient8389" r=".5421">
<stop offset="0"/>
<stop offset=".4402" stop-color="#eee"/>
<stop offset="1" stop-color="#888"/>
</radialGradient>
<radialGradient cx="2156.3389" cy="-2157.7769" gradientTransform="matrix(2.32148,1.63614,-1.10286,1.56483,-5229.2671,-2309.343)" gradientUnits="userSpaceOnUse" id="radialGradient8391" r=".36627">
<stop offset="0" stop-color="#eee"/>
<stop offset=".5" stop-color="#909090"/>
<stop offset="1" stop-color="#333"/>
</radialGradient>
<radialGradient cx="-26.45017" cy="-537.58649" gradientTransform="matrix(-.88554,.50486,-.24698,-1.76866,-203.95104,-1509.0878)" gradientUnits="userSpaceOnUse" id="radialGradient8397" r="21.42857">
<stop offset="0" stop-color="#ccc"/>
<stop offset="1"/>
</radialGradient>
<radialGradient cx="-50.24281" cy="-561.37323" gradientTransform="matrix(.86748,1.95251,-.65054,1.18935,-371.71943,204.22874)" gradientUnits="userSpaceOnUse" id="radialGradient8401" r="23.31562">
<stop offset="0" stop-color="#f9f9f9"/>
<stop offset="1" stop-color="#f9f9f9" stop-opacity="0"/>
</radialGradient>
<radialGradient cx="372.2049" cy="514.8631" gradientTransform="matrix(-.40028,-1.95011,2.06557,-.42401,-543.28707,1458.4143)" gradientUnits="userSpaceOnUse" id="radialGradient7984" r="1.54323" xlink:href="#linearGradient6496"/>
<radialGradient cx="170.07961" cy="313.8345" gradientTransform="matrix(.77515,-10.19461,-28.28136,-2.15038,8974.5139,2978.3593)" gradientUnits="userSpaceOnUse" id="radialGradient8149" r="1.08431" xlink:href="#linearGradient6496"/>
<radialGradient cx="170.87646" cy="313.18573" gradientTransform="matrix(-2.53384,-11.55008,25.27536,-5.54487,-6973.7257,4276.5251)" gradientUnits="userSpaceOnUse" id="radialGradient8152" r="1.08431" xlink:href="#linearGradient6496"/>
<radialGradient cx="119.03332" cy="67.85675" gradientTransform="matrix(2.1361,.97469,-.1548,.33927,98.15135,375.5447)" gradientUnits="userSpaceOnUse" id="radialGradient8191" r="12.99568" xlink:href="#linearGradient4278"/>
<radialGradient cx="144.8909" cy="50.76863" gradientTransform="matrix(1.26866,-1.07463,.74281,.87693,146.45917,623.30328)" gradientUnits="userSpaceOnUse" id="radialGradient8194" r="5.60007" xlink:href="#linearGradient4278"/>
<radialGradient cx="2144.2217" cy="-2159.572" gradientTransform="matrix(3.92577,1.71801,-9.51667,21.7462,-28586.417,43790.949)" gradientUnits="userSpaceOnUse" id="radialGradient8198" r=".37967" xlink:href="#linearGradient3237"/>
<radialGradient cx="2144.2217" cy="-2159.572" gradientTransform="matrix(-1.71801,3.92577,-21.7462,-9.51667,-42889.466,-28452.239)" gradientUnits="userSpaceOnUse" id="radialGradient8201" r=".37967" xlink:href="#linearGradient3237"/>
<radialGradient cx="119.59464" cy="60.41899" gradientTransform="matrix(.67877,-.0916,.06872,.50923,261.49858,504.57246)" gradientUnits="userSpaceOnUse" id="radialGradient8221" r="13.19215" xlink:href="#linearGradient4278"/>
<radialGradient cx="-1604.6112" cy="-882.30109" gradientTransform="matrix(.00503,-1.2242,.62001,.00255,942.86025,-1440.9251)" gradientUnits="userSpaceOnUse" id="radialGradient8229" r="22.75907" xlink:href="#linearGradient31281"/>
<radialGradient cx="380.52643" cy="475.54443" gradientTransform="matrix(.85991,-.29137,.33595,.99149,-106.18933,116.72145)" gradientUnits="userSpaceOnUse" id="radialGradient8361" r="1.08797" xlink:href="#linearGradient6496"/>
<radialGradient cx="-13317.456" cy="-8948.9043" gradientTransform="matrix(-.9316,.49311,-.40216,-.66778,-29484.591,-8234.0887)" gradientUnits="userSpaceOnUse" id="radialGradient8377" r="194.82228" xlink:href="#linearGradient6058"/>
<radialGradient cx="340.87207" cy="482.59592" gradientTransform="matrix(.38472,-.18146,.67893,1.43939,-116.46203,-152.73107)" gradientUnits="userSpaceOnUse" id="radialGradient8393" r="14.63452" xlink:href="#linearGradient3237"/>
<radialGradient cx="349.22375" cy="487.61456" gradientTransform="matrix(.83694,-.23627,.02835,.10043,42.27913,521.50138)" gradientUnits="userSpaceOnUse" id="radialGradient8395" r="23.02883" xlink:href="#linearGradient4278"/>
<radialGradient cx="320.36816" cy="508.8338" gradientTransform="matrix(.68727,-.19637,.24396,.85383,-23.91547,137.17406)" gradientUnits="userSpaceOnUse" id="radialGradient8403" r="2.59191" xlink:href="#linearGradient4278"/>
<radialGradient cx="91.14665" cy="43.29912" gradientTransform="matrix(1.23805,.28721,-.24152,1.04112,-11.24586,-28.22156)" gradientUnits="userSpaceOnUse" id="radialGradient8405" r="1.96553" xlink:href="#linearGradient3283"/>
<radialGradient cx="91.14665" cy="43.29912" gradientTransform="matrix(-1.23805,-.28721,.24152,-1.04112,426.79206,579.25322)" gradientUnits="userSpaceOnUse" id="radialGradient8407" r="1.96553" xlink:href="#linearGradient3283"/>
<radialGradient cx="-1604.6112" cy="-882.30109" gradientTransform="matrix(1.13824,-.45066,.22824,.57648,2375.473,316.40087)" gradientUnits="userSpaceOnUse" id="radialGradient8409" r="22.75907" xlink:href="#linearGradient31281"/>
<radialGradient cx="345.51385" cy="539.44397" gradientTransform="matrix(1.24177,-.55101,.4202,.94696,-310.09362,216.05735)" gradientUnits="userSpaceOnUse" id="radialGradient8427" r="17.20526" xlink:href="#linearGradient4278"/>
<radialGradient cx="2147.7324" cy="-2160.2671" gradientTransform="matrix(22.6605,7.96553,-7.05557,20.07182,-65456.88,25339.745)" gradientUnits="userSpaceOnUse" id="radialGradient8429" r="2.6974" xlink:href="#linearGradient6058"/>
</defs>
<g transform="translate(-224.59985,-464.66018)">
<path d="m343.81757,541.02872c-.47614-.0803-1.16174-.33284-1.52356-.56125-1.47611-.93183-2.79927-3.53425-3.53999-6.96254-.16033-.74203-.37338-1.34592-.47346-1.34198s-.49173.0671-.87034.14046l-.68839.13329-.50461-1.12854c-1.30206-2.91201-2.65273-7.66571-3.38404-11.91016-1.03192-5.98922-1.0746-6.16742-1.50293-6.27493-.38583-.0968-.39247-.13138-.39247-2.04234 0-1.27318.0628-1.96476.18197-2.00449 .12597-.042.14515-.45367.0623-1.3375-.11793-1.25852-.12822-1.28124-.71698-1.58321-.78736-.40382-1.31817-.99065-1.57692-1.74332-.30534-.88818-.0788-1.63673.75127-2.48253 .80763-.82291.76114-1.08998-.0974-.55939-1.08248.66901-1.58869,2.47716-1.00528,3.59078 .27015.51567 1.16349,1.38899 1.70575,1.66753l.37477.1925-.53939.76726c-.69864.99379-2.14834,2.5088-2.40064,2.5088-.10805,0-.19645-.10674-.19645-.23721 0-.57248-.32648-.34037-.81778.5814-.29195.54777-.56574.96104-.6084.91837s.009-1.12404.11402-2.40307c.27589-3.34867.0995-3.57844-.89855-1.17054-.33922.81838-.69446,1.48797-.78942,1.48797-.36194,0-.002-2.05446.67393-3.84198 .61078-1.61629.65009-1.80844.41754-2.041s-.30682-.23225-.77905-.002c-.28727.14032-.95166.64177-1.47641,1.11434s-.99843.81487-1.05262.76068c-.19439-.19439.49925-1.64449 1.2801-2.67614l.79572-1.05124h-.70983c-1.31168,0-2.29593-1.07452-2.01383-2.19851 .2218-.88373.98609-1.34298 5.27742-3.17115 2.62802-1.11957 4.17786-1.86439 4.13348-1.98645-.0391-.10741-2.04109-3.17291-4.44898-6.81222s-4.35657-6.67247-4.33038-6.74036c.0635-.1646 2.80141-2.70242 3.83585-3.5555 3.04713-2.51292 7.39654-4.75816 11.34914-5.85861 1.11445-.31028 3.74125-.82622 3.79879-.74615 .0153.0213 1.93425,3.26109 4.26434,7.19954s4.41044,7.42963 4.62301,7.75818l.38649.59736 4.99052-2.14604c5.16078-2.21924 5.87326-2.42594 6.74839-1.95772 .91411.48907 1.27141,2.05568.64902,2.84569-.18969.24077-1.21578.77453-2.65347,1.38028l-2.34418.9877 .96615.12199c.53138.0671 1.42333.34666 1.98211.62128 2.58341,1.26963 4.49869,4.98678 4.49869,8.73099 0,.87996.077,1.28472.30662,1.61195 .8441,1.20294 2.23467,3.94381 3.22092,6.34861l.26408.64392 .48288-.54086 .48288-.54086 .10907.43459c.06.23902.0661.59876.0137.79943s.0107.77447.14046,1.27511 .26933,1.42791.31022,2.0606c.12973,2.00752.0504,1.93763 2.67836,2.35824 3.64731.58374 5.94937.84981 7.35261.84981 1.27351,0 1.32182-.0147 1.83433-.55811 .85734-.90905 1.09557-2.03048 1.19284-5.61501 .0485-1.78844.007-3.89606-.0977-4.92209-.13948-1.37074-.13645-1.84998.0128-2.02987 .19628-.2365-.11899-.22596-1.46525.049-.37478.0765-.5047-.19611-.80221-1.68368l-.1005-.5025 1.02196-.0145c.56208-.008 1.06229-.0548 1.11157-.1041s-.15646-.47929-.4572-.95558c-1.1329-1.79416-1.2053-2.03239-1.2837-4.22362l-.073-2.0407 .60377.46052c.6906.52674 1.96186.73381 2.55529.41621 .46224-.24738.98935-1.38734.99409-2.14989 .004-.59498-.23813-1.06571-.93906-1.82784l-.39834-.43312 .78214-.2665c1.05477-.35939 1.55987-.33567 2.2121.10389 1.42457.96007 1.82041,3.40493.91285,5.63811-.66259,1.63039-1.53737,3.36536-2.01326,3.99293-.22353.29478-.36692.5999-.31863.67803s.5628.0284 1.14335-.1105l1.05555-.25255 .74656.64453 .74656.64453-.51385.535c-.3577.37244-.66659.53577-1.01655.53753-.725.004-1.00326.21253-.66123.49638 .38519.31969 1.32378,2.24609 1.82107,3.73767 .31278.93813.44956,1.76061.51424,3.09216 .15369,3.16397-.62994,5.33065-3.54269,9.7954-1.29531,1.98548-2.46312,3.28832-2.94751,3.28832-.0828,0-.28005.0946-.43824.21031-.26462.1935-.26722.24945-.0325.69962 .51962.99652.24687,1.90723-.87466,2.92047-.86438.78091-1.39059,1.04038-2.54138,1.25311-1.11185.20554-4.20669.0775-5.57987-.23089l-.93994-.21107-.57984.70762-.57985.70762 .62884,1.69997 .62884,1.69998-.56361.7845c-.62088.86422-.84609.87045-1.49818.0414-.2566-.32621-.36009-.36976-.46547-.19588-.39165.64627-5.65149,4.28632-9.0248,6.24556-7.7103,4.47822-14.44993,6.90906-17.65659,6.36837zm28.35939-20.92359c.35223-.53226.39667-.69591.21947-.80821-.40394-.25598-.78994-.15619-.8686.22454-.31822,1.54029-.10864,1.72873.64913.58367zm8.26926-.29379c.61858-.37715.71815-.7419.16462-.60304-.20372.0511-.98175.14388-1.72896.20617-1.08582.0905-1.32302.15608-1.18151.32659 .38837.46796 2.02491.50985 2.74585.0703z" filter="url(#filter7840)" opacity=".6996"/>
<path class="fil39" d="m391.7097,501.40551c0,0-1.25783-6.61541-2.70985-9.10783 1.33799-1.73676 1.63151-2.80901 2.50413-4.82023 .55173-1.27185.55704-2.53672.13224-3.85639-.28492-.88507-.88927-1.77445-1.80243-1.94976-1.14573-.21982-1.48317.20053-2.61073.49961 .76956.76566 1.70042,1.78318 1.43571,2.68793-.35946,1.22832-.74533,2.13247-2.26631,1.88738-.7613-.12277-1.38651-.76605-1.9277-1.33873 .21717,1.43072-.11692,3.36762.3087,4.75064 .27297.88717.93914,1.60139 1.40867,2.40206 .89576,2.31979 1.37912,7.78486 1.37912,7.78486z" fill="url(#radialGradient8229)" fill-rule="evenodd"/>
<g transform="translate(1.21945)">
<path d="m384.69819,495.43755 7.00957-1.05107 1.09634-1.06098-1.63368-1.42141c-2.36373.57609-4.72875,1.45332-7.0885,1.08076z" fill="#fff"/>
<g transform="matrix(.60069,-.03933,.03933,.60069,144.16484,221.61923)">
<path d="m381.08256,478.50024-1.34479-.41691-.0191-1.40782 1.33301-.45316 .84292,1.12774-.81207,1.15015z" fill="url(#radialGradient8361)" opacity=".858"/>
<path d="m380.95769,477.90196-.84366-.26157-.0122-.88321 .8363-.2843 .5288.70751-.50947.72157z" fill="url(#linearGradient8363)" opacity=".65"/>
<path d="m380.16126,477.59221-.0107-.80104 .75848-.25784 .47961.64168c-.29212.18292-.34842.00013-.63127-.0154s-.42141.23013-.59615.43254z" fill="url(#linearGradient8365)" opacity=".65"/>
<path d="m379.76991,476.7064 .31209.0681 .006.86649-.30549.3662c-.01-.28932-.0122-1.24303-.0129-1.30085z" fill="url(#linearGradient8367)" opacity=".65"/>
<path d="m381.06228,476.28712-.0753.16184 .52067.7208 .3229.14145z" fill="url(#linearGradient8369)" opacity=".6502"/>
<path d="m356.47811,289.56183-.9372-.29241c-.003-.002-.0289-1.86071-.0273-1.92578l.00092-.0387 .92775-.31547c.8661-.2945.92816-.31503.93418-.30892l1.08818,1.45469 .0836.11222-.56317.79794-.56766.80222c-.003.003-.25515-.0735-.93932-.28576zm.85464.23362c-.00057-.0271-.0811-.71259-.084-.71529-.005-.005-1.2245-.37613-1.23056-.37473s-.44059.54598-.43808.54849l1.74791.54809c.003.00015.005-.003.005-.007zm.62123-.75924 .53998-.75528c.002-.004-.0619-.0357-.24185-.12091l-.24748-.11275-.3398.49135-.34813.5039-.0111.0156 .0527.36046 .0527.36426 .003.004 .54004-.75032zm-2.16786-.11478 .21531-.25781-.003-.4961c-.002-.27285-.004-.55132-.005-.61882l-.002-.12273-.20898-.0457-.22233-.0486-.0134-.003 .003.52096c.004.80115.0116,1.33311.0185,1.33067l.21847-.25893zm1.81306-.39922 .36181-.51501c.00091-.004-.73008-.98691-.7471-1.00497-.004-.004-.11223.0314-.59819.19653l-.59567.20435c-.003.003.0145,1.25444.0173,1.25726l1.19661.37202 .36523-.51018zm.87926-.33418-.54393-.72559-.54476-.72572c-.004-.004-.016.0192-.0586.111-.0498.10717-.0535.11671-.0486.12488s.16958.23617.37027.51402l.36487.50518 .22888.10043c.12588.0552.23041.10049.23228.10056s.002-.002-.00042-.005zm-1.87079-1.02188 .61655-.222 .0625-.1122 .0612-.11349-.7338.24056-.88801.29289-.15306.0536 .20833.0422 .20774.04 .61852-.22161z" fill="#fff" filter="url(#filter4103)" opacity=".93" transform="matrix(.70312,0,0,.70312,129.7753,274.67626)"/>
<path d="m381.0351,476.27607-.0873.15697-.86548.31153-.2964-.0563z" fill="url(#linearGradient8371)" opacity=".6626"/>
<path d="m380.10021,477.67204 .86672.26443 .0574.50703-1.23133-.3858z" fill="url(#linearGradient8373)" opacity=".65"/>
<path d="m381.49942,477.20938-.49205.712 .0746.51109 .75994-1.06102z" fill="url(#linearGradient8375)" opacity=".65"/>
</g>
</g>
<path d="m371.32671,515.21182c-4.6537.60809-4.65279-7.92423-1.54746-8.94728 0,0 13.98835,2.812 15.35892,1.87196 2.67363-1.83379 1.18822-12.851 1.18822-12.851s3.36054-2.1708 4.55709-.0848c4.91624,8.57045.0454,13.73291-2.71246,18.14612-2.95417,4.72725-16.84431,1.86504-16.84431,1.86504z" stroke="#000"/>
<path d="m358.5234,489.52976c-1.11535.005-1.98956-.35158-2.4858-.22481-1.17533.30026-.85461,1.28248-1.0891,1.59246-.28335.37458 1.87987,1.36913 1.61568,1.7572-2.34871,3.45-2.26671,5.80989-2.13966,4.33046 .0211-.24622-1.12709,2.52472-1.30954,2.06931-.24293-.60636.43076-4.50882.14253-5.36756-.12009-.3578-1.29463,3.54829-1.65271,3.38402-1.07215-.49185 1.02442-5.31572 1.17574-5.70981 .24866-.6476-.42825.15338-.16983-.55097-.9972-.22342-2.98304,2.49181-3.22187,2.18794-.84586-1.0762 3.80802-5.63087 6.31093-7.6676 16.68596-10.09523 16.21583,27.31646 2.82363,4.19936z" fill="#ececec" stroke="#dfdfdf" stroke-width=".37444"/>
<g transform="matrix(.9705,-.24112,.24112,.9705,-112.26355,100.4433)">
<path d="m335.71204,510.73915c0,12.41543 8.4883,22.48013 18.95915,22.48013s18.95914-10.0647 18.95914-22.48013-4.94003-22.94331-15.16732-25.18858c-11.27417-2.47509-18.76492.53788-21.61503,6.81435-.11121.2449-.36106.81418-.94412.90276-2.29902.96895-2.01256,3.76061.14343,5.02666-.93159,3.97884-.87558,8.38199-.33525,12.44481z" fill="#ecb165" fill-rule="evenodd" stroke="#8c5124" stroke-width=".36496"/>
</g>
<path d="m339.69381,528.9734 22.14953-3.51049-2.57536-7.78511-23.77844-5.08783c-.34756,3.27861 2.35169,13.38072 4.20427,16.38343z" fill="url(#radialGradient8221)"/>
<path d="m358.07606,515.47072 6.12196,17.04933 1.55675-.77899-2.22635-17.57042z" fill="#fff"/>
<path d="m2139.3204-2158.7487c-.9656.1699-1.9357.3379-2.8998.5009-.2646-.3149-.5498-.6573-.9281-.8331-.321-.07-.8244.1984-.6469.5786 .078.1598.1976.3309.2491.4835-.5641.093-1.0712-.219-1.6073-.3536-.3626-.1149-.7052-.2688-1.0674-.3629-.2068-.085-.554-.1883-.6978.06-.1262.3825-.2641.7628-.3992,1.1398-.022.1691-.2845.092-.4115.1467-.7903.1047-1.7074.2893-2.1532,1.0299-.1636.2152-.2408.4881-.3417.7253-.354.2105-.4929.8244-.1111,1.0795 .4246.3404 1.0264.2046 1.488.025 .1691-.025.3412-.015.5116-.017 .043.8767.7491,1.7405 1.6461,1.8162 .447.03.9198.01 1.2952-.2652 .4757-.2902.8021-.7986.892-1.3461 .2138.2209.5731.077.8489.1352 2.9527.09 5.9063.1769 8.8588.2586 .1458.038.2483-.2409.3361-.07 .2544.696.9005,1.2478 1.6461,1.3193 .7686.071 1.5435-.3397 1.8979-1.0273 .041-.2236.2175-.2508.4191-.2141 .7588-.01 1.5694.2341 2.2851-.1221 .5286-.2111.6432-.9392.2906-1.3554-.088-.119-.1974-.2256-.3255-.3001 .3548-.9266.6498-1.9947.2666-2.96-.3986-.9191-1.4742-1.3281-2.4202-1.2965-1.1066-.053-2.2.1326-3.2909.288-1.7791.3289-3.6311.575-5.6306.9369z" filter="url(#filter4811)" opacity=".7407" transform="matrix(12.41516,0,0,12.41516,-26187.234,27325.449)"/>
<g transform="matrix(12.38481,.86758,-.86758,12.38481,-28055.566,25392.202)">
<path d="m2140.2442-2157.2282-3.2503-.7989c0,.059.02.1114-.052.2139 .013.067.023.1353-.054.2248 .01.08.034.1635-.069.2215 0,.068.031.134-.052.2133 .025.071.02.1346-.057.1827 .01.094 0,.1809-.06.2521 .035.095-.017.1786-.071.2624z"/>
<path d="m2136.9392-2157.8166 .1019.062 2.6404.6413 .074-.019-2.6551-.6753z" fill="#666"/>
<path d="m2136.8777-2157.6 .1019.062 2.2812.5171 .066-.019-2.2882-.551z" fill="#666"/>
<path d="m2136.8177-2157.3686 .1019.062 1.828.392 .085-.019-1.8543-.426z" fill="#4d4d4d"/>
<path d="m2136.757-2157.1496 .1019.062 1.367.2839 .082-.019-1.3894-.3179z" fill="#4d4d4d"/>
<path d="m2136.71-2156.959 .1019.062 .9004.1952 .097-.015-.9385-.2332z" fill="#4d4d4d"/>
<path d="m2136.6467-2156.7305 .1019.062 .4714.074 .097-.023-.5094-.1036z" fill="#4d4d4d"/>
<path d="m2136.9873-2158.0314 .1019.062 3.1418.7398 .058-.012-3.1409-.7777z" fill="#666"/>
</g>
<path d="m326.7747,532.35603c0,0-1.4575-6.15171-4.8443-10.54295-.745-.95597-.9933-2.65436.2979-3.62399 .8939-.67042 2.9263-1.62514 2.9263-1.62514 1.4103-.62076 2.8666.45936 4.061,1.21668 4.5687,2.89398 10.8533,12.06009 10.8533,12.06009z" fill="url(#linearGradient8207)"/>
<path d="m327.3657,532.45783c0,0-2.7375-7.59807-5.0107-10.47715-.5091-.62076-.6705-1.74185.1986-2.3775 .5959-.43453 1.9579-1.0677 1.9579-1.0677 .9435-.4097 1.9467.26071 2.7176.79457 3.9605,2.7574 8.5417,11.56968 8.5417,11.56968z" fill="url(#linearGradient8204)"/>
<path d="m385.0353,513.13438c-1.018-.45936-2.7449-1.10495-3.4787.58351-.7325,1.6835.5835,2.87411 1.7878,3.44273l9.3511,4.22363c1.8821.84423 3.141,1.08012 3.8487-.48419 .7077-1.56679-.6704-2.67174-1.9864-3.23787-.1242-.12415-7.2132-3.46755-9.5212-4.52657z" fill="url(#radialGradient8201)"/>
<path d="m375.5384,523.12136c-.4594,1.01804-1.105,2.74499.5835,3.47872 1.6835.7325 2.8741-.58351 3.4427-1.78778l7.6415-16.02418c.8443-1.88213 1.0801-3.14103-.4842-3.84869-1.5668-.70767-2.6717.67041-3.2378,1.98642-.1242.12415-6.8855,13.88629-7.9445,16.19426z" fill="url(#radialGradient8198)"/>
<path d="m363.42915,516.18606 .9747,7.14749 9.2738-2.21302c1.07431-4.62508 1.6327-9.37915.10543-14.65462z"/>
<path d="m363.13983,515.12947 1.21966,8.38473 2.79233-7.79965 .83584-1.67166 1.17016.58508 5.18215-5.68365-.75225-4.17916z" fill="url(#radialGradient8194)"/>
<path d="m358.67039,515.60019-24.11598-6.23795 1.25374,6.8309 15.54568,1.80704 1.17104-1.67579 1.16926,1.66755 7.37711,6.1116z" fill="url(#radialGradient8191)"/>
<path d="m241.6179,568.16382 258.4377,8.7291c0,0 52.3572-80.92572-31.9393-70.56651-61.2054,7.52234-115.785,20.55453-202.6824,32.40232-27.949,3.81021-23.816,29.43509-23.816,29.43509z" fill="url(#radialGradient8188)"/>
<path d="m241.8706,568.0927 257.8874,8.87311 6.0107-10.01779-264.4703-3.57767z" fill="url(#radialGradient8185)" opacity=".2469"/>
<path d="m320.849,530.56328c0,0-1.9343,12.10354.9808,16.41035 3.0554,4.5154 9.6863,7.93701 15.0496,8.90912 13.8976,2.52152 35.5844,6.31187 44.6921-4.48435 6.3603-7.53973-4.539-30.35506-4.539-30.35506" fill="none" opacity=".5473" stroke="#680101" stroke-width="2.48303"/>
<path d="m-13316.103-8764.2451c0,100.8725-87.224,182.6459-194.822,182.6459s-194.822-81.7734-194.822-182.6459 87.225-182.6459 194.822-182.6459 194.822,81.7733 194.822,182.6459z" fill="url(#radialGradient8377)" transform="matrix(.11179,.00844,-.00901,.11924,1889.73289,1729.30395)"/>
<path d="m-13316.103-8764.2451c0,100.8725-87.224,182.6459-194.822,182.6459s-194.822-81.7734-194.822-182.6459 87.225-182.6459 194.822-182.6459 194.822,81.7733 194.822,182.6459z" fill="url(#radialGradient8379)" transform="matrix(.08104,.00612,-.00653,.08645,1496.10413,1410.54852)"/>
<path d="m-13316.103-8764.2451c0,100.8725-87.224,182.6459-194.822,182.6459s-194.822-81.7734-194.822-182.6459 87.225-182.6459 194.822-182.6459 194.822,81.7733 194.822,182.6459z" fill="url(#radialGradient8381)" transform="matrix(.05028,.0038,-.00405,.05363,1102.18982,1091.56216)"/>
<path d="m323.9751,535.32201 16.0628-2.7512c0,0-9.2282,5.15726-12.5691,5.10263-2.1566,0-3.4937-2.35143-3.4937-2.35143z" fill="#5a0101" opacity=".5144"/>
<path d="m-13316.103-8764.2451c0,100.8725-87.224,182.6459-194.822,182.6459s-194.822-81.7734-194.822-182.6459 87.225-182.6459 194.822-182.6459 194.822,81.7733 194.822,182.6459z" fill="url(#radialGradient8377)" transform="matrix(.11179,.00844,-.00901,.11924,1718.55089,1729.19495)"/>
<path d="m-13316.103-8764.2451c0,100.8725-87.224,182.6459-194.822,182.6459s-194.822-81.7734-194.822-182.6459 87.225-182.6459 194.822-182.6459 194.822,81.7733 194.822,182.6459z" fill="url(#radialGradient8379)" transform="matrix(.08104,.00612,-.00653,.08645,1324.92213,1410.43952)"/>
<path d="m-13316.103-8764.2451c0,100.8725-87.224,182.6459-194.822,182.6459s-194.822-81.7734-194.822-182.6459 87.225-182.6459 194.822-182.6459 194.822,81.7733 194.822,182.6459z" fill="url(#radialGradient8381)" transform="matrix(.05028,.0038,-.00405,.05363,931.00782,1091.45316)"/>
<g transform="matrix(12.41516,0,0,12.41516,-26262.752,27307.961)">
<path d="m2147.047-2157.2245 5.5174-.6417c0,0-2.9886.822-4.1679.876-.761.035-1.3495-.2343-1.3495-.2343z" fill="#4c0101"/>
<path d="m2147.6398-2157.1817 3.9533-.5019c0,0-2.8414.5812-3.3599.605-.3347.015-.5934-.1031-.5934-.1031z" filter="url(#filter4103)" opacity=".3992"/>
</g>
<g transform="matrix(12.41516,0,0,12.41516,-26259.205,27316.419)">
<path d="m2147.047-2157.2245 5.5174-.6417c0,0-2.9886.822-4.1679.876-.761.035-1.3495-.2343-1.3495-.2343z" fill="#4c0101"/>
<path d="m2147.6398-2157.1817 3.9533-.5019c0,0-2.8414.5812-3.3599.605-.3347.015-.5934-.1031-.5934-.1031z" filter="url(#filter4103)" opacity=".3992"/>
</g>
<g transform="matrix(12.41516,0,0,12.41516,-26258.932,27324.877)">
<path d="m2147.047-2157.2245 5.5174-.6417c0,0-2.9886.822-4.1679.876-.761.035-1.3495-.2343-1.3495-.2343z" fill="#4c0101"/>
<path d="m2147.6398-2157.1817 3.9533-.5019c0,0-2.8414.5812-3.3599.605-.3347.015-.5934-.1031-.5934-.1031z" filter="url(#filter4103)" opacity=".3992"/>
</g>
<g transform="matrix(12.41516,0,0,12.41516,-26262.752,27307.961)">
<path d="m2156.865-2157.128c-.2133-.9716-1.1989-1.6637-1.1306-1.1341 0,0 .018.2908.3308.6301 .2816.3154.8977.9501.7998.504z" fill="#960101" filter="url(#filter4189)" opacity=".6049"/>
<path d="m2156.8504-2157.1585c-.202-.9206-1.1358-1.5763-1.0711-1.0745 0,0 .017.2754.3134.5969 .2668.2988.8505.9002.7577.4776z" fill="url(#radialGradient8389)"/>
<path d="m2156.6778-2157.3373c-.1365-.622-.7674-1.0651-.7237-.726 0,0 .012.1861.2117.4033 .1803.2019.5747.6083.512.3227z" fill="url(#radialGradient8391)"/>
</g>
<path d="m2156.865-2157.128c-.2133-.9716-1.1989-1.6637-1.1306-1.1341 0,0 .018.2908.3308.6301 .2816.3154.8977.9501.7998.504z" fill="#960101" filter="url(#filter4189)" opacity=".6049" transform="matrix(-6.94507,.40308,.40308,6.94507,16092.289,14668.208)"/>
<path d="m243.2952,555.98141c1.0318-6.47505 7.2528-11.40534 7.0057-7.89422 0,0-.01,1.91953-1.936,4.27184-1.7325,2.18273-5.5439,6.59477-5.0697,3.62238z" fill="url(#radialGradient8158)"/>
<path d="m244.4218,554.67006c.6973-4.37485 4.9003-7.70652 4.7335-5.33383 0,0-.01,1.29731-1.3077,2.88628-1.1708,1.47488-3.7461,4.45634-3.4258,2.44755z" fill="url(#radialGradient8155)"/>
<path d="m496.4503,567.1309c-9.3305-.41094-5.439,8.89546-3.373,9.50554 15.7365,2.95183 25.3638-2.63537 24.2464-9.77545-1.2253-7.44177-7.7336-11.48302-8.6335-6.53769-1.3484,3.44371-1.3687,4.04473-3.6542,5.18742-2.5598,1.27988-8.5857,1.63607-8.5857,1.61993z" fill="url(#radialGradient8152)"/>
<path d="m251.8629,563.82969c6.2449-1.0677 5.5757,5.10139 3.0877,6.10826-10.3381,3.33968-17.2981.4097-17.1602-4.49305 .1862-5.1138 4.2186-8.39512 5.2491-5.14359 1.2043,2.2012 1.2713,2.60345 2.9051,3.17703 1.8325.64559 5.9196.36004 5.9171.34763z" fill="url(#radialGradient8149)"/>
<path d="m2138.2261-2155.7789c-.9293.1292-1.6689.9696-1.7422,2.0313v.062l.3999.031c.067-.9688.8566-1.6981 1.742-1.625 .8553.071 1.4737.8544 1.4566,1.7813l.4284.031c.052-1.188-.7659-2.2224-1.8563-2.3125-.1387-.012-.2958-.019-.4284,0z" filter="url(#filter4103)" transform="matrix(12.18644,0,0,11.04461,-25774.093,24354.725)"/>
<path d="m283.0287,542.2149c-12.6225,1.60404-22.6701,12.03774-23.6658,25.21891v.76974l5.4317.38487c.9063-12.0278 11.6379-21.08218 23.6657-20.17463 11.6181.88148 20.0195,10.60751 19.7873,22.11512l5.819.38487c.7201-14.74921-10.4039-27.59144-25.2177-28.71005-1.8834-.14898-4.0175-.23589-5.8202,0z" fill="url(#radialGradient8145)"/>
<path d="m2152.137-2155.71c-.9385.1204-1.7107.9042-1.7844,1.8942-.017.2401.028.4796.087.6993h.4029c-.067-.2019-.1031-.4444-.087-.6702 .067-.9034.8633-1.5836 1.7556-1.5153s1.5639.8742 1.4965,1.7776c-.014.1927-.071.3574-.1438.5245h.4317c.052-.1578.1021-.3219.1151-.4954 .085-1.1315-.7533-2.1292-1.8707-2.2147-.1398-.011-.269-.017-.403,0z" filter="url(#filter4103)" opacity=".8354" transform="matrix(12.10266,0,0,11.66213,-25590.458,25684.646)"/>
<path d="m456.0463,540.20737c-12.651,1.6028-23.0599,12.03774-24.0543,25.21891-.2359,3.1969.3724,6.38512 1.167,9.31137h5.4316c-.9063-2.68912-1.3905-5.91706-1.167-8.92402 .9063-12.0278 11.638-21.08341 23.6658-20.17463s21.0834,11.63921 20.1746,23.66702c-.1986,2.56621-.956,4.75873-1.9393,6.98352h5.819c.7077-2.10064 1.3769-4.28571 1.5519-6.59617 1.1422-15.06455-10.1543-28.34877-25.2176-29.486-1.8834-.14898-3.6253-.22347-5.4317,0z" fill="url(#radialGradient8141)"/>
<path d="m314.5934,567.00799v3.01067l-2.4633,2.73705 120.9743,3.55806-1.9159-1.91591-1.6422-4.65283z" fill="url(#linearGradient8138)"/>
<path d="m325.9156,535.60011 10.3021-1.64998c0,0-6.8246,2.87411-8.5242,2.8468-1.0926,0-1.7779-1.19186-1.7779-1.19186z" opacity=".3004"/>
<path d="m277.5089,537.29105c0,0-2.4892,2.76238-4.061,3.70469-5.8041,3.47748-13.5164,4.65568-19.1355,6.77122-3.4638,1.30484-3.4203-3.17828-3.4203-3.17828" fill="none" opacity=".2346" stroke="#680101" stroke-width=".85653"/>
<path d="m853.06525-779.68556c-3.4547,17.20083-58.54183-3.86751-123.71588,7.55352-79.88752,13.9994-115.05134-36.83092-111.20529-54.7362 3.68448-17.15307 58.84418-20.58264 123.71586-7.55352s114.66,37.53537 111.20531,54.7362z" fill="#ffcb87" filter="url(#filter4177)" opacity=".716" transform="matrix(-.03648,.00906,.00906,.03648,384.892,510.64894)"/>
<path d="m333.75548,499.52902c.0403-.008.0813-.0109.12251-.0106l.003-.00073 .00097-.00024c.0835.003.16415.0163.24173.0331l.1239.0257-.0433.12063-.017.0485-.0488.0183-.12579.0465-.0295.0104-.0305-.006c-.0577-.0116-.11294-.0178-.16701-.0211l-.0389.0401c-.0356.0459-.0595.10341-.0768.17017-.013.0503-.0105.10783-.002.17459 .007.0526.0295.10233.0663.15599l.00024.00097 .00024.00097c.0361.0558.0889.10616.14992.16116s.13376.0948.21644.13395c.0892.0414.19114.0683.2991.0982l.33467.0939-.32634.11776-.12581.0465-.0338.0115-.0341-.008c-.10723-.0297-.22202-.0603-.335-.11365l-.00024-.00097c-.0915-.0442-.18567-.0964-.27026-.17247l-.00097.00024c-.0636-.058-.13251-.12362-.18793-.20972l-.00024-.00097c-.0479-.0725-.0904-.15717-.10343-.25664-.009-.0791-.0149-.16792.008-.26152s.0538-.17508.11353-.25561l.00073-.001 .00073-.001c.0815-.10144.19458-.1628.31533-.1867z" fill="#b0753d"/>
<path d="m362.37398,507.87373 .008.0331 .0374-.003 .0522.21442c-.0421.0166-.0877.0471-.13806.0831l-.00097.00024c-.0674.0473-.13216.10208-.19998.15958l-.00073.001-.00097.00024c-.0837.0681-.16789.13671-.25608.20403l-.003.002c-.0996.0808-.20327.15696-.30964.22803-.12989.0861-.26414.16186-.39837.23328-.16241.0852-.32753.16257-.49216.23673-.19308.086-.38885.16462-.58412.24126-.22877.0891-.45938.17204-.68938.25371l-.79433.26752-.00097.00024c-.32589.0981-.65617.17796-.98658.24923l-.00097.00024c-.27936.0643-.56055.10774-.8437.13636-.27298.0264-.54353.0145-.80936-.008l-.00097.00024c-.12416-.0119-.24568-.0291-.36563-.0465l-.42741-.0617 .40295-.15348 .12437-.0462 .0265-.01 .0284.004 .35451.0447c.25895.0214.51492.0299.76733.005 .2757-.0283.54817-.0705.8171-.13283l.00097-.00024c.24292-.0531.48289-.10967.71634-.1821 .26343-.0829.52483-.17068.78639-.26256 .22916-.0813.45687-.1643.68221-.25192 .19308-.0757.38474-.1535.57298-.23695l.00097-.00024c.16259-.073.3231-.14766.47884-.22885 .13111-.0694.2591-.14145.38004-.2211l.00024.00097c.10208-.0677.20037-.13974.29418-.21655l.00072-.001 .00098-.00024c.0842-.0638.16691-.13266.25211-.20152l.00098-.00024c.0665-.0564.13511-.11569.21256-.17034l.003-.002c.0514-.0376.10884-.0795.18013-.11039l.12151-.0515z" fill="#8c5124"/>
<path d="m359.56976,505.33145c.16504-.042.32889-.0899.49192-.14055l.4716-.14922 .45759-.15335 .45162-.15651 .40448-.14779 .003-.002 .003-.00072 .21874-.091-.0842-.20343-.0797.0136-.0423.007-.0374.0165c-.0577.0264-.11873.0517-.1856.0782l-.003.00072c-.12874.0487-.25867.0957-.39017.14269l-.44185.15408-.45062.15008-.46426.14739c-.15299.0473-.30708.0904-.46331.13036l-.38906.0845-.003.00072-.47897.0778-.492.0566c-.16403.0159-.32977.0294-.49559.0422l-.003.00072-.4607.026-.11118.002 .21348-.16445-.4831.0925-.0792.0156-.0718.0137-.0501.0384-.0734.0595-.007.005-.004.005-.0533.0468-.0317.0292-.39165.12626 .2514-.001-.10441.0916 .43067-.0841 .0545-.0104 .0623-.00023 .29471-.005 .003.00024 .48623-.0276 .50816-.0438c.17066-.0166.34509-.0347.51996-.059s.33786-.0496.51147-.0828l.003-.00072c.1918-.0374.38697-.0793.58252-.13102l.003-.00073z" fill="#8c5124"/>
<path d="m350.46352,499.01388 .11819-.01 .0117-.002 .11966-.01 .0131-.002 .0317.21954-.0129.003c-.0448.0101-.0882.024-.13152.0419l-.00097.00025-.00073.001c-.0592.0229-.11635.0577-.17509.1-.0657.0493-.12636.11012-.18959.17683-.0699.0741-.13588.15539-.20008.23897l-.002.004c-.0685.0951-.13571.19053-.19728.2871-.0691.10744-.13657.21453-.1959.32339l-.00073.001c-.0591.11041-.1054.22983-.14421.35328l.00025.00097c-.0347.11287-.0553.23235-.0674.35555-.00022.001-.00049.002-.00025.003-.009.12556-.007.25246.002.37793l.00072.003c.005.0539.017.11172.0281.17463l.0186.10376-.1023.0244-.12937.0321-.11525.0276-.0198-.11717c-.0108-.0602-.0247-.12418-.0317-.19511l-.00024-.00097-.00024-.00097c-.011-.13909-.0109-.27861-.002-.41779l-.00024-.00097 .00073-.001c.0127-.13448.0331-.2707.0746-.40619 .0418-.13453.0925-.2687.1608-.39708l.00097-.00024-.00024-.00097c.0637-.11815.1335-.2295.20419-.3392l.20629-.30002 .00073-.001-.00024-.00097c.0673-.0884.13807-.17607.21627-.25977l.00097-.00024c.065-.0687.13283-.14226.21729-.20661l.00097-.00024 .00097-.00024c.0649-.0478.1374-.0944.22148-.12829l-.00024-.00097 .004-.00096 .0718-.024-.006-.0259z" fill="#8c5124"/>
<g transform="matrix(-.046,.01143,.01143,.046,396.89391,513.88351)">
<path d="m881.63229-644.53425c1.87174,1.09996 3.74166,2.20212 5.58504,3.34933 2.6722,1.66553 5.33116,3.3538 7.9267,5.13687 1.65486,1.19399.84638.5937 2.4267,1.79918l-2.79688.25825c-1.57826-1.19589-.77087-.60013-2.42343-1.78559-2.59825-1.776-5.25621-3.4627-7.92914-5.12382-1.84498-1.14149-3.71133-2.24739-5.59194-3.32922l2.80295-.305z" fill="#5e83a4" stroke="#000" stroke-width="4.7"/>
<path d="m875.90722-644.52679c1.52679,1.07984 2.8526,2.41554 4.17334,3.73176 1.79485,1.91354 3.54391,3.87077 5.27267,5.84442 2.05884,2.33568 4.02642,4.75012 5.98992,7.16593l1.00975,1.29003-2.80032.18651-1.00962-1.28499c-1.96462-2.41205-3.9307-4.82475-5.99197-7.15541-1.72769-1.96857-3.47272-3.92402-5.27454-5.82488-1.3139-1.30134-2.63293-2.62927-4.17457-3.66329l2.80534-.29008z" fill="#5e83a4" stroke="#000" stroke-width="4.7"/>
<g transform="matrix(.81987,0,0,.42009,880.38725,-409.82552)">
<path d="m-18.57143-553.35211c0,23.66934-9.5939,42.85714-21.42857,42.85714s-21.42857-19.1878-21.42857-42.85714 9.5939-42.85715 21.42857-42.85715 21.42857,19.1878 21.42857,42.85715z" fill="#f9f9f9" stroke="#000" stroke-width="13.46114"/>
<path d="m-25.71429-524.06641c0,8.28427-5.43654,15-12.14286,15s-12.14286-6.71573-12.14286-15 5.43654-15 12.14286-15 12.14286,6.71573 12.14286,15z" stroke="#000" stroke-width="11.07926" transform="matrix(1,0,0,1.47619,-2.85714,235.26971)"/>
</g>
</g>
<path d="m361.10391,489.81057c.0555-.0159.11212-.0258.16881-.0358 .0715-.0116.14328-.003.21427.007 .0863.0129.1689.0416.25046.0715 .0645.0241.12585.0554.18808.0846l.12604-.0436-.1884-.0857c-.082-.0302-.16475-.06-.25133-.0742-.0714-.01-.14363-.0209-.21566-.0106l-.16906.0348-.12319.0521z" fill="#5e83a4" stroke="#000" stroke-width=".22277"/>
<path d="m360.97484,489.8562c.0595.0348.11243.0793.16656.12157 .0699.0576.14297.11077.2171.16265 .0863.0621.17215.12458.2546.1917l.13158.11863 .1272-.0399-.13188-.11937c-.0824-.0676-.16838-.13031-.25476-.19268-.0739-.0518-.14741-.10415-.2168-.16204-.0547-.0425-.10762-.0877-.16707-.1237l-.12663.0429z" fill="#5e83a4" stroke="#000" stroke-width=".22277"/>
<path d="m-18.57143-553.35211c0,23.66934-9.5939,42.85714-21.42857,42.85714s-21.42857-19.1878-21.42857-42.85714 9.5939-42.85715 21.42857-42.85715 21.42857,19.1878 21.42857,42.85715z" fill="#f9f9f9" stroke="#000" stroke-width="15.16502" transform="matrix(-.03406,.00846,.00419,.01686,361.19365,500.10905)"/>
<path d="m-25.71429-524.06641c0,8.28427-5.43654,15-12.14286,15s-12.14286-6.71573-12.14286-15 5.43654-15 12.14286-15 12.14286,6.71573 12.14286,15z" stroke="#000" stroke-width="12.48164" transform="matrix(-.03406,.00846,.00618,.02489,362.27634,504.05103)"/>
<path d="m348.55263,493.2047c1.38704-.92801 1.96795-2.51505 1.0732-3.9283-.20574-.32496-.30362,1.69877-.59446,1.48121 .009.64923-.35267.74951-1.05245.97397-.20302.0651-.3215-.42348-.66257.17313-.20246.35411-.57827.35297-1.18144.80369-.5728.42803-2.03698-.14911-2.08015-.91609 .0788.27162.19503.53633.35385.7872 .90882,1.43566.25831,1.0529 3.9568.74373 .0265-.002-.3753-.60309.18718-.11857z" fill="#ececec" stroke="#dfdfdf" stroke-width=".22277"/>
<path d="m359.20691,489.15126c-1.17135.51571-2.43772.24178-2.98453-.91336-.12571-.26564 1.22463.49854 1.20342.22191 .41671.27105.63028.0788 1.06347-.28099 .12565-.10443-.14187-.38061.38479-.35663 .31253.0141.4664-.22888 1.0063-.43386 .51273-.1946.74143-1.37545.26266-1.71685 .14323.16207.26696.34513.36408.55014 .55551,1.17339.57534.59714-1.14626,2.85744-.0126.0161-.23605-.48872-.15375.0724z" fill="#ececec" stroke="#dfdfdf" stroke-width=".22277"/>
<g transform="matrix(.99296,-.11843,.11843,.99296,-56.34263,43.95452)">
<path d="m335.02728,490.55598-7.67425-15.2769c6.77283-5.59211 13.54566-7.85873 20.31849-7.98029l7.95055,17.92902z" fill="url(#radialGradient8393)"/>
<path d="m327.80741,496.17038 39.10941-11.47383c1.8065-.43404 1.68874-4.4924-1.81813-3.78842l-38.7388,11.40949c-3.0906,1.0079-2.0979,4.76145 1.44752,3.85276z" fill="url(#radialGradient8395)"/>
</g>
<path d="m352.76153,489.56214 .0345.01c.0892.0257.16429.0672.23121.10128l.48571.23494-.00024-.00097c.23871.11215.46871.23722.69531.36599l.00024.00097c.25329.14454.50161.29475.7498.44406l.77778.47066 .75837.48464c.24308.15514.47607.32275.70447.49499s.43959.35505.64762.54269l.00097-.00025c.20075.18246.39197.37311.58007.56557s.35573.39614.51535.60608 .30122.42634.43552.64727c.13541.22276.25296.45299.36004.68739l.00024.00097c.10408.23438.19497.47248.2806.71171l.00024.00097c.0842.22678.15106.45746.21203.68753 .0556.21119.0993.42457.13705.63748l.00024.00097c.0334.19521.0527.39075.0645.5853 .0102.17998.003.35905-.0162.53668l.00024.00097c-.0199.16779-.0594.32898-.10526.48553l-.00073.001c-.0457.15226-.10542.29672-.17379.43695-.0736.15148-.1697.28499-.26752.40986l.00024.00097c-.10526.13166-.22037.25204-.33571.36881s-.24351.23185-.3723.33822c-.14384.11899-.29592.22216-.44665.32158l-.00097.00024c-.1594.1037-.32529.19576-.49364.27984l-.00097.00024c-.18055.0905-.36983.14928-.55495.19898-.23356.0621-.46898.10601-.70432.14449-.20411.0332-.41017.0604-.61727.0771l-.00097.00024-.00097.00024c-.23049.0128-.46109.0161-.69084.0144l-.69044-.0147-.00097.00024-.66455-.0272-.00097.00024c-.21818-.009-.43679-.0125-.65667-.0139l-.00097.00024-.00024-.00097c-.20941-.005-.41911.009-.6298.0328l-.004.00097c-.19055.0299-.37755.0532-.54764.10555l-.00097.00025-.00097.00024c-.21154.0577-.42153.12317-.62966.19312-.192.066-.38128.1447-.57116.22588l-.00097.00024-.27571.12496-.0166.007-.019.004-.0923.009-.0596-.21106c.0933-.0438.18725-.0866.28254-.12821l.00073-.001c.19196-.0822.38716-.16213.58806-.23152 .21188-.0714.42665-.13815.64227-.19769l.00097-.00024c.24661-.0623.49947-.12616.76253-.15586 .21905-.0245.44-.0384.66321-.0335l.00097-.00024c.22067.002.44116.006.66313.0153l-.00024-.00097 .66635.0283-.00024-.00097c.22839.007.45639.0133.68433.0147s.45042-.002.67396-.0148l.003-.00072c.19918-.0166.39692-.0423.59501-.0746 .16969-.0279.33854-.0592.5038-.0976l.004-.00097c.17888-.0475.3521-.0999.50966-.17855s.32112-.16901.47243-.26694 .29447-.19643.42759-.30617c.1243-.10229.24383-.20899.35648-.32207s.22092-.22901.31879-.35087l.00024.00097c.0939-.11915.17845-.23984.24123-.36823s.121-.2645.16261-.40211c.0441-.14946.08-.29764.098-.44712 .0183-.16629.0244-.3324.0151-.49823-.0114-.18864-.0297-.37521-.061-.55871l-.00024-.00097c-.037-.20825-.0787-.41474-.13205-.61736-.0605-.2269-.12504-.45103-.20558-.66777l-.00024-.00097c-.0844-.23594-.17439-.46927-.2752-.69626l-.00024-.00097c-.1044-.22817-.21733-.45119-.34641-.66331-.13185-.21673-.269-.42741-.4212-.62641-.15599-.20489-.31914-.40183-.49741-.58305l-.00024-.00097c-.18612-.19036-.37557-.37643-.5711-.55407l-.00024-.00097c-.20521-.18485-.41356-.36427-.63185-.52828-.22546-.16985-.45496-.33382-.69119-.48455-.25131-.16295-.50148-.32627-.75477-.48249l-.77456-.46994c-.24841-.14937-.49608-.29933-.74621-.44188l.00024.00097c-.22418-.12721-.45045-.25047-.68131-.3588l-.00097.00024c-.16102-.078-.32651-.15335-.49073-.23674-.0696-.0353-.13069-.0663-.18812-.0815l-.34007-.091 .32996-.12165 .088-.0326 .0349-.0128z" fill="#8c5124"/>
<path d="m332.01351,498.27883c-1.88394,2.4727.29591,4.49889 1.77118,4.94987-2.3487,3.44999-3.62984,4.15041-3.50279,2.67098 .0211-.24622-1.12709,2.52472-1.30955,2.0693-.24293-.60635.43077-4.50881.14254-5.36756-.12009-.3578-1.29464,3.5483-1.65271,3.38403-1.07216-.49185 1.02442-5.31572 1.17573-5.70981 .24866-.6476-.42825.15338-.16983-.55097-.99719-.22342-2.98304,2.4918-3.22186,2.18794-.84586-1.0762 3.41891-6.23616 6.31093-7.6676 7.74818-3.83507 13.49213.87983 11.56677,3.4981-2.99062,4.06688-4.61119,9.1774-7.11152,3.21452-.47924-3.02011-1.36853-4.65459-3.99889-2.6788z" fill="#ececec" stroke="#dfdfdf" stroke-width=".37444"/>
<path d="m354.68666,510.05353 4.32057,4.69506c-7.93972-.77004-16.93616-2.23638-24.24736-5.34398l-.79887-4.4704c6.54217,2.76905 13.99445,5.46352 20.72566,5.11932z" filter="url(#filter4103)" opacity=".3786"/>
<path d="m354.51949,510.47145 4.32057,4.69506c-7.93972-.77004-17.68841-2.57071-24.99961-5.67831l-.0466-4.13607c6.54217,2.76905 13.99445,5.46352 20.72566,5.11932z" fill="#fff"/>
<path d="m363.62082,507.9727-2.13621,6.69232c4.55053-2.75588 8.61661-5.83 11.10168-9.94272l-.32133-4.32247c-2.55887,2.92978-4.94506,5.87194-8.64414,7.57287z" filter="url(#filter4103)" opacity=".3292"/>
<path d="m364.20591,508.22345-2.13621,6.69232c4.55053-2.75588 9.25404-6.02123 11.73911-10.13395l-.95876-4.13124c-2.55887,2.92978-4.94506,5.87194-8.64414,7.57287z" fill="#fff"/>
<path d="m364.31513,507.92414-2.44298,5.44312 6.60032.12858z" filter="url(#filter4103)" opacity=".2963"/>
<path d="m354.11799,510.18088-2.44298,5.44312 6.60032.12858z" filter="url(#filter4103)" opacity=".2963"/>
<path d="m354.61949,510.34804-2.44298,5.44312 6.60032.12858z" fill="#e6e6e6"/>
<path d="m364.00566,508.4601-2.44298,5.44312 6.60032.12858z" fill="#e6e6e6"/>
<path d="m-18.57143-553.35211c0,23.66934-9.5939,42.85714-21.42857,42.85714s-21.42857-19.1878-21.42857-42.85714 9.5939-42.85715 21.42857-42.85715 21.42857,19.1878 21.42857,42.85715z" fill="url(#radialGradient8397)" transform="matrix(-.03406,.00846,.00419,.01686,362.5011,527.06646)"/>
<path d="m-18.57143-553.35211c0,23.66934-9.5939,42.85714-21.42857,42.85714s-21.42857-19.1878-21.42857-42.85714 9.5939-42.85715 21.42857-42.85715 21.42857,19.1878 21.42857,42.85715z" fill="url(#radialGradient8397)" transform="matrix(-.03406,.00846,.00419,.01686,363.18277,530.0853)"/>
<g filter="url(#filter4103)" opacity=".4774" stroke="#000" transform="translate(43.02695,17.89923)">
<path d="m-18.57143-553.35211c0,23.66934-9.5939,42.85714-21.42857,42.85714s-21.42857-19.1878-21.42857-42.85714 9.5939-42.85715 21.42857-42.85715 21.42857,19.1878 21.42857,42.85715z" fill="none" stroke="#000" stroke-width="29.0719" transform="matrix(.01027,-.00464,.00229,.00506,311.17147,498.11208)"/>
<path d="m-18.57143-553.35211c0,23.66934-9.5939,42.85714-21.42857,42.85714s-21.42857-19.1878-21.42857-42.85714 9.5939-42.85715 21.42857-42.85715 21.42857,19.1878 21.42857,42.85715z" fill="none" stroke="#000" stroke-width="29.0719" transform="matrix(.01027,-.00464,.00229,.00506,311.81985,498.34798)"/>
<path d="m-18.57143-553.35211c0,23.66934-9.5939,42.85714-21.42857,42.85714s-21.42857-19.1878-21.42857-42.85714 9.5939-42.85715 21.42857-42.85715 21.42857,19.1878 21.42857,42.85715z" fill="none" stroke="#000" stroke-width="29.0719" transform="matrix(.01027,-.00464,.00229,.00506,312.43597,498.64158)"/>
<path d="m-18.57143-553.35211c0,23.66934-9.5939,42.85714-21.42857,42.85714s-21.42857-19.1878-21.42857-42.85714 9.5939-42.85715 21.42857-42.85715 21.42857,19.1878 21.42857,42.85715z" fill="none" stroke="#000" stroke-width="29.0719" transform="matrix(.01027,-.00464,.00229,.00506,313.03141,498.982)"/>
<path d="m-18.57143-553.35211c0,23.66934-9.5939,42.85714-21.42857,42.85714s-21.42857-19.1878-21.42857-42.85714 9.5939-42.85715 21.42857-42.85715 21.42857,19.1878 21.42857,42.85715z" fill="none" stroke="#000" stroke-width="29.0719" transform="matrix(.01027,-.00464,.00229,.00506,313.62732,499.36969)"/>
<path d="m-18.57143-553.35211c0,23.66934-9.5939,42.85714-21.42857,42.85714s-21.42857-19.1878-21.42857-42.85714 9.5939-42.85715 21.42857-42.85715 21.42857,19.1878 21.42857,42.85715z" fill="none" stroke="#000" stroke-width="29.0719" transform="matrix(.01027,-.00464,.00229,.00506,315.71057,501.28629)"/>
<path d="m-18.57143-553.35211c0,23.66934-9.5939,42.85714-21.42857,42.85714s-21.42857-19.1878-21.42857-42.85714 9.5939-42.85715 21.42857-42.85715 21.42857,19.1878 21.42857,42.85715z" fill="none" stroke="#000" stroke-width="29.0719" transform="matrix(.01027,-.00464,.00229,.00506,315.28032,500.7439)"/>
<path d="m-18.57143-553.35211c0,23.66934-9.5939,42.85714-21.42857,42.85714s-21.42857-19.1878-21.42857-42.85714 9.5939-42.85715 21.42857-42.85715 21.42857,19.1878 21.42857,42.85715z" fill="none" stroke="#000" stroke-width="29.0719" transform="matrix(.01027,-.00464,.00229,.00506,314.76072,500.25274)"/>
<path d="m-18.57143-553.35211c0,23.66934-9.5939,42.85714-21.42857,42.85714s-21.42857-19.1878-21.42857-42.85714 9.5939-42.85715 21.42857-42.85715 21.42857,19.1878 21.42857,42.85715z" fill="none" stroke="#000" stroke-width="29.0719" transform="matrix(.01027,-.00464,.00229,.00506,314.20425,499.80639)"/>
<path d="m-18.57143-553.35211c0,23.66934-9.5939,42.85714-21.42857,42.85714s-21.42857-19.1878-21.42857-42.85714 9.5939-42.85715 21.42857-42.85715 21.42857,19.1878 21.42857,42.85715z" fill="none" stroke="#000" stroke-width="29.0719" transform="matrix(.01075,.00338,-.00166,.0053,315.52465,507.35461)"/>
<path d="m-18.57143-553.35211c0,23.66934-9.5939,42.85714-21.42857,42.85714s-21.42857-19.1878-21.42857-42.85714 9.5939-42.85715 21.42857-42.85715 21.42857,19.1878 21.42857,42.85715z" fill="none" stroke="#000" stroke-width="29.0719" transform="matrix(.01075,.00338,-.00166,.0053,315.43749,506.70126)"/>
<path d="m-18.57143-553.35211c0,23.66934-9.5939,42.85714-21.42857,42.85714s-21.42857-19.1878-21.42857-42.85714 9.5939-42.85715 21.42857-42.85715 21.42857,19.1878 21.42857,42.85715z" fill="none" stroke="#000" stroke-width="29.0719" transform="matrix(.01075,.00338,-.00166,.0053,315.3669,506.03429)"/>
<path d="m-18.57143-553.35211c0,23.66934-9.5939,42.85714-21.42857,42.85714s-21.42857-19.1878-21.42857-42.85714 9.5939-42.85715 21.42857-42.85715 21.42857,19.1878 21.42857,42.85715z" fill="none" stroke="#000" stroke-width="29.0719" transform="matrix(.01075,.00338,-.00166,.0053,315.19782,505.38257)"/>
<path d="m-18.57143-553.35211c0,23.66934-9.5939,42.85714-21.42857,42.85714s-21.42857-19.1878-21.42857-42.85714 9.5939-42.85715 21.42857-42.85715 21.42857,19.1878 21.42857,42.85715z" fill="none" stroke="#000" stroke-width="29.0719" transform="matrix(.01075,.00338,-.00166,.0053,315.07872,504.7921)"/>
<path d="m-18.57143-553.35211c0,23.66934-9.5939,42.85714-21.42857,42.85714s-21.42857-19.1878-21.42857-42.85714 9.5939-42.85715 21.42857-42.85715 21.42857,19.1878 21.42857,42.85715z" fill="none" stroke="#000" stroke-width="29.0719" transform="matrix(.01075,.00338,-.00166,.0053,313.90544,502.33632)"/>
<path d="m-18.57143-553.35211c0,23.66934-9.5939,42.85714-21.42857,42.85714s-21.42857-19.1878-21.42857-42.85714 9.5939-42.85715 21.42857-42.85715 21.42857,19.1878 21.42857,42.85715z" fill="none" stroke="#000" stroke-width="29.0719" transform="matrix(.01075,.00338,-.00166,.0053,314.29192,502.89686)"/>
<path d="m-18.57143-553.35211c0,23.66934-9.5939,42.85714-21.42857,42.85714s-21.42857-19.1878-21.42857-42.85714 9.5939-42.85715 21.42857-42.85715 21.42857,19.1878 21.42857,42.85715z" fill="none" stroke="#000" stroke-width="29.0719" transform="matrix(.01075,.00338,-.00166,.0053,314.58716,503.52428)"/>
<path d="m-18.57143-553.35211c0,23.66934-9.5939,42.85714-21.42857,42.85714s-21.42857-19.1878-21.42857-42.85714 9.5939-42.85715 21.42857-42.85715 21.42857,19.1878 21.42857,42.85715z" fill="none" stroke="#000" stroke-width="29.0719" transform="matrix(.01075,.00338,-.00166,.0053,314.84431,504.17669)"/>
<path d="m-18.57143-553.35211c0,23.66934-9.5939,42.85714-21.42857,42.85714s-21.42857-19.1878-21.42857-42.85714 9.5939-42.85715 21.42857-42.85715 21.42857,19.1878 21.42857,42.85715z" fill="none" stroke="#000" stroke-width="29.0719" transform="matrix(.00815,.00778,-.00383,.00402,314.32306,507.47121)"/>
<path d="m-18.57143-553.35211c0,23.66934-9.5939,42.85714-21.42857,42.85714s-21.42857-19.1878-21.42857-42.85714 9.5939-42.85715 21.42857-42.85715 21.42857,19.1878 21.42857,42.85715z" fill="none" stroke="#000" stroke-width="29.0719" transform="matrix(.00815,.00778,-.00383,.00402,314.30983,508.18637)"/>
</g>
<path d="m-18.57143-553.35211c0,23.66934-9.5939,42.85714-21.42857,42.85714s-21.42857-19.1878-21.42857-42.85714 9.5939-42.85715 21.42857-42.85715 21.42857,19.1878 21.42857,42.85715z" fill="none" stroke="#a46800" stroke-width="29.0719" transform="matrix(.01027,-.00464,.00229,.00506,354.43041,515.91189)"/>
<path d="m-18.57143-553.35211c0,23.66934-9.5939,42.85714-21.42857,42.85714s-21.42857-19.1878-21.42857-42.85714 9.5939-42.85715 21.42857-42.85715 21.42857,19.1878 21.42857,42.85715z" fill="none" stroke="#a46800" stroke-width="29.0719" transform="matrix(.01027,-.00464,.00229,.00506,355.07879,516.14779)"/>
<path d="m-18.57143-553.35211c0,23.66934-9.5939,42.85714-21.42857,42.85714s-21.42857-19.1878-21.42857-42.85714 9.5939-42.85715 21.42857-42.85715 21.42857,19.1878 21.42857,42.85715z" fill="none" stroke="#a46800" stroke-width="29.0719" transform="matrix(.01027,-.00464,.00229,.00506,355.69491,516.44139)"/>
<path d="m-18.57143-553.35211c0,23.66934-9.5939,42.85714-21.42857,42.85714s-21.42857-19.1878-21.42857-42.85714 9.5939-42.85715 21.42857-42.85715 21.42857,19.1878 21.42857,42.85715z" fill="none" stroke="#a46800" stroke-width="29.0719" transform="matrix(.01027,-.00464,.00229,.00506,356.29035,516.78181)"/>
<path d="m-18.57143-553.35211c0,23.66934-9.5939,42.85714-21.42857,42.85714s-21.42857-19.1878-21.42857-42.85714 9.5939-42.85715 21.42857-42.85715 21.42857,19.1878 21.42857,42.85715z" fill="none" stroke="#a46800" stroke-width="29.0719" transform="matrix(.01027,-.00464,.00229,.00506,356.88626,517.1695)"/>
<path d="m-18.57143-553.35211c0,23.66934-9.5939,42.85714-21.42857,42.85714s-21.42857-19.1878-21.42857-42.85714 9.5939-42.85715 21.42857-42.85715 21.42857,19.1878 21.42857,42.85715z" fill="none" stroke="#a46800" stroke-width="29.0719" transform="matrix(.01027,-.00464,.00229,.00506,358.96951,519.0861)"/>
<path d="m-18.57143-553.35211c0,23.66934-9.5939,42.85714-21.42857,42.85714s-21.42857-19.1878-21.42857-42.85714 9.5939-42.85715 21.42857-42.85715 21.42857,19.1878 21.42857,42.85715z" fill="none" stroke="#a46800" stroke-width="29.0719" transform="matrix(.01027,-.00464,.00229,.00506,358.53926,518.54371)"/>
<path d="m-18.57143-553.35211c0,23.66934-9.5939,42.85714-21.42857,42.85714s-21.42857-19.1878-21.42857-42.85714 9.5939-42.85715 21.42857-42.85715 21.42857,19.1878 21.42857,42.85715z" fill="none" stroke="#a46800" stroke-width="29.0719" transform="matrix(.01027,-.00464,.00229,.00506,358.01966,518.05255)"/>
<path d="m-18.57143-553.35211c0,23.66934-9.5939,42.85714-21.42857,42.85714s-21.42857-19.1878-21.42857-42.85714 9.5939-42.85715 21.42857-42.85715 21.42857,19.1878 21.42857,42.85715z" fill="none" stroke="#a46800" stroke-width="29.0719" transform="matrix(.01027,-.00464,.00229,.00506,357.46319,517.6062)"/>
<path d="m-18.57143-553.35211c0,23.66934-9.5939,42.85714-21.42857,42.85714s-21.42857-19.1878-21.42857-42.85714 9.5939-42.85715 21.42857-42.85715 21.42857,19.1878 21.42857,42.85715z" fill="none" stroke="#a46800" stroke-width="29.0719" transform="matrix(.01075,.00338,-.00166,.0053,358.78359,525.15442)"/>
<path d="m-18.57143-553.35211c0,23.66934-9.5939,42.85714-21.42857,42.85714s-21.42857-19.1878-21.42857-42.85714 9.5939-42.85715 21.42857-42.85715 21.42857,19.1878 21.42857,42.85715z" fill="none" stroke="#a46800" stroke-width="29.0719" transform="matrix(.01075,.00338,-.00166,.0053,358.69643,524.50107)"/>
<path d="m-18.57143-553.35211c0,23.66934-9.5939,42.85714-21.42857,42.85714s-21.42857-19.1878-21.42857-42.85714 9.5939-42.85715 21.42857-42.85715 21.42857,19.1878 21.42857,42.85715z" fill="none" stroke="#a46800" stroke-width="29.0719" transform="matrix(.01075,.00338,-.00166,.0053,358.62584,523.8341)"/>
<path d="m-18.57143-553.35211c0,23.66934-9.5939,42.85714-21.42857,42.85714s-21.42857-19.1878-21.42857-42.85714 9.5939-42.85715 21.42857-42.85715 21.42857,19.1878 21.42857,42.85715z" fill="none" stroke="#a46800" stroke-width="29.0719" transform="matrix(.01075,.00338,-.00166,.0053,358.45676,523.18238)"/>
<path d="m-18.57143-553.35211c0,23.66934-9.5939,42.85714-21.42857,42.85714s-21.42857-19.1878-21.42857-42.85714 9.5939-42.85715 21.42857-42.85715 21.42857,19.1878 21.42857,42.85715z" fill="none" stroke="#a46800" stroke-width="29.0719" transform="matrix(.01075,.00338,-.00166,.0053,358.33766,522.59191)"/>
<path d="m-18.57143-553.35211c0,23.66934-9.5939,42.85714-21.42857,42.85714s-21.42857-19.1878-21.42857-42.85714 9.5939-42.85715 21.42857-42.85715 21.42857,19.1878 21.42857,42.85715z" fill="none" stroke="#a46800" stroke-width="29.0719" transform="matrix(.01075,.00338,-.00166,.0053,357.16438,520.13613)"/>
<path d="m-18.57143-553.35211c0,23.66934-9.5939,42.85714-21.42857,42.85714s-21.42857-19.1878-21.42857-42.85714 9.5939-42.85715 21.42857-42.85715 21.42857,19.1878 21.42857,42.85715z" fill="none" stroke="#a46800" stroke-width="29.0719" transform="matrix(.01075,.00338,-.00166,.0053,357.55086,520.69667)"/>
<path d="m-18.57143-553.35211c0,23.66934-9.5939,42.85714-21.42857,42.85714s-21.42857-19.1878-21.42857-42.85714 9.5939-42.85715 21.42857-42.85715 21.42857,19.1878 21.42857,42.85715z" fill="none" stroke="#a46800" stroke-width="29.0719" transform="matrix(.01075,.00338,-.00166,.0053,357.8461,521.32409)"/>
<path d="m-18.57143-553.35211c0,23.66934-9.5939,42.85714-21.42857,42.85714s-21.42857-19.1878-21.42857-42.85714 9.5939-42.85715 21.42857-42.85715 21.42857,19.1878 21.42857,42.85715z" fill="none" stroke="#a46800" stroke-width="29.0719" transform="matrix(.01075,.00338,-.00166,.0053,358.10325,521.9765)"/>
<path d="m-18.57143-553.35211c0,23.66934-9.5939,42.85714-21.42857,42.85714s-21.42857-19.1878-21.42857-42.85714 9.5939-42.85715 21.42857-42.85715 21.42857,19.1878 21.42857,42.85715z" fill="none" stroke="#a46800" stroke-width="29.0719" transform="matrix(.00815,.00778,-.00383,.00402,357.582,525.27102)"/>
<path d="m-18.57143-553.35211c0,23.66934-9.5939,42.85714-21.42857,42.85714s-21.42857-19.1878-21.42857-42.85714 9.5939-42.85715 21.42857-42.85715 21.42857,19.1878 21.42857,42.85715z" fill="none" stroke="#a46800" stroke-width="29.0719" transform="matrix(.00815,.00778,-.00383,.00402,357.56877,525.98618)"/>
<g transform="translate(-.23931,-.19943)">
<g filter="url(#filter4103)" opacity=".4156" stroke="#000" transform="translate(.19558,-.0197)">
<path d="m-18.57143-553.35211c0,23.66934-9.5939,42.85714-21.42857,42.85714s-21.42857-19.1878-21.42857-42.85714 9.5939-42.85715 21.42857-42.85715 21.42857,19.1878 21.42857,42.85715z" fill="none" stroke="#000" stroke-width="29.0719" transform="matrix(-.01065,.00367,.00181,.00525,346.32816,501.16184)"/>
<path d="m-18.57143-553.35211c0,23.66934-9.5939,42.85714-21.42857,42.85714s-21.42857-19.1878-21.42857-42.85714 9.5939-42.85715 21.42857-42.85715 21.42857,19.1878 21.42857,42.85715z" fill="none" stroke="#000" stroke-width="29.0719" transform="matrix(-.01065,.00367,.00181,.00525,346.01802,501.77816)"/>
<path d="m-18.57143-553.35211c0,23.66934-9.5939,42.85714-21.42857,42.85714s-21.42857-19.1878-21.42857-42.85714 9.5939-42.85715 21.42857-42.85715 21.42857,19.1878 21.42857,42.85715z" fill="none" stroke="#000" stroke-width="29.0719" transform="matrix(-.01065,.00367,.00181,.00525,345.77093,502.41436)"/>
<path d="m-18.57143-553.35211c0,23.66934-9.5939,42.85714-21.42857,42.85714s-21.42857-19.1878-21.42857-42.85714 9.5939-42.85715 21.42857-42.85715 21.42857,19.1878 21.42857,42.85715z" fill="none" stroke="#000" stroke-width="29.0719" transform="matrix(-.01065,.00367,.00181,.00525,345.57099,503.07045)"/>
<path d="m-18.57143-553.35211c0,23.66934-9.5939,42.85714-21.42857,42.85714s-21.42857-19.1878-21.42857-42.85714 9.5939-42.85715 21.42857-42.85715 21.42857,19.1878 21.42857,42.85715z" fill="none" stroke="#000" stroke-width="29.0719" transform="matrix(-.01065,.00367,.00181,.00525,345.40313,503.76128)"/>
<path d="m-18.57143-553.35211c0,23.66934-9.5939,42.85714-21.42857,42.85714s-21.42857-19.1878-21.42857-42.85714 9.5939-42.85715 21.42857-42.85715 21.42857,19.1878 21.42857,42.85715z" fill="none" stroke="#000" stroke-width="29.0719" transform="matrix(-.01065,.00367,.00181,.00525,345.20119,506.58484)"/>
<path d="m-18.57143-553.35211c0,23.66934-9.5939,42.85714-21.42857,42.85714s-21.42857-19.1878-21.42857-42.85714 9.5939-42.85715 21.42857-42.85715 21.42857,19.1878 21.42857,42.85715z" fill="none" stroke="#000" stroke-width="29.0719" transform="matrix(-.01065,.00367,.00181,.00525,345.14239,505.89502)"/>
<path d="m-18.57143-553.35211c0,23.66934-9.5939,42.85714-21.42857,42.85714s-21.42857-19.1878-21.42857-42.85714 9.5939-42.85715 21.42857-42.85715 21.42857,19.1878 21.42857,42.85715z" fill="none" stroke="#000" stroke-width="29.0719" transform="matrix(-.01065,.00367,.00181,.00525,345.18376,505.18122)"/>
<path d="m-18.57143-553.35211c0,23.66934-9.5939,42.85714-21.42857,42.85714s-21.42857-19.1878-21.42857-42.85714 9.5939-42.85715 21.42857-42.85715 21.42857,19.1878 21.42857,42.85715z" fill="none" stroke="#000" stroke-width="29.0719" transform="matrix(-.01065,.00367,.00181,.00525,345.28269,504.47475)"/>
<path d="m-18.57143-553.35211c0,23.66934-9.5939,42.85714-21.42857,42.85714s-21.42857-19.1878-21.42857-42.85714 9.5939-42.85715 21.42857-42.85715 21.42857,19.1878 21.42857,42.85715z" fill="none" stroke="#000" stroke-width="29.0719" transform="matrix(-.00551,.00983,.00485,.00272,349.49789,510.87407)"/>
<path d="m-18.57143-553.35211c0,23.66934-9.5939,42.85714-21.42857,42.85714s-21.42857-19.1878-21.42857-42.85714 9.5939-42.85715 21.42857-42.85715 21.42857,19.1878 21.42857,42.85715z" fill="none" stroke="#000" stroke-width="29.0719" transform="matrix(-.00551,.00983,.00485,.00272,349.11329,510.33876)"/>
<path d="m-18.57143-553.35211c0,23.66934-9.5939,42.85714-21.42857,42.85714s-21.42857-19.1878-21.42857-42.85714 9.5939-42.85715 21.42857-42.85715 21.42857,19.1878 21.42857,42.85715z" fill="none" stroke="#000" stroke-width="29.0719" transform="matrix(-.00551,.00983,.00485,.00272,348.70729,509.80491)"/>
<path d="m-18.57143-553.35211c0,23.66934-9.5939,42.85714-21.42857,42.85714s-21.42857-19.1878-21.42857-42.85714 9.5939-42.85715 21.42857-42.85715 21.42857,19.1878 21.42857,42.85715z" fill="none" stroke="#000" stroke-width="29.0719" transform="matrix(-.00551,.00983,.00485,.00272,348.38343,509.21462)"/>
<path d="m-18.57143-553.35211c0,23.66934-9.5939,42.85714-21.42857,42.85714s-21.42857-19.1878-21.42857-42.85714 9.5939-42.85715 21.42857-42.85715 21.42857,19.1878 21.42857,42.85715z" fill="none" stroke="#000" stroke-width="29.0719" transform="matrix(-.00551,.00983,.00485,.00272,348.0652,508.70319)"/>
<path d="m-18.57143-553.35211c0,23.66934-9.5939,42.85714-21.42857,42.85714s-21.42857-19.1878-21.42857-42.85714 9.5939-42.85715 21.42857-42.85715 21.42857,19.1878 21.42857,42.85715z" fill="none" stroke="#000" stroke-width="29.0719" transform="matrix(-.00551,.00983,.00485,.00272,347.23508,506.11121)"/>
<path d="m-18.57143-553.35211c0,23.66934-9.5939,42.85714-21.42857,42.85714s-21.42857-19.1878-21.42857-42.85714 9.5939-42.85715 21.42857-42.85715 21.42857,19.1878 21.42857,42.85715z" fill="none" stroke="#000" stroke-width="29.0719" transform="matrix(-.00551,.00983,.00485,.00272,347.33819,506.78422)"/>
<path d="m-18.57143-553.35211c0,23.66934-9.5939,42.85714-21.42857,42.85714s-21.42857-19.1878-21.42857-42.85714 9.5939-42.85715 21.42857-42.85715 21.42857,19.1878 21.42857,42.85715z" fill="none" stroke="#000" stroke-width="29.0719" transform="matrix(-.00551,.00983,.00485,.00272,347.55356,507.44334)"/>
<path d="m-18.57143-553.35211c0,23.66934-9.5939,42.85714-21.42857,42.85714s-21.42857-19.1878-21.42857-42.85714 9.5939-42.85715 21.42857-42.85715 21.42857,19.1878 21.42857,42.85715z" fill="none" stroke="#000" stroke-width="29.0719" transform="matrix(-.00551,.00983,.00485,.00272,347.81379,508.09452)"/>
<path d="m-18.57143-553.35211c0,23.66934-9.5939,42.85714-21.42857,42.85714s-21.42857-19.1878-21.42857-42.85714 9.5939-42.85715 21.42857-42.85715 21.42857,19.1878 21.42857,42.85715z" fill="none" stroke="#000" stroke-width="29.0719" transform="matrix(-6.0084308e-4,.01125,.00555,2.9619396e-4,354.66919,513.51462)"/>
<path d="m-18.57143-553.35211c0,23.66934-9.5939,42.85714-21.42857,42.85714s-21.42857-19.1878-21.42857-42.85714 9.5939-42.85715 21.42857-42.85715 21.42857,19.1878 21.42857,42.85715z" fill="none" stroke="#000" stroke-width="29.0719" transform="matrix(-6.0084308e-4,.01125,.00555,2.9619396e-4,354.09818,513.18455)"/>
<path d="m-18.57143-553.35211c0,23.66934-9.5939,42.85714-21.42857,42.85714s-21.42857-19.1878-21.42857-42.85714 9.5939-42.85715 21.42857-42.85715 21.42857,19.1878 21.42857,42.85715z" fill="none" stroke="#000" stroke-width="29.0719" transform="matrix(-6.0084308e-4,.01125,.00555,2.9619396e-4,353.51434,512.78757)"/>
<path d="m-18.57143-553.35211c0,23.66934-9.5939,42.85714-21.42857,42.85714s-21.42857-19.1878-21.42857-42.85714 9.5939-42.85715 21.42857-42.85715 21.42857,19.1878 21.42857,42.85715z" fill="none" stroke="#000" stroke-width="29.0719" transform="matrix(-6.0084308e-4,.01125,.00555,2.9619396e-4,352.96303,512.36859)"/>
<path d="m-18.57143-553.35211c0,23.66934-9.5939,42.85714-21.42857,42.85714s-21.42857-19.1878-21.42857-42.85714 9.5939-42.85715 21.42857-42.85715 21.42857,19.1878 21.42857,42.85715z" fill="none" stroke="#000" stroke-width="29.0719" transform="matrix(-6.0084308e-4,.01125,.00555,2.9619396e-4,352.45162,511.98543)"/>
<path d="m-18.57143-553.35211c0,23.66934-9.5939,42.85714-21.42857,42.85714s-21.42857-19.1878-21.42857-42.85714 9.5939-42.85715 21.42857-42.85715 21.42857,19.1878 21.42857,42.85715z" fill="none" stroke="#000" stroke-width="29.0719" transform="matrix(-6.0084308e-4,.01125,.00555,2.9619396e-4,350.4524,510.13493)"/>
<path d="m-18.57143-553.35211c0,23.66934-9.5939,42.85714-21.42857,42.85714s-21.42857-19.1878-21.42857-42.85714 9.5939-42.85715 21.42857-42.85715 21.42857,19.1878 21.42857,42.85715z" fill="none" stroke="#000" stroke-width="29.0719" transform="matrix(-6.0084308e-4,.01125,.00555,2.9619396e-4,350.95246,510.64637)"/>
<path d="m-18.57143-553.35211c0,23.66934-9.5939,42.85714-21.42857,42.85714s-21.42857-19.1878-21.42857-42.85714 9.5939-42.85715 21.42857-42.85715 21.42857,19.1878 21.42857,42.85715z" fill="none" stroke="#000" stroke-width="29.0719" transform="matrix(-6.0084308e-4,.01125,.00555,2.9619396e-4,351.44041,511.12061)"/>
<path d="m-18.57143-553.35211c0,23.66934-9.5939,42.85714-21.42857,42.85714s-21.42857-19.1878-21.42857-42.85714 9.5939-42.85715 21.42857-42.85715 21.42857,19.1878 21.42857,42.85715z" fill="none" stroke="#000" stroke-width="29.0719" transform="matrix(-6.0084308e-4,.01125,.00555,2.9619396e-4,351.89896,511.5791)"/>
<path d="m-18.57143-553.35211c0,23.66934-9.5939,42.85714-21.42857,42.85714s-21.42857-19.1878-21.42857-42.85714 9.5939-42.85715 21.42857-42.85715 21.42857,19.1878 21.42857,42.85715z" fill="none" stroke="#000" stroke-width="29.0719" transform="matrix(-6.0084308e-4,.01125,.00555,2.9619396e-4,355.28576,513.85536)"/>
</g>
<path d="m-18.57143-553.35211c0,23.66934-9.5939,42.85714-21.42857,42.85714s-21.42857-19.1878-21.42857-42.85714 9.5939-42.85715 21.42857-42.85715 21.42857,19.1878 21.42857,42.85715z" fill="none" stroke="#a46800" stroke-width="29.0719" transform="matrix(-.01065,.00367,.00181,.00525,346.32816,501.16184)"/>
<path d="m-18.57143-553.35211c0,23.66934-9.5939,42.85714-21.42857,42.85714s-21.42857-19.1878-21.42857-42.85714 9.5939-42.85715 21.42857-42.85715 21.42857,19.1878 21.42857,42.85715z" fill="none" stroke="#a46800" stroke-width="29.0719" transform="matrix(-.01065,.00367,.00181,.00525,346.01802,501.77816)"/>
<path d="m-18.57143-553.35211c0,23.66934-9.5939,42.85714-21.42857,42.85714s-21.42857-19.1878-21.42857-42.85714 9.5939-42.85715 21.42857-42.85715 21.42857,19.1878 21.42857,42.85715z" fill="none" stroke="#a46800" stroke-width="29.0719" transform="matrix(-.01065,.00367,.00181,.00525,345.77093,502.41436)"/>
<path d="m-18.57143-553.35211c0,23.66934-9.5939,42.85714-21.42857,42.85714s-21.42857-19.1878-21.42857-42.85714 9.5939-42.85715 21.42857-42.85715 21.42857,19.1878 21.42857,42.85715z" fill="none" stroke="#a46800" stroke-width="29.0719" transform="matrix(-.01065,.00367,.00181,.00525,345.57099,503.07045)"/>
<path d="m-18.57143-553.35211c0,23.66934-9.5939,42.85714-21.42857,42.85714s-21.42857-19.1878-21.42857-42.85714 9.5939-42.85715 21.42857-42.85715 21.42857,19.1878 21.42857,42.85715z" fill="none" stroke="#a46800" stroke-width="29.0719" transform="matrix(-.01065,.00367,.00181,.00525,345.40313,503.76128)"/>
<path d="m-18.57143-553.35211c0,23.66934-9.5939,42.85714-21.42857,42.85714s-21.42857-19.1878-21.42857-42.85714 9.5939-42.85715 21.42857-42.85715 21.42857,19.1878 21.42857,42.85715z" fill="none" stroke="#a46800" stroke-width="29.0719" transform="matrix(-.01065,.00367,.00181,.00525,345.20119,506.58484)"/>
<path d="m-18.57143-553.35211c0,23.66934-9.5939,42.85714-21.42857,42.85714s-21.42857-19.1878-21.42857-42.85714 9.5939-42.85715 21.42857-42.85715 21.42857,19.1878 21.42857,42.85715z" fill="none" stroke="#a46800" stroke-width="29.0719" transform="matrix(-.01065,.00367,.00181,.00525,345.14239,505.89502)"/>
<path d="m-18.57143-553.35211c0,23.66934-9.5939,42.85714-21.42857,42.85714s-21.42857-19.1878-21.42857-42.85714 9.5939-42.85715 21.42857-42.85715 21.42857,19.1878 21.42857,42.85715z" fill="none" stroke="#a46800" stroke-width="29.0719" transform="matrix(-.01065,.00367,.00181,.00525,345.18376,505.18122)"/>
<path d="m-18.57143-553.35211c0,23.66934-9.5939,42.85714-21.42857,42.85714s-21.42857-19.1878-21.42857-42.85714 9.5939-42.85715 21.42857-42.85715 21.42857,19.1878 21.42857,42.85715z" fill="none" stroke="#a46800" stroke-width="29.0719" transform="matrix(-.01065,.00367,.00181,.00525,345.28269,504.47475)"/>
<path d="m-18.57143-553.35211c0,23.66934-9.5939,42.85714-21.42857,42.85714s-21.42857-19.1878-21.42857-42.85714 9.5939-42.85715 21.42857-42.85715 21.42857,19.1878 21.42857,42.85715z" fill="none" stroke="#a46800" stroke-width="29.0719" transform="matrix(-.00551,.00983,.00485,.00272,349.49789,510.87407)"/>
<path d="m-18.57143-553.35211c0,23.66934-9.5939,42.85714-21.42857,42.85714s-21.42857-19.1878-21.42857-42.85714 9.5939-42.85715 21.42857-42.85715 21.42857,19.1878 21.42857,42.85715z" fill="none" stroke="#a46800" stroke-width="29.0719" transform="matrix(-.00551,.00983,.00485,.00272,349.11329,510.33876)"/>
<path d="m-18.57143-553.35211c0,23.66934-9.5939,42.85714-21.42857,42.85714s-21.42857-19.1878-21.42857-42.85714 9.5939-42.85715 21.42857-42.85715 21.42857,19.1878 21.42857,42.85715z" fill="none" stroke="#a46800" stroke-width="29.0719" transform="matrix(-.00551,.00983,.00485,.00272,348.70729,509.80491)"/>
<path d="m-18.57143-553.35211c0,23.66934-9.5939,42.85714-21.42857,42.85714s-21.42857-19.1878-21.42857-42.85714 9.5939-42.85715 21.42857-42.85715 21.42857,19.1878 21.42857,42.85715z" fill="none" stroke="#a46800" stroke-width="29.0719" transform="matrix(-.00551,.00983,.00485,.00272,348.38343,509.21462)"/>
<path d="m-18.57143-553.35211c0,23.66934-9.5939,42.85714-21.42857,42.85714s-21.42857-19.1878-21.42857-42.85714 9.5939-42.85715 21.42857-42.85715 21.42857,19.1878 21.42857,42.85715z" fill="none" stroke="#a46800" stroke-width="29.0719" transform="matrix(-.00551,.00983,.00485,.00272,348.0652,508.70319)"/>
<path d="m-18.57143-553.35211c0,23.66934-9.5939,42.85714-21.42857,42.85714s-21.42857-19.1878-21.42857-42.85714 9.5939-42.85715 21.42857-42.85715 21.42857,19.1878 21.42857,42.85715z" fill="none" stroke="#a46800" stroke-width="29.0719" transform="matrix(-.00551,.00983,.00485,.00272,347.23508,506.11121)"/>
<path d="m-18.57143-553.35211c0,23.66934-9.5939,42.85714-21.42857,42.85714s-21.42857-19.1878-21.42857-42.85714 9.5939-42.85715 21.42857-42.85715 21.42857,19.1878 21.42857,42.85715z" fill="none" stroke="#a46800" stroke-width="29.0719" transform="matrix(-.00551,.00983,.00485,.00272,347.33819,506.78422)"/>
<path d="m-18.57143-553.35211c0,23.66934-9.5939,42.85714-21.42857,42.85714s-21.42857-19.1878-21.42857-42.85714 9.5939-42.85715 21.42857-42.85715 21.42857,19.1878 21.42857,42.85715z" fill="none" stroke="#a46800" stroke-width="29.0719" transform="matrix(-.00551,.00983,.00485,.00272,347.55356,507.44334)"/>
<path d="m-18.57143-553.35211c0,23.66934-9.5939,42.85714-21.42857,42.85714s-21.42857-19.1878-21.42857-42.85714 9.5939-42.85715 21.42857-42.85715 21.42857,19.1878 21.42857,42.85715z" fill="none" stroke="#a46800" stroke-width="29.0719" transform="matrix(-.00551,.00983,.00485,.00272,347.81379,508.09452)"/>
<path d="m-18.57143-553.35211c0,23.66934-9.5939,42.85714-21.42857,42.85714s-21.42857-19.1878-21.42857-42.85714 9.5939-42.85715 21.42857-42.85715 21.42857,19.1878 21.42857,42.85715z" fill="none" stroke="#a46800" stroke-width="29.0719" transform="matrix(-6.0084308e-4,.01125,.00555,2.9619396e-4,354.66919,513.51462)"/>
<path d="m-18.57143-553.35211c0,23.66934-9.5939,42.85714-21.42857,42.85714s-21.42857-19.1878-21.42857-42.85714 9.5939-42.85715 21.42857-42.85715 21.42857,19.1878 21.42857,42.85715z" fill="none" stroke="#a46800" stroke-width="29.0719" transform="matrix(-6.0084308e-4,.01125,.00555,2.9619396e-4,354.09818,513.18455)"/>
<path d="m-18.57143-553.35211c0,23.66934-9.5939,42.85714-21.42857,42.85714s-21.42857-19.1878-21.42857-42.85714 9.5939-42.85715 21.42857-42.85715 21.42857,19.1878 21.42857,42.85715z" fill="none" stroke="#a46800" stroke-width="29.0719" transform="matrix(-6.0084308e-4,.01125,.00555,2.9619396e-4,353.51434,512.78757)"/>
<path d="m-18.57143-553.35211c0,23.66934-9.5939,42.85714-21.42857,42.85714s-21.42857-19.1878-21.42857-42.85714 9.5939-42.85715 21.42857-42.85715 21.42857,19.1878 21.42857,42.85715z" fill="none" stroke="#a46800" stroke-width="29.0719" transform="matrix(-6.0084308e-4,.01125,.00555,2.9619396e-4,352.96303,512.36859)"/>
<path d="m-18.57143-553.35211c0,23.66934-9.5939,42.85714-21.42857,42.85714s-21.42857-19.1878-21.42857-42.85714 9.5939-42.85715 21.42857-42.85715 21.42857,19.1878 21.42857,42.85715z" fill="none" stroke="#a46800" stroke-width="29.0719" transform="matrix(-6.0084308e-4,.01125,.00555,2.9619396e-4,352.45162,511.98543)"/>
<path d="m-18.57143-553.35211c0,23.66934-9.5939,42.85714-21.42857,42.85714s-21.42857-19.1878-21.42857-42.85714 9.5939-42.85715 21.42857-42.85715 21.42857,19.1878 21.42857,42.85715z" fill="none" stroke="#a46800" stroke-width="29.0719" transform="matrix(-6.0084308e-4,.01125,.00555,2.9619396e-4,350.4524,510.13493)"/>
<path d="m-18.57143-553.35211c0,23.66934-9.5939,42.85714-21.42857,42.85714s-21.42857-19.1878-21.42857-42.85714 9.5939-42.85715 21.42857-42.85715 21.42857,19.1878 21.42857,42.85715z" fill="none" stroke="#a46800" stroke-width="29.0719" transform="matrix(-6.0084308e-4,.01125,.00555,2.9619396e-4,350.95246,510.64637)"/>
<path d="m-18.57143-553.35211c0,23.66934-9.5939,42.85714-21.42857,42.85714s-21.42857-19.1878-21.42857-42.85714 9.5939-42.85715 21.42857-42.85715 21.42857,19.1878 21.42857,42.85715z" fill="none" stroke="#a46800" stroke-width="29.0719" transform="matrix(-6.0084308e-4,.01125,.00555,2.9619396e-4,351.44041,511.12061)"/>
<path d="m-18.57143-553.35211c0,23.66934-9.5939,42.85714-21.42857,42.85714s-21.42857-19.1878-21.42857-42.85714 9.5939-42.85715 21.42857-42.85715 21.42857,19.1878 21.42857,42.85715z" fill="none" stroke="#a46800" stroke-width="29.0719" transform="matrix(-6.0084308e-4,.01125,.00555,2.9619396e-4,351.89896,511.5791)"/>
<path d="m-18.57143-553.35211c0,23.66934-9.5939,42.85714-21.42857,42.85714s-21.42857-19.1878-21.42857-42.85714 9.5939-42.85715 21.42857-42.85715 21.42857,19.1878 21.42857,42.85715z" fill="none" stroke="#a46800" stroke-width="29.0719" transform="matrix(-6.0084308e-4,.01125,.00555,2.9619396e-4,355.28576,513.85536)"/>
</g>
<path d="m-18.57143-553.35211c0,23.66934-9.5939,42.85714-21.42857,42.85714s-21.42857-19.1878-21.42857-42.85714 9.5939-42.85715 21.42857-42.85715 21.42857,19.1878 21.42857,42.85715z" fill="none" filter="url(#filter4508)" opacity=".5556" stroke="#000" stroke-width="3.77409" transform="matrix(-.22077,.07599,.03746,.10883,361.86475,558.16281)"/>
<path d="m-18.57143-553.35211c0,23.66934-9.5939,42.85714-21.42857,42.85714s-21.42857-19.1878-21.42857-42.85714 9.5939-42.85715 21.42857-42.85715 21.42857,19.1878 21.42857,42.85715z" fill="url(#radialGradient8401)" stroke="#a46800" stroke-width="3.77409" transform="matrix(-.22077,.07599,.03746,.10883,361.5894,557.70388)"/>
<g transform="matrix(1.42915,-.56362,.56362,1.42915,-372.26383,-12.6128)">
<path d="m318.40473,487.36745 1.14392-.80712c-.51233-.66447-1.25437-1.10154-2.05594-1.23385s-1.61807.0553-2.27053.49351c-.58803.40936-.99308.95198-1.31205,1.48964-.32424.53209-.58569,1.06004-.92699,1.50762-.18955.2475-.39686.47344-.64143.63735v1e-005c-.24338.16234-.5245.27527-.80885.27945-.28095.005-.57861-.0918-.77387-.29555-.0988-.10125-.17553-.22794-.21368-.36576s-.04-.28884.002-.42793 .13454-.2792.2581-.37513 .28109-.1547.44303-.16144 .32958.0382.47017.12968 .25451.22953.31812.39083c-.0467-.16698-.14739-.32147-.28665-.43401s-.3159-.182-.50025-.19336-.3738.0358-.53544.13635-.29218.25292-.36784.43376c-.0723.17409-.0928.36889-.0605.55729s.11401.36669.23374.51725c.2416.29964.61273.4786.99784.5072 .38203.0283.76294-.0705 1.09195-.25026s.60935-.42026.85069-.68177c.43524-.46975.77123-.99396 1.12099-1.45697s.72532-.87612 1.16171-1.09519c.46327-.24627 1.02826-.30393 1.50808-.16913s.91133.4625 1.15361.86753z" fill-rule="evenodd"/>
<path d="m319.53911,486.56165 1.14392.80712c.24228-.40503.67314-.73589 1.15361-.86753s1.04481-.0771 1.50808.16913c.43639.21907.80672.6378 1.16171,1.09519s.68575.98722 1.12099,1.45697c.24134.26151.52278.50359.85069.68177s.70992.27853 1.09195.25026c.38511-.0286.75624-.20756.99784-.5072 .11973-.15056.20143-.32918.23374-.51725s.0118-.3832-.0605-.55729c-.0757-.18084-.20631-.33304-.36784-.43376s-.35108-.14758-.53544-.13635-.36096.0809-.50025.19336-.23992.26703-.28665.43401c.0636-.1613.17748-.2994.31812-.39083s.30823-.13655.47017-.12968 .31959.0654.44303.16144 .21495.23066.2581.37513 .0403.29044.002.42793-.11486.26451-.21368.36576c-.19526.20373-.49292.30007-.77387.29555s-.56547-.11711-.80885-.27946-.45188-.38985-.64143-.63735c-.3413-.44758-.60275-.97553-.92699-1.50762-.31897-.53766-.72402-1.08028-1.31205-1.48964-.65246-.43816-1.46831-.62266-2.27053-.49351s-1.54361.56938-2.05594,1.23385z" fill-rule="evenodd"/>
<path d="m93.78742,30.65141c.21959.51869 2.11234.51768 2.36568-.07571l-1.203-.70337z" transform="translate(224.60005,456.68118)"/>
</g>
<g transform="translate(40.05479,5.49891)">
<path d="m317.61479,507.01635 .56915,3.00152c2.21303,1.17852 3.51708.46331 4.61466-.682l-.4446-3.31639c-1.34657.99649-2.03619,1.55598-4.73921.99687z" fill="url(#radialGradient8403)"/>
<path d="m93.01083,41.40747 .64891,3.1046c0,0-1.98667,2.51262-3.09188,1.98491-.8762-.41836-.31732-2.89553-.31732-2.89553s-.9433-2.058-.29342-2.67749c.74597-.71108 3.05371.4835 3.05371.4835z" fill="url(#radialGradient8405)" transform="translate(224.59985,465.55787)"/>
<path d="m322.53537,509.6242-.64891-3.10461c0,0 1.98667-2.51261 3.09188-1.98491 .8762.41837.31732,2.89553.31732,2.89553s.9433,2.058.29342,2.67749c-.74597.71108-3.05371-.4835-3.05371-.4835z" fill="url(#radialGradient8407)"/>
</g>
<path d="m369.49518,516.24824 2.49283-3.37266 1.02646,1.68632z" fill="#eee"/>
<path d="m369.74707,516.21243 2.18624-2.95785 .90021,1.47892z" fill="url(#radialGradient7984)"/>
<path d="m368.8915,516.47829 4.53023-2.38812c.29897.55473.28663,1.05757.26992,1.55968l-4.67155,2.17876c-.11627-.42564-.31724-.82305-.1286-1.35032z" fill="url(#radialGradient7981)"/>
<path d="m345.13732,538.55445c-1.58898-.78333-3.0231-3.28212-3.85463-6.71624-.67663-2.79443-1.13546-6.69837-1.05619-8.98674 .0607-1.7526.11552-1.99629.55645-2.47377 1.34269-1.45397 4.12232-1.44016 5.83871.029 .43817.37506 1.36886,1.69569 2.24301,3.1828 .82175,1.39796 1.84716,2.9129 2.27868,3.36653l.7846.82478 1.20644-.1261c2.47139-.25831 8.55294-2.74153 14.96347-6.10989 1.8171-.95479 3.56795-1.83638 3.89077-1.9591 1.61419-.61366 2.04975-.90589 2.70072-1.812 .38142-.53091.99283-1.20414 1.3587-1.49607 .58216-.46452 3.07196-1.66164 3.45591-1.66164 .0769,0 .1021.52211.0559,1.16024-.0755,1.04333-.0333,1.21091.41883,1.663 .41673.41673.68494.50276 1.56744.50276 .97382,0 1.1165-.059 1.67189-.69158 .33396-.38036.60856-.75454.6102-.8315s.0836-.26728.18206-.42294c.14796-.23388.25116-.19991.5943.19564 1.47232,1.69718.9359,3.40338-1.44267,4.58867-.88273.43989-1.21323.4877-3.37093.4877-1.31574,0-2.8403-.10342-3.38793-.22983-.969-.22367-1.01135-.21482-1.5801.33008-.32143.30794-.5841.6975-.58371.86568s.26061,1.00147.57827,1.85176l.57755,1.54599-.52935.74869c-.29115.41177-.57428.75056-.62918.75286s-.33879-.21741-.63087-.48824l-.53105-.49241-1.96012,1.51994c-5.61535,4.35432-15.24961,9.39995-20.4838,10.72771-2.22939.56553-4.52816.63007-5.4934.15422z" filter="url(#filter8344)" opacity=".5967"/>
<g transform="translate(1.0558,-1.75967)">
<path class="fil39" d="m371.36852,524.72967c0,0 2.6109-2.18213 3.5738-3.41721 2.1098.59604 3.2143.46969 5.4058.53166 1.3858.0391 2.5619-.42642 3.6289-1.31158 .7156-.59367 1.3164-1.48545 1.1395-2.39831-.2221-1.14529-.7378-1.30218-1.4348-2.23761-.4245.99913-1.0228,2.24167-1.9611,2.33246-1.2739.12318-2.2567.10129-2.5949-1.40174-.1692-.75235.1954-1.57196.5257-2.28733-1.2473.73373-3.1695,1.14401-4.295,2.05349-.722.58336-1.1372,1.46739-1.7058,2.20103-.88735.82599-2.99462,2.24309-2.99462,2.24309z" fill="url(#radialGradient8409)" fill-rule="evenodd"/>
<path d="m370.90672,520.16205 1.72331,6.65069 1.16894.9804 1.24435-1.77226c-.81805-2.29127-1.93584-4.55256-1.80997-6.93822z" fill="#fff"/>
<g transform="matrix(.56968,.1945,-.1945,.56968,249.68694,180.56829)">
<path d="m381.08256,478.50024-1.34479-.41691-.0191-1.40782 1.33301-.45316 .84292,1.12774-.81207,1.15015z" fill="url(#radialGradient8361)" opacity=".858"/>
<path d="m380.95769,477.90196-.84366-.26157-.0122-.88321 .8363-.2843 .5288.70751-.50947.72157z" fill="url(#linearGradient8363)" opacity=".65"/>
<path d="m380.16126,477.59221-.0107-.80104 .75848-.25784 .47961.64168c-.29212.18292-.34842.00013-.63127-.0154s-.42141.23013-.59615.43254z" fill="url(#linearGradient8365)" opacity=".65"/>
<path d="m379.76991,476.7064 .31209.0681 .006.86649-.30549.3662c-.01-.28932-.0122-1.24303-.0129-1.30085z" fill="url(#linearGradient8367)" opacity=".65"/>
<path d="m381.06228,476.28712-.0753.16184 .52067.7208 .3229.14145z" fill="url(#linearGradient8369)" opacity=".6502"/>
<path d="m356.47811,289.56183-.9372-.29241c-.003-.002-.0289-1.86071-.0273-1.92578l.00092-.0387 .92775-.31547c.8661-.2945.92816-.31503.93418-.30892l1.08818,1.45469 .0836.11222-.56317.79794-.56766.80222c-.003.003-.25515-.0735-.93932-.28576zm.85464.23362c-.00057-.0271-.0811-.71259-.084-.71529-.005-.005-1.2245-.37613-1.23056-.37473s-.44059.54598-.43808.54849l1.74791.54809c.003.00015.005-.003.005-.007zm.62123-.75924 .53998-.75528c.002-.004-.0619-.0357-.24185-.12091l-.24748-.11275-.3398.49135-.34813.5039-.0111.0156 .0527.36046 .0527.36426 .003.004 .54004-.75032zm-2.16786-.11478 .21531-.25781-.003-.4961c-.002-.27285-.004-.55132-.005-.61882l-.002-.12273-.20898-.0457-.22233-.0486-.0134-.003 .003.52096c.004.80115.0116,1.33311.0185,1.33067l.21847-.25893zm1.81306-.39922 .36181-.51501c.00091-.004-.73008-.98691-.7471-1.00497-.004-.004-.11223.0314-.59819.19653l-.59567.20435c-.003.003.0145,1.25444.0173,1.25726l1.19661.37202 .36523-.51018zm.87926-.33418-.54393-.72559-.54476-.72572c-.004-.004-.016.0192-.0586.111-.0498.10717-.0535.11671-.0486.12488s.16958.23617.37027.51402l.36487.50518 .22888.10043c.12588.0552.23041.10049.23228.10056s.002-.002-.00042-.005zm-1.87079-1.02188 .61655-.222 .0625-.1122 .0612-.11349-.7338.24056-.88801.29289-.15306.0536 .20833.0422 .20774.04 .61852-.22161z" fill="#fff" filter="url(#filter4103)" opacity=".93" transform="matrix(.70312,0,0,.70312,129.7753,274.67626)"/>
<path d="m381.0351,476.27607-.0873.15697-.86548.31153-.2964-.0563z" fill="url(#linearGradient8371)" opacity=".6626"/>
<path d="m380.10021,477.67204 .86672.26443 .0574.50703-1.23133-.3858z" fill="url(#linearGradient8373)" opacity=".65"/>
<path d="m381.49942,477.20938-.49205.712 .0746.51109 .75994-1.06102z" fill="url(#linearGradient8375)" opacity=".65"/>
</g>
<path d="m339.53482,522.69102c-.0333-4.29856 6.18842-3.80508 7.71039-.91141 0,0 2.5579,4.66764 3.71144,5.86408 2.25027,2.33398 20.13569-7.6827 20.13569-7.6827s3.06639,5.49041 1.20676,7.0151c-7.64059,6.26447-22.70759,14.16337-27.51574,12.17237-5.1503-2.13267-5.24854-16.45744-5.24854-16.45744z" fill="url(#radialGradient8427)"/>
</g>
<g transform="matrix(.99988,.01547,-.01547,.99988,1939.6565,1433.4662)">
<path d="m-1578.0393-887.81471c0,0 4.6321-37.4615 13.7957-36.50305 29.9404,3.12738 53.5044,23.91284 53.5044,23.91284z" fill="url(#radialGradient8429)" opacity=".4239"/>
<path d="m-1564.9056-923.57865c.2111-2.3117 28.4779,5.36831 51.3243,21.76625-35.1622-21.24481-51.5316-19.45455-51.3243-21.76625z" fill="#fff" opacity=".1235"/>
</g>
</g>
</svg>
