<?xml version="1.0" encoding="UTF-8" standalone="no"?>
<svg viewBox="0 0 300.79999 143.91226" xmlns="http://www.w3.org/2000/svg" xmlns:xlink="http://www.w3.org/1999/xlink">
<defs>
<filter id="filter4811">
<feGaussianBlur stdDeviation=".2745"/>
</filter>
<filter id="filter6292">
<feGaussianBlur stdDeviation="1.2864"/>
</filter>
<filter id="filter6641">
<feGaussianBlur stdDeviation=".6095"/>
</filter>
<filter id="filter4103"></filter>
<filter height="1.21594" id="filter4189" width="1.27759" x="-.1388" y="-.10797"></filter>
<linearGradient id="linearGradient4222">
<stop offset="0" stop-color="#666"/>
<stop offset="1"/>
</linearGradient>
<linearGradient id="linearGradient6058">
<stop offset="0" stop-color="#eee"/>
<stop offset="1"/>
</linearGradient>
<linearGradient id="linearGradient4248">
<stop offset="0" stop-color="#fff"/>
<stop offset="1"/>
</linearGradient>
<linearGradient gradientUnits="userSpaceOnUse" id="linearGradient3186" x1="363.0824" x2="363.3199" y1="477.77621" y2="466.14122">
<stop offset="0" stop-color="#ccc"/>
<stop offset=".4163" stop-color="#808080"/>
<stop offset="1"/>
</linearGradient>
<linearGradient gradientUnits="userSpaceOnUse" id="linearGradient3245" x1="320.94898" x2="323.59838" y1="426.3698" y2="423.84207">
<stop offset="0"/>
<stop offset="1" stop-color="#4d4d4d"/>
</linearGradient>
<linearGradient gradientUnits="userSpaceOnUse" id="linearGradient3248" x1="322.75539" x2="327.45328" y1="425.04882" y2="419.2646">
<stop offset="0"/>
<stop offset="1" stop-color="#b3b3b3"/>
</linearGradient>
<linearGradient gradientTransform="matrix(-.17182,0,0,.17182,377.15704,319.00185)" gradientUnits="userSpaceOnUse" id="linearGradient3324" x1="143.76123" x2="142.40924" y1="551.22589" y2="566.99908">
<stop offset="0" stop-color="#a05a2c"/>
<stop offset="1" stop-color="#ffb380"/>
</linearGradient>
<linearGradient gradientTransform="matrix(-.17182,0,0,.17182,377.15704,319.00185)" gradientUnits="userSpaceOnUse" id="linearGradient3355" x1="211.81122" x2="399.28668" y1="565.67279" y2="373.66501">
<stop offset="0" stop-color="#a80"/>
<stop offset="1" stop-color="#fd5"/>
</linearGradient>
<linearGradient id="linearGradient3136">
<stop offset="0" stop-color="#fff"/>
<stop offset="1" stop-color="#fff" stop-opacity="0"/>
</linearGradient>
<linearGradient gradientTransform="matrix(.00321,.00101,-.00101,.00321,356.10565,286.35396)" gradientUnits="userSpaceOnUse" id="linearGradient7499" x1="986.2171" x2="216.72804" xlink:href="#linearGradient3136" y1="1019.8256" y2="202.35674"/>
<linearGradient gradientTransform="matrix(.00291,9.1276185e-4,-9.1276185e-4,.00291,356.1665,286.50002)" gradientUnits="userSpaceOnUse" id="linearGradient7501" x1="221.34767" x2="532.85608" xlink:href="#linearGradient3136" y1="69.92945" y2="529.76367"/>
<linearGradient gradientUnits="userSpaceOnUse" id="linearGradient7503" x2="0" xlink:href="#linearGradient3136" y1="287.45846" y2="288.79082"/>
<linearGradient gradientTransform="matrix(-.02687,.0208,.0208,.02687,358.86719,279.87152)" gradientUnits="userSpaceOnUse" id="linearGradient7505" x1="158.8333" x2="158.99269" xlink:href="#linearGradient3136" y1="138.48926" y2="175.0564"/>
<linearGradient gradientTransform="matrix(0,.03398,-.03398,0,361.79683,281.35582)" gradientUnits="userSpaceOnUse" id="linearGradient7507" x1="165.82292" x2="181.50717" xlink:href="#linearGradient3136" y1="156.58948" y2="152.28894"/>
<linearGradient gradientTransform="matrix(.01056,-.0323,.0323,.01056,349.88095,292.60219)" gradientUnits="userSpaceOnUse" id="linearGradient7509" x1="159.76962" x2="158.99269" xlink:href="#linearGradient3136" y1="127.11888" y2="175.0564"/>
<linearGradient gradientTransform="matrix(-.01056,-.0323,-.0323,.01056,364.86917,292.32855)" gradientUnits="userSpaceOnUse" id="linearGradient7511" x1="179.50685" x2="156.44305" xlink:href="#linearGradient3136" y1="143.05591" y2="175.58769"/>
<linearGradient gradientTransform="matrix(.00321,.00101,-.00101,.00321,363.86296,422.35648)" gradientUnits="userSpaceOnUse" id="linearGradient7816" x1="986.2171" x2="50.72192" xlink:href="#linearGradient3136" y1="1019.8256" y2="28.22158"/>
<linearGradient gradientTransform="matrix(.00291,9.1276185e-4,-9.1276185e-4,.00291,363.94683,422.49103)" gradientUnits="userSpaceOnUse" id="linearGradient7818" x1="221.34767" x2="532.85608" xlink:href="#linearGradient3136" y1="69.92945" y2="529.76367"/>
<linearGradient gradientUnits="userSpaceOnUse" id="linearGradient7820" x2="0" xlink:href="#linearGradient3136" y1="423.46098" y2="424.79334"/>
<linearGradient gradientTransform="matrix(-.02687,.0208,.0208,.02687,366.6245,415.87404)" gradientUnits="userSpaceOnUse" id="linearGradient7822" x1="158.8333" x2="158.99269" xlink:href="#linearGradient3136" y1="138.48926" y2="175.0564"/>
<linearGradient gradientTransform="matrix(0,.03398,-.03398,0,369.55414,417.35834)" gradientUnits="userSpaceOnUse" id="linearGradient7824" x1="165.82292" x2="181.50717" xlink:href="#linearGradient3136" y1="156.58948" y2="152.28894"/>
<linearGradient gradientTransform="matrix(.01056,-.0323,.0323,.01056,357.66653,428.61308)" gradientUnits="userSpaceOnUse" id="linearGradient7826" x1="159.76962" x2="158.99269" xlink:href="#linearGradient3136" y1="127.11888" y2="175.0564"/>
<linearGradient gradientTransform="matrix(-.01056,-.0323,-.0323,.01056,372.62648,428.33107)" gradientUnits="userSpaceOnUse" id="linearGradient7828" x1="179.50685" x2="156.44305" xlink:href="#linearGradient3136" y1="143.05591" y2="175.58769"/>
<radialGradient cx="-13393.092" cy="-8873.1924" gradientTransform="matrix(1.34526,-.62558,.37949,.71724,7964.0766,-10907.036)" gradientUnits="userSpaceOnUse" id="radialGradient6612" r="194.82228">
<stop offset="0" stop-color="#eee"/>
<stop offset="1" stop-color="#aaa"/>
</radialGradient>
<radialGradient cx="-13591.438" cy="-8579.6055" gradientTransform="matrix(-.88326,-.49164,.91911,-1.45126,-17435.549,-28193.744)" gradientUnits="userSpaceOnUse" id="radialGradient6614" r="194.82228">
<stop offset="0" stop-color="#eee"/>
<stop offset="1" stop-color="#888"/>
</radialGradient>
<radialGradient cx="2156.3743" cy="-2157.7146" gradientTransform="matrix(.58201,-.45608,1.60123,2.04332,4356.3499,3234.657)" gradientUnits="userSpaceOnUse" id="radialGradient6622" r=".5421">
<stop offset="0"/>
<stop offset=".4402" stop-color="#eee"/>
<stop offset="1" stop-color="#888"/>
</radialGradient>
<radialGradient cx="2156.3389" cy="-2157.7769" gradientTransform="matrix(2.32148,1.63614,-1.10286,1.56483,-5229.2671,-2309.343)" gradientUnits="userSpaceOnUse" id="radialGradient6624" r=".36627">
<stop offset="0" stop-color="#eee"/>
<stop offset=".5" stop-color="#909090"/>
<stop offset="1" stop-color="#333"/>
</radialGradient>
<radialGradient cx="166.74696" cy="308.72125" gradientTransform="matrix(-23.04291,17.19897,-14.30741,-19.16781,8718.6831,3493.3794)" gradientUnits="userSpaceOnUse" id="radialGradient3189" r="2.20846">
<stop offset="0" stop-color="#ff0e0e"/>
<stop offset="1"/>
</radialGradient>
<radialGradient cx="2138.9204" cy="-2156.5662" gradientTransform="matrix(-13.25391,15.07274,-15.16443,-13.33457,-4069.9852,-60531.623)" gradientUnits="userSpaceOnUse" id="radialGradient3193" r="2.20448">
<stop offset="0" stop-color="#dc0000"/>
<stop offset="1"/>
</radialGradient>
<radialGradient cx="2156.3389" cy="-2157.7769" gradientTransform="matrix(-15.46331,12.29884,8.29018,10.42334,51472.632,-3576.8042)" gradientUnits="userSpaceOnUse" id="radialGradient3203" r=".36627">
<stop offset="0" stop-color="#d6d6d6"/>
<stop offset=".5" stop-color="#828282"/>
<stop offset="1" stop-color="#2e2e2e"/>
</radialGradient>
<radialGradient cx="2156.3743" cy="-2157.7146" gradientTransform="matrix(-4.22591,-2.93291,-10.29703,14.83646,-12865.459,38790.473)" gradientUnits="userSpaceOnUse" id="radialGradient3206" r=".5421">
<stop offset="0"/>
<stop offset=".4402" stop-color="#c1c1c1"/>
<stop offset="1" stop-color="#6e6e6e"/>
</radialGradient>
<radialGradient cx="161.09946" cy="307.87552" gradientTransform="matrix(12.37512,.52837,-.06402,1.50024,-1589.619,-80.68411)" gradientUnits="userSpaceOnUse" id="radialGradient3233" r="10.6511">
<stop offset="0" stop-color="#980101"/>
<stop offset="1"/>
</radialGradient>
<radialGradient cx="-9739.752" cy="-7041.9805" gradientTransform="matrix(-.01573,-.08288,.21017,-.03988,1813.8421,-666.77961)" gradientUnits="userSpaceOnUse" id="radialGradient3236" r="1212.8619">
<stop offset="0" stop-color="#ff8080"/>
<stop offset=".1482" stop-color="#f00"/>
<stop offset="1" stop-color="#2b0000"/>
</radialGradient>
<radialGradient cx="-2599.8374" cy="83.554" gradientTransform="matrix(-.2268,-.0191,-.0032,.03802,-234.26404,325.26512)" gradientUnits="userSpaceOnUse" id="radialGradient3352" r="273.67188">
<stop offset="0" stop-color="#fea"/>
<stop offset="1" stop-color="#fff" stop-opacity=".498"/>
</radialGradient>
<radialGradient cx="357.00067" cy="409.3891" gradientTransform="matrix(2.56037,-1.33696,.61327,1.17446,-807.95641,405.6431)" gradientUnits="userSpaceOnUse" id="radialGradient3416" r="1.76409">
<stop offset="0" stop-color="#f00"/>
<stop offset="1"/>
</radialGradient>
<radialGradient cx="133.114" cy="67.00652" gradientTransform="matrix(.11409,-.43614,1.23952,.32424,37.92402,94.0766)" gradientUnits="userSpaceOnUse" id="radialGradient6590" r="17.03538">
<stop offset="0" stop-color="#800080"/>
<stop offset="1"/>
</radialGradient>
<radialGradient cx="355.53989" cy="288.75793" gradientTransform="matrix(2.28602,.04553,-.04687,2.35359,-442.40434,-407.54061)" gradientUnits="userSpaceOnUse" id="radialGradient7497" r=".77651">
<stop offset="0" stop-color="#ff47ff"/>
<stop offset="1" stop-color="#2b0000"/>
</radialGradient>
<radialGradient cx="355.55399" cy="288.70874" gradientTransform="matrix(2.28602,.04553,-.04687,2.35359,-434.64703,-271.53809)" gradientUnits="userSpaceOnUse" id="radialGradient7814" r=".77651">
<stop offset="0" stop-color="#a1a1ff"/>
<stop offset="1" stop-color="#6e6eff"/>
</radialGradient>
<radialGradient cx="-13317.456" cy="-8948.9043" gradientTransform="matrix(-.9316,.49311,-.40216,-.66778,-29484.591,-8234.0887)" gradientUnits="userSpaceOnUse" id="radialGradient6609" r="194.82228" xlink:href="#linearGradient6058"/>
<radialGradient cx="170.07961" cy="313.8345" gradientTransform="matrix(.77515,-10.19461,-28.28136,-2.15038,8968.085,2879.7293)" gradientUnits="userSpaceOnUse" id="radialGradient3197" r="1.08431" xlink:href="#linearGradient4248"/>
<radialGradient cx="170.87646" cy="313.18573" gradientTransform="matrix(-2.53384,-11.55008,25.27536,-5.54487,-6980.1546,4177.8951)" gradientUnits="userSpaceOnUse" id="radialGradient3200" r="1.08431" xlink:href="#linearGradient4248"/>
<radialGradient cx="2144.2217" cy="-2159.572" gradientTransform="matrix(3.92577,1.71801,-9.51667,21.7462,-28592.845,43692.319)" gradientUnits="userSpaceOnUse" id="radialGradient3239" r=".37967" xlink:href="#linearGradient4222"/>
<radialGradient cx="2144.2217" cy="-2159.572" gradientTransform="matrix(-1.71801,3.92577,-21.7462,-9.51667,-42895.894,-28550.869)" gradientUnits="userSpaceOnUse" id="radialGradient3242" r=".37967" xlink:href="#linearGradient4222"/>
<radialGradient cx="2147.7324" cy="-2160.2671" gradientTransform="matrix(22.6605,7.96553,-7.05557,20.07182,-65456.88,25339.745)" gradientUnits="userSpaceOnUse" id="radialGradient3381" r="2.6974" xlink:href="#linearGradient6058"/>
</defs>
<g transform="translate(-218.17185,-365.50077)">
<path d="m330.68302,369.01139c-4.27472.16935-7.47313,4.45458-6.90908,8.60313 .00062,2.62779 1.72057,4.79082 3.68706,6.37761-4.6728,2.18226-10.3773,1.36447-14.64028-1.3951-5.84098-3.19615-11.00027-8.13125-17.70451-9.40864-10.85846-1.28783-21.71414,6.42611-24.82951,16.75784-1.89044,7.45211 1.55494,16.03361 8.46196,19.6394 4.03586,2.22255 9.06738,2.66636 13.45629,1.35424 3.6013-1.06644 7.30542-4.41026 6.63153-8.48754-.56796-2.55401-3.42386-4.61826-6.00392-3.7701 .15709,1.13377 1.41409,2.2591.84702,3.5625-.74413,2.42113-4.63561,2.30661-5.34789-.10796-1.12807-2.46806 1.02535-5.53327 3.75349-5.21502 2.86287-.36957 5.5957.81024 7.68211,2.68941 5.8754,4.77988 11.20087,10.42052 18.15803,13.65446 6.74199,3.48128 14.37129,5.18787 21.9583,4.65055 2.45337-.0507 4.97986-.53176 7.33303-.86508-1.49027,1.53944-4.01457.84711-5.93749,1.1875-2.18652.16072-4.79128.00099-6.20322,2.03452-1.7766,2.23479-1.38915,5.39104-1.81969,8.07108-.004,1.4992-.33204,3.2064.10902,4.56789 .77701.0493 2.16706-.35178 2.21722.86363 .56725,1.44138 1.14125,2.94522 2.08435,4.1687 5.48679-2.2688 10.9992-4.76661 16.68949-6.59178 3.45949-.91047 7.11433-.84043 10.67279-1.13941 .0163,1.05293.32697,2.43842 1.69177,2.25201 4.97343.82086 9.6083,3.74319 14.75052,3.58583 1.51468-.26137.67199-2.28105.68094-3.26355-1.12437-9.43409-.56814-19.28504-3.9611-28.29235-.62853-.6969-.38168-1.16519.15778-1.67744-.0425-.78301-.89935-1.38835-1.56118-1.22902 .54584-2.8183 2.97603-5.64051 1.86013-8.65296-.44945-1.43635-2.00052-3.01628-3.5874-2.10926-1.73966.15625-.29011,1.18566.0996,1.96809 .73896,1.25832.007,3.29283-1.64423,3.03102-.83483.23506-1.60286-1.09162-2.14248-.63111 .19798,2.33429.61427,4.6997 2.15778,6.55373 .38503.45433.43085.72105-.0817.94494-.22247.87501.0619,2.21548 1.14598,2.25044 1.13403,2.98045 1.02967,6.3592 1.29396,9.52481 .0719,1.36785-.0233,2.73529-.0649,4.10235-.99965.13232-2.60275.40435-2.81512-.96328-.36139-.7279.4522-1.91324-.19099-2.29196-2.17569.76349-4.22405,1.90977-5.48077,3.91127-.64774,1.20556-2.62194.44795-2.99781,1.85184 .10954,1.0575-1.45305,1.05924-2.06774.48164-2.26348-1.30733-5.11223-1.94502-6.76791-4.04414-.55241-.73633-.66278-2.16193.52317-2.36669 1.49291-.88581 3.26394-1.65221 4.9232-1.79513 1.49287.55522 2.87886,1.56501 4.29444,2.1273 .58137-.25533.72445.52391 1.41171.31556 .67791-.0268 1.08289.52724 1.9764.23251 1.42161-.1552 3.16622-.54487 3.73688-1.95148 .44831-.72984 1.28809-1.16126 1.81031-1.69405-.21522-.6288.59334-.80277.27404-1.5778-.10633-1.82898-1.48758-3.36924-3.11407-4.06905-.068-.83778-1.60378-.65819-2.23382-.55638-.83771.0547-2.23013.95284-1.75219,1.86844 .80995-.21687 1.80522-1.02975 2.60752-.19099 1.16247.87004.47128,2.5977-.83873,2.83172-1.47793.44439-3.16016.41605-4.62543-.11626 3.60991-3.84825 5.73096-9.08451 5.30209-14.39943 .16951-4.69647-2.01073-9.31551-5.23565-12.61407-3.51755-3.29836-7.97338-5.85398-12.92116-5.77196-4.15442-.30298-8.0839,1.25403-12.15748,1.52852-3.45299.0736-7.51632-1.25966-9.07647-4.57561-.26845-1.03616-.59362-2.72434.40691-3.46284 1.35054-.74935 2.01325,1.09351 1.81862,2.11757 .81251.55472 1.39654-1.08832 1.27884-1.76049-.156-1.60146-1.59427-2.83406-3.23033-2.62412zm38.23246,53.08864c2.30338.36153 4.7563.67807 7.01703.14948 .55813,1.92429.11936,4.11428.64773,6.10357 .0222.61825.56216,1.74865-.53147,1.55288-2.8805.29791-5.55698-1.24121-7.98862-2.5909-.66953-.75303-1.31528-2.14583-.87194-2.9812 .79495.19665.81849-.91026.60621-1.35359 .21926-.38679.63116-.84248 1.12106-.88024z" filter="url(#filter6292)" opacity=".5802"/>
<g transform="matrix(.45467,0,0,.45467,209.27871,208.4585)">
<path d="m365.18324,425.88565-1.91259-.59294-.0271-2.00223 1.89584-.6445 1.19882,1.6039-1.15495,1.63577z" fill="url(#radialGradient7814)" opacity=".858"/>
<path d="m364.99466,425.03476-1.19988-.37201-.0173-1.25612 1.1894-.40433 .75207,1.00623-.72457,1.02623z" fill="url(#linearGradient7816)" opacity=".65"/>
<path d="m363.88498,424.58272-.0152-1.13925 1.07872-.36671 .68212.91261c-.41546.26016-.49553.00019-.89781-.0219s-.59934.3273-.84786.61517z" fill="url(#linearGradient7818)" opacity=".65"/>
<path d="m363.30537,423.33442 .44386.0969 .009,1.23234-.43447.52082c-.0137-.41148-.0174-1.76786-.0184-1.85009z" fill="url(#linearGradient7820)" opacity=".65"/>
<path d="m365.14341,422.7381-.10705.23017 .74051,1.02514 .45923.20118z" fill="url(#linearGradient7822)" opacity=".6502"/>
<path d="m364.23542,425.56435-.9372-.29241c-.003-.002-.0289-1.86071-.0273-1.92578l.00092-.0387 .92775-.31547c.8661-.2945.92816-.31503.93418-.30892l1.08818,1.45469 .0836.11222-.56317.79794-.56766.80222c-.003.003-.25515-.0735-.93932-.28576zm.85464.23362c-.00057-.0271-.0811-.71259-.084-.71529-.005-.005-1.2245-.37613-1.23056-.37473s-.44059.54598-.43808.54849l1.74791.54809c.003.00015.005-.003.005-.007zm.62123-.75924 .53998-.75528c.002-.004-.0619-.0357-.24185-.12091l-.24748-.11275-.3398.49135-.34813.5039-.0111.0156 .0527.36046 .0527.36426 .003.004 .54004-.75032zm-2.16786-.11478 .21531-.25781-.003-.4961c-.002-.27285-.004-.55132-.005-.61882l-.002-.12273-.20898-.0457-.22233-.0486-.0134-.003 .003.52096c.004.80115.0116,1.33311.0185,1.33067l.21847-.25893zm1.81306-.39922 .36181-.51501c.00091-.004-.73008-.98691-.7471-1.00497-.004-.004-.11223.0314-.59819.19653l-.59567.20435c-.003.003.0145,1.25444.0173,1.25726l1.19661.37202 .36523-.51018zm.87926-.33418-.54393-.72559-.54476-.72572c-.004-.004-.016.0192-.0586.111-.0498.10717-.0535.11671-.0486.12488s.16958.23617.37027.51402l.36487.50518 .22888.10043c.12588.0552.23041.10049.23228.10056s.002-.002-.00042-.005zm-1.87079-1.02188 .61655-.222 .0625-.1122 .0612-.11349-.7338.24056-.88801.29289-.15306.0536 .20833.0422 .20774.04 .61852-.22161z" fill="#dce4ff" filter="url(#filter4103)" opacity=".5062"/>
<path d="m365.10475,422.72239-.12417.22324-1.2309.44307-.42155-.08z" fill="url(#linearGradient7824)" opacity=".6626"/>
<path d="m363.8034,424.71614 1.23267.37608 .0816.7211-1.75123-.54868z" fill="url(#linearGradient7826)" opacity=".65"/>
<path d="m365.76512,424.04976-.69981,1.01263 .10613.72688 1.0808-1.509z" fill="url(#linearGradient7828)" opacity=".65"/>
</g>
<g transform="matrix(.45467,0,0,.45467,212.46342,207.31376)">
<path d="m365.18324,425.88565-1.91259-.59294-.0271-2.00223 1.89584-.6445 1.19882,1.6039-1.15495,1.63577z" fill="url(#radialGradient7814)" opacity=".858"/>
<path d="m364.99466,425.03476-1.19988-.37201-.0173-1.25612 1.1894-.40433 .75207,1.00623-.72457,1.02623z" fill="url(#linearGradient7816)" opacity=".65"/>
<path d="m363.88498,424.58272-.0152-1.13925 1.07872-.36671 .68212.91261c-.41546.26016-.49553.00019-.89781-.0219s-.59934.3273-.84786.61517z" fill="url(#linearGradient7818)" opacity=".65"/>
<path d="m363.30537,423.33442 .44386.0969 .009,1.23234-.43447.52082c-.0137-.41148-.0174-1.76786-.0184-1.85009z" fill="url(#linearGradient7820)" opacity=".65"/>
<path d="m365.14341,422.7381-.10705.23017 .74051,1.02514 .45923.20118z" fill="url(#linearGradient7822)" opacity=".6502"/>
<path d="m364.23542,425.56435-.9372-.29241c-.003-.002-.0289-1.86071-.0273-1.92578l.00092-.0387 .92775-.31547c.8661-.2945.92816-.31503.93418-.30892l1.08818,1.45469 .0836.11222-.56317.79794-.56766.80222c-.003.003-.25515-.0735-.93932-.28576zm.85464.23362c-.00057-.0271-.0811-.71259-.084-.71529-.005-.005-1.2245-.37613-1.23056-.37473s-.44059.54598-.43808.54849l1.74791.54809c.003.00015.005-.003.005-.007zm.62123-.75924 .53998-.75528c.002-.004-.0619-.0357-.24185-.12091l-.24748-.11275-.3398.49135-.34813.5039-.0111.0156 .0527.36046 .0527.36426 .003.004 .54004-.75032zm-2.16786-.11478 .21531-.25781-.003-.4961c-.002-.27285-.004-.55132-.005-.61882l-.002-.12273-.20898-.0457-.22233-.0486-.0134-.003 .003.52096c.004.80115.0116,1.33311.0185,1.33067l.21847-.25893zm1.81306-.39922 .36181-.51501c.00091-.004-.73008-.98691-.7471-1.00497-.004-.004-.11223.0314-.59819.19653l-.59567.20435c-.003.003.0145,1.25444.0173,1.25726l1.19661.37202 .36523-.51018zm.87926-.33418-.54393-.72559-.54476-.72572c-.004-.004-.016.0192-.0586.111-.0498.10717-.0535.11671-.0486.12488s.16958.23617.37027.51402l.36487.50518 .22888.10043c.12588.0552.23041.10049.23228.10056s.002-.002-.00042-.005zm-1.87079-1.02188 .61655-.222 .0625-.1122 .0612-.11349-.7338.24056-.88801.29289-.15306.0536 .20833.0422 .20774.04 .61852-.22161z" fill="#dce4ff" filter="url(#filter4103)" opacity=".5062"/>
<path d="m365.10475,422.72239-.12417.22324-1.2309.44307-.42155-.08z" fill="url(#linearGradient7824)" opacity=".6626"/>
<path d="m363.8034,424.71614 1.23267.37608 .0816.7211-1.75123-.54868z" fill="url(#linearGradient7826)" opacity=".65"/>
<path d="m365.76512,424.04976-.69981,1.01263 .10613.72688 1.0808-1.509z" fill="url(#linearGradient7828)" opacity=".65"/>
</g>
<path class="fil39" d="m383.63676,433.95302c-1.7557-9.57823-.35252-26.25787-5.99201-34.479 1.2064-1.83061 1.42013-2.92157 2.14221-4.99162 .45652-1.30903.36864-2.57085-.15223-3.85565-.34936-.86167-1.01758-1.70411-1.94118-1.81168-1.15881-.1348-1.46437.30927-2.56683.6906 .82388.70688 1.82718,1.65306 1.62984,2.57486-.26799,1.25146-.58619,2.18158-2.1211,2.04921-.76829-.0663-1.43918-.66182-2.0211-1.19307 .32199,1.41083.1315,3.36708.65785,4.71498 .33759.86466 1.05458,1.52785 1.58182,2.29176 3.72139,7.85896 1.40717,20.38178 3.19197,27.96345-4.50904,1.89798-8.61584-4.2715-13.12484-2.3734 1.23241,1.39188 1.37939,3.59982 1.70597,4.9352 5.618-.0469 11.32044,4.81858 17.00963,3.48436z" fill="#feb27f" fill-rule="evenodd"/>
<path d="m360.43704,418.39946c4.62593,1.87044 9.3928,4.36957 8.67836,9.93424-12.27779-.0593-22.47534,2.5151-34.70397,2.73325-.13299-2.67408.13903-7.22813.52624-9.52316s1.47499-4.42966 4.51077-4.96136c.76385-.10342 1.54964-.10537 2.366-.0967 1.93934-.20157 4.81429.45473 6.38438-.9916 .93764-1.02759.84385-2.83864 1.75405-3.14157 2.16792-.87153 4.57071-.73987 6.88075-.73987-.35457.63383-.60197,1.29246-.68649,1.97759-.34466,2.63291 2.19971,3.96936 4.28991,4.80914z" fill="url(#linearGradient3324)" fill-rule="evenodd"/>
<path d="m293.75803,396.8725c1.37908-.4558 2.67815-.20388 3.74596.40414 3.96128,2.47277 2.89211,6.65934.0498,9.55886-2.05881,1.83312-5.06942,2.84696-8.23735,3.03221-10.37867.28997-17.72363-6.62686-18.35939-16.8621-.65846-10.60062 10.68236-22.2135 23.9826-21.88896 13.06165,1.45077 20.23102,17.16111 33.88286,11.05803-6.75968-4.2583-4.28851-14.57054 3.02396-15.02797 1.70768-.10682 2.79174.99077 3.15081,2.16141 .42764,1.42804-.28816,2.63543-1.75926,2.63943 1.2766-.85638.45245-3.11882-.97387-2.71483-1.31329.37199-1.15178,2.19419-.94047,3.2797 .97259,3.83068 7.69461,5.77156 10.56188,5.056 3.10982-.74251 13.65788-4.15088 21.001,1.87748 13.55355,8.47876 9.64807,32.46399-7.09018,33.34849-17.4611,6.773-31.70647,2.49503-42.35946-4.65407-4.75508-3.19108-8.92421-7.68223-12.53948-10.54426-2.44921-2.09812-5.68774-3.31362-8.88825-2.51583-2.00411.58698-3.00773,2.21451-2.97007,3.80068 .74518,6.22572 9.2443,2.9473 4.71893-2.00841z" fill="url(#linearGradient3355)" fill-rule="evenodd"/>
<path d="m332.15763,367.1415c.10213.003.2038.0104.30069.0215 .19377.0221.37935.0597.55304.11275s.3354.11899.48862.19867 .29721.17199.42954.27384c.26468.20368.487.44828.66581.71412s.31293.5557.4027.84836c.0535.17851.0889.35114.10739.52083s.0203.33158.005.48862c-.015.15703-.0497.31048-.0967.45102s-.10521.27175-.18256.39197-.17295.22611-.2792.32216-.2261.17895-.35975.24699-.28077.1249-.44029.16108-.33157.0532-.51546.0537c.15958-.10705.28974-.23819.38659-.38122s.16405-.29865.20404-.46177 .0486-.33207.0376-.49935-.0458-.33307-.10202-.48861-.13002-.30166-.22552-.42955-.20932-.23783-.33827-.32216-.273-.14158-.42955-.16645-.32643-.0183-.50472.0322c-.16416.0465-.30869.11649-.42955.20403s-.21756.19675-.30068.3168-.14772.25332-.19867.39733-.0884.29696-.11276.45639c-.0487.31887-.0512.65867-.0268.98797s.076.64678.12886.91816c.0608.23942.14363.47355.24699.69802s.22388.44055.36512.64969 .30344.4133.47788.60674 .36084.37568.56378.55305c.40588.35473.86669.67829 1.35845.96648s1.01699.5438 1.55712.76245 1.09206.40156 1.64302.54768 1.10263.25157 1.62692.32216 1.02184.10458 1.48195.0966c.43214-.007.82172-.055 1.16515-.13424l.005.005c1.30071-.32571 2.59907-.62171 3.90353-.89132 3.31299-.90621 11.77145-2.63804 19.56598,4.55322-.76835-.25049-2.04926-1.45409-2.59877-.15034-.45894-.62138-2.84356-2.53952-4.66599-2.55045 .49559.24366 1.15778.954 1.42289,1.52491-2.68695-2.13881-3.59782-2.28427-5.83651-2.84577 1.25614.49172 2.29909,1.28457 2.89409,2.50212-1.57239-1.38138-3.62648-1.81017-5.59488-2.30882 1.79264.58498 4.52139,1.93002 5.10627,3.53304-1.6517-1.60414-7.22276-3.94939-13.34825-1.76652 1.11341.18934 1.72388-.11703 3.04443.83225-1.13898-.56449-7.85985-.45396-13.05294,2.7008 1.46671-.53594 4.08926-1.02141 5.54656-.80004-3.12301,1.2158-5.70649,1.90152-8.73596,2.63636-3.57707,1.96059-11.05785,2.57806-14.38455.10202-.17958-.17958.57453,1.07764.57453,1.3316-5.5933-2.17312-6.11261-6.83712-12.19384-8.95074 .99746.45869 1.71765,1.05336 2.20831,1.70827 1.12049,1.55465 1.14108,3.39539-.24479,4.74964-.53491.4597-1.16753.65452-1.78419.66536-1.77175-.039-3.2004-1.31806-2.50251-3.08552 .24311-.49056.85148-.89812 1.87664-1.23358-1.82637.86172-1.33158,3.38537.80131,3.09698 .96715-.2659 1.57879-1.58672.8416-2.9534-.29361-.48759-.71143-.99003-1.19977-1.48682-3.09536-2.9197-10.23216-5.85636-13.99455-4.22079l-.20941-.0215c1.94979-.60208 3.59968.0116 4.70499,1.03966 .31241.29059.54814.61118.71369.94572 .91145,1.9875-.48402,3.99001-2.64447,3.88645-1.13223-.14432-2.36186-1.04295-2.50371-1.84083-.23412-1.3169 1.8007-2.26343 2.53503-1.47894-1.91433-.17321-2.12172,1.42237-1.04081,2.02553 .9801.54692 2.86698.30925 2.77365-1.33608-.0671-1.18229-2.35793-2.01689-4.82416-2.01643-2.45936.00051-5.68885.73317-8.83677,2.38313-.0817.0406-.1443.0849-.18792.12888 .0632-.0449.12493-.0849.18792-.12888 1.58686-.69698 3.07787-.86734 4.34561-.70309 4.48984.58173 6.17931,5.36062-.59129,5.80781 1.51138-.37173 2.42495-.89547 2.90412-1.45321 1.06555-1.24026-.0169-2.64867-1.45055-2.92769-2.29088-.44588-6.83571.746-10.63632,4.16232 1.49335-.38833 2.79373-.14364 3.0498.0966-3.76538.83559-4.9606,3.63606-6.51304,6.23384 .005-.025.006-.0502.0107-.0752 .13653-.66571.31354-1.32886.53156-1.98667s.47859-1.30549.77319-1.94908 .62705-1.28308.99334-1.90613 .76429-1.22941 1.19737-1.82558 .90108-1.18206 1.39603-1.74505 1.01593-1.10345 1.56786-1.62691 1.1303-1.0258 1.7343-1.50343 1.23348-.93298 1.88465-1.35845 1.32544-.82502 2.01889-1.192 1.40619-.7019 2.13701-1.00407 1.48111-.56899 2.24439-.80004 1.53946-.4263 2.33031-.57989 1.59734-.26845 2.41085-.33827c.61013-.0523 1.22231-.0786 1.84169-.0805l.62285.005c.81635.0907 1.61066.23628 2.384.42955s1.5295.43587 2.26587.71413 1.45305.59401 2.15849.93964 1.39739.72145 2.07794,1.11683 1.3518.8128 2.01352,1.24032 1.31627.86271 1.96519,1.30476c1.29783.88408 2.57232,1.78374 3.8552,2.62025 .64145.41826 1.28621.81743 1.93298,1.19737s1.29631.73912 1.95445,1.06313 1.32723.614 2.00277.86447 1.35747.46353 2.05647.62285c.3495.0797.70664.1451 1.06314.19866s.71499.0929 1.07924.11814 .73333.0374 1.10609.0322 .74555-.0265 1.12757-.0644 .77312-.0936 1.16515-.16646 .78919-.16392 1.192-.27383l.53694-.15571c.0974-.11388.19493-.19868.28457-.19868 2.6909-1.23021 5.30496-2.25789 7.88224-3.1357-3.03-1.81394-6.77287-4.39034-7.00166-8.2581-1.2565,2.10215 2.47667,5.47141 2.47528,5.61637-1.32046-.0506-2.31768-1.63509-3.00148-2.61489 .0194,2.26127 4.03175,4.59497 3.85521,4.47269-3.09123-.61977-5.01262-2.9387-5.66468-5.94926-.57394,1.75.66564,3.7089 1.62155,5.0472-.99605-.74254-1.79136-1.75147-2.44307-2.83503 .00035-.20653-.015-.41224 0-.61747 .0298-.40691.0913-.81217.17719-1.20811s.19851-.78258.33827-1.15978 .30247-.74465.49398-1.09536 .40857-.68763.6497-1.00407 .50607-.61154.79466-.88595 .60036-.5271.93427-.75171 .69141-.42359 1.06851-.59063 .77386-.301 1.192-.4027 .85846-.17008 1.3155-.19867c.10672-.007.2093-.008.31142-.005zm-1.35845,1.27791c-4.83187,2.2205 1.05721,7.77931 3.576,9.46083 .80963.45177 1.67473.81191 2.56656,1.06313l.0268.005c.73186-.22942 1.46243-.44829 2.1907-.65507l-.0268-.0161c-1.00886.2997-2.61645-.1619-4.23106-1.05239-2.58523-1.35619-7.80862-6.03453-4.1022-8.80577z" fill="url(#radialGradient3352)" fill-rule="evenodd"/>
<path d="m338.75122,406.93927c-2.84901,1.51236-6.64066,3.13373-9.76353,1.86622-4.6693-2.07794.13283-6.14064 1.49551-2.19207 .85536-2.67601-1.88921-3.18813-3.24391-3.09981-1.76767.11525-3.27623,1.32551-3.97207,3.00569-1.62581,4.27132 2.92521,7.66278 6.90375,7.41089 3.77261-.32278 7.1739-2.05358 10.12126-4.38677l-2.39716,1.27387-.0974.0195c-1.09208.59769-2.19257,1.17388-3.3293,1.71332-.88323.4309-1.86923.71137-2.87925.8353-3.79096.46516-7.9204-1.27501-8.22486-5.54435 .007-.4602.085-.92139.24008-1.36546 .79793-1.54092 1.91676-2.48333 3.69922-2.45317-1.70033.0281-3.2198,2.52758-2.52324,4.56429 .74873,1.35903 1.71399,2.15117 2.80419,2.53889 3.72923,1.32626 8.92034-2.07973 11.90701-3.71548-.27556.22511-1.74628.38965-.74035-.47084z" fill="#fea" fill-rule="evenodd"/>
<path d="m362.91239,397.39253c-.70006-.7082-1.42318-1.90642-2.27662-2.75985-.91539-.9154-1.24636-2.42193-2.28735-2.94242-1.79293-1.09962-8.22342-2.44563-10.63135-.49398 3.81073,3.04726 5.81029,7.59645 8.83798,11.3401 1.13012,1.2999 3.25332,3.02444 5.63784,4.40289 .80159-1.64547 1.27809-3.31014 1.23496-4.87002-.50361-2.94928-1.37979-2.34984-.51546-4.67672z" fill="#ffb380" fill-rule="evenodd"/>
<path d="m358.18616,403.77915c.571-.94546 1.45028-1.62771 2.34243-2.28714 .28916-.21687 1.03712-.51569.28164-.4672 .70041-.73569 2.22814-1.29441 2.45074-2.35548-.30631.2419-.61497.48094-1.01579.40942 1.23798-.8057 1.49439-1.89368 1.01579-3.20931-.26172.26642-.4265.65562-.69997.94496-.21109.21109-.30112.14062-.24499-.13999 .31814-.3408-.30251-1.91014-.52498-1.50495 .52404,3.02778-1.89756,5.7033-2.01502,5.81932-.40986.35603-1.55341,1.87601-1.93984,2.82537 0,.1385.33202-.12486.34999-.035" fill="#520" fill-rule="evenodd"/>
<path d="m346.85463,393.23137c5.82882,3.44223 8.33996,11.75887 12.69564,13.57509-.82385-.58035-1.40064-1.49723-2.00326-2.30373 .59066.23503.75869.32353 1.40774.35664 .66166.0338-.63872-1.16572-.97335-1.50035-.39366-.39366-.9518-.77688-1.27056-1.09564-.33775-.33774-.63623-1.50381-.75718-1.98759-.0709-.28377-.62244-1.24488-.85182-1.70366-.33669-.67337-.71958-1.24986-1.04112-1.89294-.31219-.62438-.66053-1.13377-1.23042-1.70366-.51648-.51648-1.05391-.88507-1.51436-1.23042l-1.51436-1.13576c-1.05184-1.34325-2.42805-1.49809-3.87757-1.61762 1.32967.12925 3.66699,3.20282 3.56998,3.25622-.86058-.63119-1.78711-1.12062-2.63936-1.01658z" fill="#fea" fill-rule="evenodd"/>
<path d="m360.65188,409.54342c-1.42012-1.07992-2.82998-2.26959-4.32234-3.46325-2.37035-2.11512-4.07194-4.76207-6.47009-7.50101-.56147-.64124-1.15972-1.28753-1.81485-1.93297-1.32468-1.15678-3.43418-3.50447-5.33749-3.57289-4.47692,1.6336-5.31923,5.72433-5.24554,9.87116 .009,1.79583 1.44137,2.78863 2.21755,4.56397 .32162,1.12978.74646,2.12287 1.42457,3.00384 .84997,1.2134 2.04381,1.77555 3.41128,2.23808 3.38309,1.0664 9.58774,1.99905 13.15691.36906 1.07346-1.08785 2.09897-2.3038 2.98-3.57599z" fill="#ffb380" fill-rule="evenodd"/>
<path d="m358.77895,408.95975c.056.74779-.22189,1.2877-.66378,1.62533-.72393.48687-1.43463.2706-2.57301.49011-.16737,0-.2517-.0496-.28424-.12616 .10888-.51865.47318-1.03134.62031-1.55418 .17442-.34884.95499-.35918 1.25319-.50828 .25654-.12827.22411-.36305.49993-.56992 .68714-.21341.9711.20281 1.1476.6431z" fill="url(#radialGradient3416)" fill-rule="evenodd"/>
<path d="m357.0312,410.20141c.27177-.14061.36122-.4951.54248-.73497 .21265-.14996.59236-.15886.71747-.14-.0975.64444-.74204.90476-1.25995.87497z" fill-rule="evenodd"/>
<path d="m354.41767,397.18856c1.16983.70717 2.9773-.80353 3.99192-1.74808 .38016-.40545.92689-.73948 1.52006-.95311 .51053-.18388 1.05545-.27857 1.55818-.25286-.12815-.21598-.0985-.37195-.33579-.54745-1.05741-.18901-2.51987.45521-3.82934,1.23584-.742.77028-2.47128,1.54626-2.90503,2.26566z" fill="#a40" fill-rule="evenodd"/>
<path d="m341.08474,397.43095c-.94989,1.97058-1.93752,4.65984-1.54873,6.74924 .63296-.65927 2.29559-1.50126 2.98864-1.56977-.43211.58091-1.58839,1.87609-.83148,3.88444 0,.62553-.0683,1.18428.20321,1.72729 1.38905,3.06617 4.36564,3.99455 8.49516,4.36543-3.74133,1.53769-9.29726-.6074-9.61281-5.17826-.75851-1.10488-1.48588-2.26604-1.93051-3.55619-.52514-2.36442-.11214-5.15571 2.23652-6.42218z" fill="#fca" fill-rule="evenodd"/>
<path d="m352.42887,406.71904c-3.16356-.41702-6.51,2.78228-8.87217,2.6249 .24229-.22884.3845-.2795.34998-.48998-.81115-.14403-1.64945.18018-2.41491-.175-.2446-.12229-.27721-.17499.035-.17499 .50962.038 1.05108-.15948 1.46994-.41998-.19934-.36003-1.07636-.64953-1.53994-1.01497 1.09216.45393 2.14426.74291 3.28843.69824 2.65034-.14193 4.36329-1.95723 7.68366-1.04822z" fill="#520" fill-rule="evenodd"/>
<path d="m339.75879,404.02765c.99007-.91313 1.88072-2.43665 3.25022-3.45369 1.87957-1.24401 4.31681-1.1043 6.26862-1.67449 .14278-.0476.57472-.33118.25904-.2258-2.43523-.32481-4.58904.16798-6.70338,1.45733-.53651.46533-2.30993,2.23937-3.08294,3.7044-.0287.0574.006.12817.008.19225z" fill="#a40" fill-rule="evenodd"/>
<path d="m356.99829,400.47851c-.47169-1.14115.62989-1.58465.81765-2.53472 .0684.32169.19373.14211-.46676,1.75049-.0668.16278-.0608.54618-.14647.74335-.0491.0491-.13628.0273-.20442.0409z" fill="#fca" fill-rule="evenodd"/>
<path d="m356.27873,408.34648c.49372.0338.9704.0225 1.22495-.43749" fill="none" stroke="#000" stroke-width=".17182"/>
<path d="m349.31357,403.34511c-1.42895-1.11151-3.49098-1.42667-5.18187-.71124 .55472-1.31788 4.97879-1.3545 5.18187.71124z" fill="#fca" fill-rule="evenodd"/>
<path d="m337.11703,400.53066c-6.05229,2.74782-14.85018,4.05267-18.06729-4.32909-.66551-3.7149-.41663-7.63446 3.5321-9.23529 4.19937-1.13097 7.48089,4.30989 2.28633,5.4785 1.10554-.75361 1.49881-1.71449 1.20891-2.59545-.47188-1.23675-1.6528-1.58437-2.85379-1.32561-1.96326.57195-2.45845,2.75909-1.87583,4.84976 3.01621,6.37918 8.99192,3.55165 13.77185.86194l1.61969-.92359c-1.53542,1.74989-2.95134,2.87387-4.5135,3.69164 1.01748.47503 3.55276-.15635 2.79926.0737-2.36779,2.16199-7.24478,2.45546-10.75285.93231-3.27223-1.42074-5.5744-4.86404-3.31713-9.40376-4.60278,4.30564-.38951,12.60578 5.16995,13.50953 3.4318.55787 7.994-.97589 10.81531-2.16516 .37541-.15016.19539.43026.17699.5806z" fill="#fea" fill-rule="evenodd"/>
<path d="m351.74715,385.32578c-.87453-.21863-.99744-.19875 0-.19875 3.43655.7966 4.64969,2.38914 6.35996,4.2731 .17108-.76604-1.05853-2.61844-1.63279-3.04884 1.29021.29299 1.78303,1.63798 2.2917,2.7048 .27931-1.75712-.79638-4.65313-1.18245-5.21795 1.6714.83935 2.06214,3.3678 2.06301,6.80382 1.35311-1.2026 3.75226-.98414 5.03388-.17234-.91017-.10188-3.25849-.16723-4.36182.66065 2.77468.72542 7.34279,3.80758 7.70064,9.08443-.38753-2.45467-4.82693-8.40897-7.22039-7.85795 1.27826.55589 4.12442,2.87499 4.36423,5.87699-1.98042-4.17126-5.31329-5.87308-6.57132-5.95751-.12689-2.45097-4.29037-6.39739-6.84465-6.95045zm7.05783-1.54356c.91862,1.30092 1.19854,3.25695 1.13397,4.80845 .0601.30057.46959-.67203.6195-.88619-.20955-1.78466-.96394-3.54253-1.75347-3.92226zm.66568-2.94106c1.0316.52102 1.50977,1.65447 1.72271,2.77478 .15778-.23367.19701-2.13651-.17904-2.89713 .58795.15329.8836,1.15683.92899,1.77219 .61122-.43173 1.42648-.48811 2.39986-.14999-.70696.0713-1.59794.0802-2.17487.52497-.20461.1637-.29998.44856-.29998.71247v.71245c0,.15386.008.24191.0368.29102 .31026-.14727 2.39856-.26373 2.81306,1.00942-.42123-.27-3.2437-1.07021-3.73337.29621-.1584-1.91893-.95621-4.21239-1.51413-5.04639z" fill="#fea" fill-rule="evenodd"/>
<path d="m368.15389,384.69934c.18785.29574.37839.59121.54768.89668 .22403.40427.43107.81573.62284,1.23496s.36641.84606.5262,1.27791 .30146.86803.42955,1.31013 .2416.89233.33827,1.34234 .17609.90291.24162,1.35845 .11566.91046.15034,1.36919 .055.92036.0591,1.37993-.006.91652-.0322,1.37456-.0673.91503-.12349,1.36918-.12887.90517-.21478,1.35309-.18534.89228-.30068,1.3316-.2421.87638-.3866,1.30476-.30449.8521-.47787,1.26717-.36181.81944-.56379,1.21885-.41941.7945-.64969,1.17588-.47192.75046-.73023,1.11147-.53546.70875-.82152,1.04703-.58316.66941-.89668.98259-.64189.61094-.9826.89668-.69553.55484-1.06313.81078-.74946.50108-1.14368.72487-.79829.42821-1.21885.61747-.85278.36306-1.29938.51546c-.18764.064-.3877.10923-.5799.16645 3.02142-2.033 7.89861-6.33681 8.40307-10.09978 .20078.14383.67119.60966.19867,2.1209 2.81243-4.08112 1.47589-9.25395-1.6323-12.83816 1.11407.39578 1.73661,1.07305 2.5075,1.90075 .70493-2.68787-.96087-6.51617-3.21088-7.4849 .50473-.0917 1.35715.0287 2.30346.68728 .17557-.92219-1.0951-2.29037-.99334-2.25514 .30062.0241.64675.25342.99334.53157z" fill="#fea" fill-rule="evenodd"/>
<path d="m294.16934,397.40327c-.13191-.17678-.24755-.3499-.41344-.53157 .34477-.11395.68778-.18379 1.02018-.21477s.65654-.0249.97186.0161 .61929.11815.91279.22015 .57604.22922.84299.38122c.24758.15455.4782.31604.68728.48325s.39699.34243.56915.52083 .32493.35955.46177.54767 .25664.38351.35975.57989 .19213.3982.26309.60137 .12605.40897.16646.61748 .0637.41584.0752.62821 .0106.42956-.005.64433c-.0319.42954-.11519.86367-.24699,1.29402s-.31254.8531-.53156,1.27254-.47968.83279-.77319,1.22959-.62194.78123-.97723,1.14367c-.25735.22914-.52523.44618-.81077.64969s-.58606.3913-.89669.56916-.63387.34181-.96649.49398-.67405.29237-1.02555.41881-.71196.24297-1.07924.34364-.74224.18823-1.1222.2631c-.7599.14974-1.54369.24363-2.33567.28995-.64867.0181-1.28206.0104-1.90613-.0268s-1.23865-.10261-1.83632-.1933-1.18093-.20676-1.75042-.34901-1.125-.30745-1.6645-.49935-1.0655-.41003-1.57323-.6497-.99705-.50377-1.47121-.78929-.93039-.59405-1.36919-.92353-.86017-.68085-1.2618-1.0524-.78637-.76418-1.14904-1.17589-.70363-.83867-1.02555-1.28865c-.039-.0546-.069-.11672-.10739-.17182 3.17564,3.69691 6.76791,4.91744 8.50508,5.14923-3.73095-2.11364-5.53494-4.56504-5.62173-9.71319 0-.748.28995-1.7337.28995-.38123 .33311,7.52681 10.23156,10.97823 10.89445,10.728-.0874.0195-1.08659-.41144-1.79085-.79902-2.51313-1.55611-4.16549-4.26572-5.15712-6.97583-.66769-2.89503-.18846-5.96652 3.47399-5.37474-2.78175-.10478-4.00248,2.06266-3.2968,4.89687 .40494,1.60398 1.34081,3.34668 2.59829,4.81456 1.83295,2.21811 4.31475,3.51836 7.22461,3.23607 2.1069-.55148 4.01546-1.71491 5.40362-3.39304 1.79595-2.45928 1.79554-5.81117-2.5548-7.53021z" fill="#fea" fill-rule="evenodd"/>
<path d="m116.03191,56.9158c2.17953-.37522 5.27511-.11057 7.86052-.5879 4.50648-.83202 9.22927-.007 12.1899.99969 4.73758-3.03143 7.21937-2.85296 11.16847-3.1247l3.08971,3.31578-34.06211,6.40549c-.14834-1.93763-1.22177-5.07544-.24649-7.00835z" fill="url(#radialGradient6590)" transform="translate(218.17146,366.73945)"/>
<path d="m2139.3204-2158.7487c-.9656.1699-1.9357.3379-2.8998.5009-.2646-.3149-.5498-.6573-.9281-.8331-.321-.07-.8244.1984-.6469.5786 .078.1598.1976.3309.2491.4835-.5641.093-1.0712-.219-1.6073-.3536-.3626-.1149-.7052-.2688-1.0674-.3629-.2068-.085-.554-.1883-.6978.06-.1262.3825-.2641.7628-.3992,1.1398-.022.1691-.2845.092-.4115.1467-.7903.1047-1.7074.2893-2.1532,1.0299-.1636.2152-.2408.4881-.3417.7253-.354.2105-.4929.8244-.1111,1.0795 .4246.3404 1.0264.2046 1.488.025 .1691-.025.3412-.015.5116-.017 .043.8767.7491,1.7405 1.6461,1.8162 .447.03.9198.01 1.2952-.2652 .4757-.2902.8021-.7986.892-1.3461 .2138.2209.5731.077.8489.1352 2.9527.09 5.9063.1769 8.8588.2586 .1458.038.2483-.2409.3361-.07 .2544.696.9005,1.2478 1.6461,1.3193 .7686.071 1.5435-.3397 1.8979-1.0273 .041-.2236.2175-.2508.4191-.2141 .7588-.01 1.5694.2341 2.2851-.1221 .5286-.2111.6432-.9392.2906-1.3554-.088-.119-.1974-.2256-.3255-.3001 .3548-.9266.6498-1.9947.2666-2.96-.3986-.9191-1.4742-1.3281-2.4202-1.2965-1.1066-.053-2.2.1326-3.2909.288-1.7791.3289-3.6311.575-5.6306.9369z" filter="url(#filter4811)" opacity=".7407" transform="matrix(12.41516,0,0,12.41516,-26193.662,27226.819)"/>
<g transform="matrix(12.38481,.86758,-.86758,12.38481,-28061.994,25293.572)">
<path d="m2140.2442-2157.2282-3.2503-.7989c0,.059.02.1114-.052.2139 .013.067.023.1353-.054.2248 .01.08.034.1635-.069.2215 0,.068.031.134-.052.2133 .025.071.02.1346-.057.1827 .01.094 0,.1809-.06.2521 .035.095-.017.1786-.071.2624z"/>
<path d="m2136.9392-2157.8166 .1019.062 2.6404.6413 .074-.019-2.6551-.6753z" fill="#666"/>
<path d="m2136.8777-2157.6 .1019.062 2.2812.5171 .066-.019-2.2882-.551z" fill="#666"/>
<path d="m2136.8177-2157.3686 .1019.062 1.828.392 .085-.019-1.8543-.426z" fill="#4d4d4d"/>
<path d="m2136.757-2157.1496 .1019.062 1.367.2839 .082-.019-1.3894-.3179z" fill="#4d4d4d"/>
<path d="m2136.71-2156.959 .1019.062 .9004.1952 .097-.015-.9385-.2332z" fill="#4d4d4d"/>
<path d="m2136.6467-2156.7305 .1019.062 .4714.074 .097-.023-.5094-.1036z" fill="#4d4d4d"/>
<path d="m2136.9873-2158.0314 .1019.062 3.1418.7398 .058-.012-3.1409-.7777z" fill="#666"/>
</g>
<path d="m320.34584,433.72602c0,0-1.4575-6.15171-4.8443-10.54295-.745-.95597-.9933-2.65436.2979-3.62399 .8939-.67042 2.9263-1.62514 2.9263-1.62514 1.4103-.62076 2.8666.45936 4.061,1.21668 4.5687,2.89398 10.8533,12.06009 10.8533,12.06009z" fill="url(#linearGradient3248)"/>
<path d="m320.93684,433.82782c0,0-2.7375-7.59807-5.0107-10.47715-.5091-.62076-.6705-1.74185.1986-2.3775 .5959-.43453 1.9579-1.0677 1.9579-1.0677 .9435-.4097 1.9467.26071 2.7176.79457 3.9605,2.7574 8.5417,11.56968 8.5417,11.56968z" fill="url(#linearGradient3245)"/>
<path d="m378.60644,414.50437c-1.018-.45936-2.7449-1.10495-3.4787.58351-.7325,1.6835.5835,2.87411 1.7878,3.44273l9.3511,4.22363c1.8821.84423 3.141,1.08012 3.8487-.48419 .7077-1.56679-.6704-2.67174-1.9864-3.23787-.1242-.12415-7.2132-3.46755-9.5212-4.52657z" fill="url(#radialGradient3242)"/>
<path d="m369.10954,424.49135c-.4594,1.01804-1.105,2.74499.5835,3.47872 1.6835.7325 2.8741-.58351 3.4427-1.78778l7.6415-16.02418c.8443-1.88213 1.0801-3.14103-.4842-3.84869-1.5668-.70767-2.6717.67041-3.2378,1.98642-.1242.12415-6.8855,13.88629-7.9445,16.19426z" fill="url(#radialGradient3239)"/>
<path d="m235.18904,469.53381 258.4377,8.7291c0,0 52.3572-80.92572-31.9393-70.56651-61.2054,7.52234-115.785,20.55453-202.6824,32.40232-27.949,3.81021-23.816,29.43509-23.816,29.43509z" fill="url(#radialGradient3236)"/>
<path class="fil39" d="m340.70123,436.33809c8.94569-4.0968 23.1592-7.81412 28.78546-15.03079 2.1098.59604 3.2143.46969 5.4058.53166 1.3858.0391 2.5619-.42642 3.6289-1.31158 .7156-.59367 1.3164-1.48545 1.1395-2.39831-.2221-1.14529-.7378-1.30218-1.4348-2.23761-.4245.99913-1.0228,2.24167-1.9611,2.33246-1.2739.12318-2.2567.10129-2.5949-1.40174-.1692-.75235.1954-1.57196.5257-2.28733-1.2473.73373-3.1695,1.14401-4.295,2.05349-.722.58336-1.1372,1.46739-1.7058,2.20103-6.3648,5.92464-19.0009,7.50751-25.6873,11.50242-3.1732-3.72352.94242-6.80403-1.16698-10.03693s-5.80695-.62412-5.91985,3.21098-.005,8.00758 2.18203,12.45105c.70718,2.01149 1.64902,1.1061 3.09834.4212z" fill-rule="evenodd" filter="url(#filter6641)" opacity=".4609"/>
<path d="m235.44174,469.46269 257.8874,8.87311 6.0107-10.01779-264.4703-3.57767z" fill="url(#radialGradient3233)" opacity=".2469"/>
<path d="m314.42014,431.93327c0,0-1.9343,12.10354.9808,16.41035 3.0554,4.5154 9.6863,7.93701 15.0496,8.90912 13.8976,2.52152 35.5844,6.31187 44.6921-4.48435 6.3603-7.53973-4.539-30.35506-4.539-30.35506" fill="none" opacity=".5473" stroke="#680101" stroke-width="2.48303"/>
<path d="m-13316.103-8764.2451c0,100.8725-87.224,182.6459-194.822,182.6459s-194.822-81.7734-194.822-182.6459 87.225-182.6459 194.822-182.6459 194.822,81.7733 194.822,182.6459z" fill="url(#radialGradient6609)" transform="matrix(.11179,.00844,-.00901,.11924,1883.30489,1630.67395)"/>
<path d="m-13316.103-8764.2451c0,100.8725-87.224,182.6459-194.822,182.6459s-194.822-81.7734-194.822-182.6459 87.225-182.6459 194.822-182.6459 194.822,81.7733 194.822,182.6459z" fill="url(#radialGradient6612)" transform="matrix(.08104,.00612,-.00653,.08645,1489.67613,1311.91852)"/>
<path d="m-13316.103-8764.2451c0,100.8725-87.224,182.6459-194.822,182.6459s-194.822-81.7734-194.822-182.6459 87.225-182.6459 194.822-182.6459 194.822,81.7733 194.822,182.6459z" fill="url(#radialGradient6614)" transform="matrix(.05028,.0038,-.00405,.05363,1095.76182,992.93216)"/>
<path d="m317.54624,436.692 16.0628-2.7512c0,0-9.2282,5.15726-12.5691,5.10263-2.1566,0-3.4937-2.35143-3.4937-2.35143z" fill="#5a0101" opacity=".5144"/>
<path d="m-13316.103-8764.2451c0,100.8725-87.224,182.6459-194.822,182.6459s-194.822-81.7734-194.822-182.6459 87.225-182.6459 194.822-182.6459 194.822,81.7733 194.822,182.6459z" fill="url(#radialGradient6609)" transform="matrix(.11179,.00844,-.00901,.11924,1712.12289,1630.56495)"/>
<path d="m-13316.103-8764.2451c0,100.8725-87.224,182.6459-194.822,182.6459s-194.822-81.7734-194.822-182.6459 87.225-182.6459 194.822-182.6459 194.822,81.7733 194.822,182.6459z" fill="url(#radialGradient6612)" transform="matrix(.08104,.00612,-.00653,.08645,1318.49413,1311.80952)"/>
<path d="m-13316.103-8764.2451c0,100.8725-87.224,182.6459-194.822,182.6459s-194.822-81.7734-194.822-182.6459 87.225-182.6459 194.822-182.6459 194.822,81.7733 194.822,182.6459z" fill="url(#radialGradient6614)" transform="matrix(.05028,.0038,-.00405,.05363,924.57982,992.82316)"/>
<g transform="matrix(12.41516,0,0,12.41516,-26269.18,27209.331)">
<path d="m2147.047-2157.2245 5.5174-.6417c0,0-2.9886.822-4.1679.876-.761.035-1.3495-.2343-1.3495-.2343z" fill="#4c0101"/>
<path d="m2147.6398-2157.1817 3.9533-.5019c0,0-2.8414.5812-3.3599.605-.3347.015-.5934-.1031-.5934-.1031z" filter="url(#filter4103)" opacity=".3992"/>
</g>
<g transform="matrix(12.41516,0,0,12.41516,-26265.633,27217.789)">
<path d="m2147.047-2157.2245 5.5174-.6417c0,0-2.9886.822-4.1679.876-.761.035-1.3495-.2343-1.3495-.2343z" fill="#4c0101"/>
<path d="m2147.6398-2157.1817 3.9533-.5019c0,0-2.8414.5812-3.3599.605-.3347.015-.5934-.1031-.5934-.1031z" filter="url(#filter4103)" opacity=".3992"/>
</g>
<g transform="matrix(12.41516,0,0,12.41516,-26265.36,27226.247)">
<path d="m2147.047-2157.2245 5.5174-.6417c0,0-2.9886.822-4.1679.876-.761.035-1.3495-.2343-1.3495-.2343z" fill="#4c0101"/>
<path d="m2147.6398-2157.1817 3.9533-.5019c0,0-2.8414.5812-3.3599.605-.3347.015-.5934-.1031-.5934-.1031z" filter="url(#filter4103)" opacity=".3992"/>
</g>
<g transform="matrix(12.41516,0,0,12.41516,-26269.18,27209.331)">
<path d="m2156.865-2157.128c-.2133-.9716-1.1989-1.6637-1.1306-1.1341 0,0 .018.2908.3308.6301 .2816.3154.8977.9501.7998.504z" fill="#960101" filter="url(#filter4189)" opacity=".6049"/>
<path d="m2156.8504-2157.1585c-.202-.9206-1.1358-1.5763-1.0711-1.0745 0,0 .017.2754.3134.5969 .2668.2988.8505.9002.7577.4776z" fill="url(#radialGradient6622)"/>
<path d="m2156.6778-2157.3373c-.1365-.622-.7674-1.0651-.7237-.726 0,0 .012.1861.2117.4033 .1803.2019.5747.6083.512.3227z" fill="url(#radialGradient6624)"/>
</g>
<path d="m2156.865-2157.128c-.2133-.9716-1.1989-1.6637-1.1306-1.1341 0,0 .018.2908.3308.6301 .2816.3154.8977.9501.7998.504z" fill="#960101" filter="url(#filter4189)" opacity=".6049" transform="matrix(-6.94507,.40308,.40308,6.94507,16085.861,14569.578)"/>
<path d="m236.86634,457.3514c1.0318-6.47505 7.2528-11.40534 7.0057-7.89422 0,0-.01,1.91953-1.936,4.27184-1.7325,2.18273-5.5439,6.59477-5.0697,3.62238z" fill="url(#radialGradient3206)"/>
<path d="m237.99294,456.04005c.6973-4.37485 4.9003-7.70652 4.7335-5.33383 0,0-.01,1.29731-1.3077,2.88628-1.1708,1.47488-3.7461,4.45634-3.4258,2.44755z" fill="url(#radialGradient3203)"/>
<path d="m490.02144,468.50089c-9.3305-.41094-5.439,8.89546-3.373,9.50554 15.7365,2.95183 25.3638-2.63537 24.2464-9.77545-1.2253-7.44177-7.7336-11.48302-8.6335-6.53769-1.3484,3.44371-1.3687,4.04473-3.6542,5.18742-2.5598,1.27988-8.5857,1.63607-8.5857,1.61993z" fill="url(#radialGradient3200)"/>
<path d="m245.43404,465.19968c6.2449-1.0677 5.5757,5.10139 3.0877,6.10826-10.3381,3.33968-17.2981.4097-17.1602-4.49305 .1862-5.1138 4.2186-8.39512 5.2491-5.14359 1.2043,2.2012 1.2713,2.60345 2.9051,3.17703 1.8325.64559 5.9196.36004 5.9171.34763z" fill="url(#radialGradient3197)"/>
<path d="m2138.2261-2155.7789c-.9293.1292-1.6689.9696-1.7422,2.0313v.062l.3999.031c.067-.9688.8566-1.6981 1.742-1.625 .8553.071 1.4737.8544 1.4566,1.7813l.4284.031c.052-1.188-.7659-2.2224-1.8563-2.3125-.1387-.012-.2958-.019-.4284,0z" filter="url(#filter4103)" transform="matrix(12.18644,0,0,11.04461,-25780.521,24256.095)"/>
<path d="m276.59984,443.58489c-12.6225,1.60404-22.6701,12.03774-23.6658,25.21891v.76974l5.4317.38487c.9063-12.0278 11.6379-21.08218 23.6657-20.17463 11.6181.88148 20.0195,10.60751 19.7873,22.11512l5.819.38487c.7201-14.74921-10.4039-27.59144-25.2177-28.71005-1.8834-.14898-4.0175-.23589-5.8202,0z" fill="url(#radialGradient3193)"/>
<path d="m2152.137-2155.71c-.9385.1204-1.7107.9042-1.7844,1.8942-.017.2401.028.4796.087.6993h.4029c-.067-.2019-.1031-.4444-.087-.6702 .067-.9034.8633-1.5836 1.7556-1.5153s1.5639.8742 1.4965,1.7776c-.014.1927-.071.3574-.1438.5245h.4317c.052-.1578.1021-.3219.1151-.4954 .085-1.1315-.7533-2.1292-1.8707-2.2147-.1398-.011-.269-.017-.403,0z" filter="url(#filter4103)" opacity=".8354" transform="matrix(12.10266,0,0,11.66213,-25596.886,25586.016)"/>
<path d="m449.61744,441.57736c-12.651,1.6028-23.0599,12.03774-24.0543,25.21891-.2359,3.1969.3724,6.38512 1.167,9.31137h5.4316c-.9063-2.68912-1.3905-5.91706-1.167-8.92402 .9063-12.0278 11.638-21.08341 23.6658-20.17463s21.0834,11.63921 20.1746,23.66702c-.1986,2.56621-.956,4.75873-1.9393,6.98352h5.819c.7077-2.10064 1.3769-4.28571 1.5519-6.59617 1.1422-15.06455-10.1543-28.34877-25.2176-29.486-1.8834-.14898-3.6253-.22347-5.4317,0z" fill="url(#radialGradient3189)"/>
<path d="m309.05095,468.37798v3.01067l-2.4633,2.73705 120.9743,3.55806-1.9159-1.91591-1.6422-4.65283z" fill="url(#linearGradient3186)"/>
<path d="m319.48674,436.9701 10.3021-1.64998c0,0-6.8246,2.87411-8.5242,2.8468-1.0926,0-1.7779-1.19186-1.7779-1.19186z" opacity=".3004"/>
<path d="m271.08004,438.66104c0,0-2.4892,2.76238-4.061,3.70469-5.8041,3.47748-13.5164,4.65568-19.1355,6.77122-3.4638,1.30484-3.4203-3.17828-3.4203-3.17828" fill="none" opacity=".2346" stroke="#680101" stroke-width=".85653"/>
<g transform="matrix(.45467,0,0,.45467,201.44588,225.47147)">
<path d="m365.18324,425.88565-1.91259-.59294-.0271-2.00223 1.89584-.6445 1.19882,1.6039-1.15495,1.63577z" fill="url(#radialGradient7814)" opacity=".858"/>
<path d="m364.99466,425.03476-1.19988-.37201-.0173-1.25612 1.1894-.40433 .75207,1.00623-.72457,1.02623z" fill="url(#linearGradient7816)" opacity=".65"/>
<path d="m363.88498,424.58272-.0152-1.13925 1.07872-.36671 .68212.91261c-.41546.26016-.49553.00019-.89781-.0219s-.59934.3273-.84786.61517z" fill="url(#linearGradient7818)" opacity=".65"/>
<path d="m363.30537,423.33442 .44386.0969 .009,1.23234-.43447.52082c-.0137-.41148-.0174-1.76786-.0184-1.85009z" fill="url(#linearGradient7820)" opacity=".65"/>
<path d="m365.14341,422.7381-.10705.23017 .74051,1.02514 .45923.20118z" fill="url(#linearGradient7822)" opacity=".6502"/>
<path d="m364.23542,425.56435-.9372-.29241c-.003-.002-.0289-1.86071-.0273-1.92578l.00092-.0387 .92775-.31547c.8661-.2945.92816-.31503.93418-.30892l1.08818,1.45469 .0836.11222-.56317.79794-.56766.80222c-.003.003-.25515-.0735-.93932-.28576zm.85464.23362c-.00057-.0271-.0811-.71259-.084-.71529-.005-.005-1.2245-.37613-1.23056-.37473s-.44059.54598-.43808.54849l1.74791.54809c.003.00015.005-.003.005-.007zm.62123-.75924 .53998-.75528c.002-.004-.0619-.0357-.24185-.12091l-.24748-.11275-.3398.49135-.34813.5039-.0111.0156 .0527.36046 .0527.36426 .003.004 .54004-.75032zm-2.16786-.11478 .21531-.25781-.003-.4961c-.002-.27285-.004-.55132-.005-.61882l-.002-.12273-.20898-.0457-.22233-.0486-.0134-.003 .003.52096c.004.80115.0116,1.33311.0185,1.33067l.21847-.25893zm1.81306-.39922 .36181-.51501c.00091-.004-.73008-.98691-.7471-1.00497-.004-.004-.11223.0314-.59819.19653l-.59567.20435c-.003.003.0145,1.25444.0173,1.25726l1.19661.37202 .36523-.51018zm.87926-.33418-.54393-.72559-.54476-.72572c-.004-.004-.016.0192-.0586.111-.0498.10717-.0535.11671-.0486.12488s.16958.23617.37027.51402l.36487.50518 .22888.10043c.12588.0552.23041.10049.23228.10056s.002-.002-.00042-.005zm-1.87079-1.02188 .61655-.222 .0625-.1122 .0612-.11349-.7338.24056-.88801.29289-.15306.0536 .20833.0422 .20774.04 .61852-.22161z" fill="#dce4ff" filter="url(#filter4103)" opacity=".5062"/>
<path d="m365.10475,422.72239-.12417.22324-1.2309.44307-.42155-.08z" fill="url(#linearGradient7824)" opacity=".6626"/>
<path d="m363.8034,424.71614 1.23267.37608 .0816.7211-1.75123-.54868z" fill="url(#linearGradient7826)" opacity=".65"/>
<path d="m365.76512,424.04976-.69981,1.01263 .10613.72688 1.0808-1.509z" fill="url(#linearGradient7828)" opacity=".65"/>
</g>
<g transform="matrix(.45467,0,0,.45467,203.38171,227.44476)">
<path d="m365.18324,425.88565-1.91259-.59294-.0271-2.00223 1.89584-.6445 1.19882,1.6039-1.15495,1.63577z" fill="url(#radialGradient7814)" opacity=".858"/>
<path d="m364.99466,425.03476-1.19988-.37201-.0173-1.25612 1.1894-.40433 .75207,1.00623-.72457,1.02623z" fill="url(#linearGradient7816)" opacity=".65"/>
<path d="m363.88498,424.58272-.0152-1.13925 1.07872-.36671 .68212.91261c-.41546.26016-.49553.00019-.89781-.0219s-.59934.3273-.84786.61517z" fill="url(#linearGradient7818)" opacity=".65"/>
<path d="m363.30537,423.33442 .44386.0969 .009,1.23234-.43447.52082c-.0137-.41148-.0174-1.76786-.0184-1.85009z" fill="url(#linearGradient7820)" opacity=".65"/>
<path d="m365.14341,422.7381-.10705.23017 .74051,1.02514 .45923.20118z" fill="url(#linearGradient7822)" opacity=".6502"/>
<path d="m364.23542,425.56435-.9372-.29241c-.003-.002-.0289-1.86071-.0273-1.92578l.00092-.0387 .92775-.31547c.8661-.2945.92816-.31503.93418-.30892l1.08818,1.45469 .0836.11222-.56317.79794-.56766.80222c-.003.003-.25515-.0735-.93932-.28576zm.85464.23362c-.00057-.0271-.0811-.71259-.084-.71529-.005-.005-1.2245-.37613-1.23056-.37473s-.44059.54598-.43808.54849l1.74791.54809c.003.00015.005-.003.005-.007zm.62123-.75924 .53998-.75528c.002-.004-.0619-.0357-.24185-.12091l-.24748-.11275-.3398.49135-.34813.5039-.0111.0156 .0527.36046 .0527.36426 .003.004 .54004-.75032zm-2.16786-.11478 .21531-.25781-.003-.4961c-.002-.27285-.004-.55132-.005-.61882l-.002-.12273-.20898-.0457-.22233-.0486-.0134-.003 .003.52096c.004.80115.0116,1.33311.0185,1.33067l.21847-.25893zm1.81306-.39922 .36181-.51501c.00091-.004-.73008-.98691-.7471-1.00497-.004-.004-.11223.0314-.59819.19653l-.59567.20435c-.003.003.0145,1.25444.0173,1.25726l1.19661.37202 .36523-.51018zm.87926-.33418-.54393-.72559-.54476-.72572c-.004-.004-.016.0192-.0586.111-.0498.10717-.0535.11671-.0486.12488s.16958.23617.37027.51402l.36487.50518 .22888.10043c.12588.0552.23041.10049.23228.10056s.002-.002-.00042-.005zm-1.87079-1.02188 .61655-.222 .0625-.1122 .0612-.11349-.7338.24056-.88801.29289-.15306.0536 .20833.0422 .20774.04 .61852-.22161z" fill="#dce4ff" filter="url(#filter4103)" opacity=".5062"/>
<path d="m365.10475,422.72239-.12417.22324-1.2309.44307-.42155-.08z" fill="url(#linearGradient7824)" opacity=".6626"/>
<path d="m363.8034,424.71614 1.23267.37608 .0816.7211-1.75123-.54868z" fill="url(#linearGradient7826)" opacity=".65"/>
<path d="m365.76512,424.04976-.69981,1.01263 .10613.72688 1.0808-1.509z" fill="url(#linearGradient7828)" opacity=".65"/>
</g>
<path class="fil39" d="m341.01388,435.09477c8.94569-4.0968 23.1592-7.81412 28.78546-15.03079 2.1098.59604 3.2143.46969 5.4058.53166 1.3858.0391 2.5619-.42642 3.6289-1.31158 .7156-.59367 1.3164-1.48545 1.1395-2.39831-.2221-1.14529-.7378-1.30218-1.4348-2.23761-.4245.99913-1.0228,2.24167-1.9611,2.33246-1.2739.12318-2.2567.10129-2.5949-1.40174-.1692-.75235.1954-1.57196.5257-2.28733-1.2473.73373-3.1695,1.14401-4.295,2.05349-.722.58336-1.1372,1.46739-1.7058,2.20103-6.3648,5.92464-19.0009,7.50751-25.6873,11.50242-3.1732-3.72352.94242-6.80403-1.16698-10.03693s-5.80695-.62412-5.91985,3.21098-.005,8.00758 2.18203,12.45105c.70718,2.01149 1.64902,1.1061 3.09834.4212z" fill="#feb27f" fill-rule="evenodd"/>
<g transform="matrix(.9789,.20433,-.20433,.9789,66.05514,-30.16323)">
<path d="m375.36859,368.80655 1.00163-2.00326c5.26017,2.31588 15.17997,4.95927 12.1906-3.59122 6.88529,1.34281 3.27714,8.35014.31211,9.11288-2.68042.68953-5.89642,1.74942-13.50434-3.5184z" fill="#a80"/>
<path d="m376.97317,366.27678c2.84901,1.51236 6.64066,3.13373 9.76353,1.86622 4.6693-2.07794-.13283-6.14064-1.49551-2.19207-.85536-2.67601 1.88921-3.18813 3.24391-3.09981 1.76767.11525 3.27623,1.32551 3.97207,3.00569 1.62581,4.27132-2.92521,7.66278-6.90375,7.41089-3.77261-.32278-7.1739-2.05358-10.12126-4.38677l2.39716,1.27387 .0974.0195c1.09208.59769 2.19257,1.17388 3.3293,1.71332 .88323.4309 1.86923.71137 2.87925.8353 3.79096.46516 7.9204-1.27501 8.22486-5.54435-.007-.4602-.085-.92139-.24008-1.36546-.79793-1.54092-1.91676-2.48333-3.69922-2.45317 1.70033.0281 3.2198,2.52758 2.52324,4.56429-.74873,1.35903-1.71399,2.15117-2.80419,2.53889-3.72923,1.32626-8.92034-2.07973-11.90701-3.71548 .27556.22511 1.74628.38965.74035-.47084z" fill="#fea" fill-rule="evenodd"/>
</g>
<g transform="matrix(.70312,0,0,.70312,96.35841,213.70632)">
<path d="m357.42593,289.88313-1.91259-.59294-.0271-2.00223 1.89584-.6445 1.19882,1.6039-1.15495,1.63577z" fill="url(#radialGradient7497)" opacity=".858"/>
<path d="m357.23735,289.03224-1.19988-.37201-.0173-1.25612 1.1894-.40433 .75207,1.00623-.72457,1.02623z" fill="url(#linearGradient7499)" opacity=".65"/>
<path d="m356.10465,288.59171-.0152-1.13925 1.07872-.36671 .68212.91261c-.41546.26016-.49553.00019-.89781-.0219s-.59934.3273-.84786.61517z" fill="url(#linearGradient7501)" opacity=".65"/>
<path d="m355.54806,287.3319 .44386.0969 .009,1.23234-.43447.52082c-.0137-.41148-.0174-1.76786-.0184-1.85009z" fill="url(#linearGradient7503)" opacity=".65"/>
<path d="m357.3861,286.73558-.10705.23017 .74051,1.02514 .45923.20118z" fill="url(#linearGradient7505)" opacity=".6502"/>
<path d="m356.47811,289.56183-.9372-.29241c-.003-.002-.0289-1.86071-.0273-1.92578l.00092-.0387 .92775-.31547c.8661-.2945.92816-.31503.93418-.30892l1.08818,1.45469 .0836.11222-.56317.79794-.56766.80222c-.003.003-.25515-.0735-.93932-.28576zm.85464.23362c-.00057-.0271-.0811-.71259-.084-.71529-.005-.005-1.2245-.37613-1.23056-.37473s-.44059.54598-.43808.54849l1.74791.54809c.003.00015.005-.003.005-.007zm.62123-.75924 .53998-.75528c.002-.004-.0619-.0357-.24185-.12091l-.24748-.11275-.3398.49135-.34813.5039-.0111.0156 .0527.36046 .0527.36426 .003.004 .54004-.75032zm-2.16786-.11478 .21531-.25781-.003-.4961c-.002-.27285-.004-.55132-.005-.61882l-.002-.12273-.20898-.0457-.22233-.0486-.0134-.003 .003.52096c.004.80115.0116,1.33311.0185,1.33067l.21847-.25893zm1.81306-.39922 .36181-.51501c.00091-.004-.73008-.98691-.7471-1.00497-.004-.004-.11223.0314-.59819.19653l-.59567.20435c-.003.003.0145,1.25444.0173,1.25726l1.19661.37202 .36523-.51018zm.87926-.33418-.54393-.72559-.54476-.72572c-.004-.004-.016.0192-.0586.111-.0498.10717-.0535.11671-.0486.12488s.16958.23617.37027.51402l.36487.50518 .22888.10043c.12588.0552.23041.10049.23228.10056s.002-.002-.00042-.005zm-1.87079-1.02188 .61655-.222 .0625-.1122 .0612-.11349-.7338.24056-.88801.29289-.15306.0536 .20833.0422 .20774.04 .61852-.22161z" fill="#ffe1ff" filter="url(#filter4103)" opacity=".5062"/>
<path d="m357.34744,286.71987-.12417.22324-1.2309.44307-.42155-.08z" fill="url(#linearGradient7507)" opacity=".6626"/>
<path d="m356.01782,288.70525 1.23267.37608 .0816.7211-1.75123-.54868z" fill="url(#linearGradient7509)" opacity=".65"/>
<path d="m358.00781,288.04724-.69981,1.01263 .10613.72688 1.0808-1.509z" fill="url(#linearGradient7511)" opacity=".65"/>
</g>
<g transform="matrix(.70312,0,0,.70312,100.34198,215.68677)">
<path d="m357.42593,289.88313-1.91259-.59294-.0271-2.00223 1.89584-.6445 1.19882,1.6039-1.15495,1.63577z" fill="url(#radialGradient7497)" opacity=".858"/>
<path d="m357.23735,289.03224-1.19988-.37201-.0173-1.25612 1.1894-.40433 .75207,1.00623-.72457,1.02623z" fill="url(#linearGradient7499)" opacity=".65"/>
<path d="m356.10465,288.59171-.0152-1.13925 1.07872-.36671 .68212.91261c-.41546.26016-.49553.00019-.89781-.0219s-.59934.3273-.84786.61517z" fill="url(#linearGradient7501)" opacity=".65"/>
<path d="m355.54806,287.3319 .44386.0969 .009,1.23234-.43447.52082c-.0137-.41148-.0174-1.76786-.0184-1.85009z" fill="url(#linearGradient7503)" opacity=".65"/>
<path d="m357.3861,286.73558-.10705.23017 .74051,1.02514 .45923.20118z" fill="url(#linearGradient7505)" opacity=".6502"/>
<path d="m356.47811,289.56183-.9372-.29241c-.003-.002-.0289-1.86071-.0273-1.92578l.00092-.0387 .92775-.31547c.8661-.2945.92816-.31503.93418-.30892l1.08818,1.45469 .0836.11222-.56317.79794-.56766.80222c-.003.003-.25515-.0735-.93932-.28576zm.85464.23362c-.00057-.0271-.0811-.71259-.084-.71529-.005-.005-1.2245-.37613-1.23056-.37473s-.44059.54598-.43808.54849l1.74791.54809c.003.00015.005-.003.005-.007zm.62123-.75924 .53998-.75528c.002-.004-.0619-.0357-.24185-.12091l-.24748-.11275-.3398.49135-.34813.5039-.0111.0156 .0527.36046 .0527.36426 .003.004 .54004-.75032zm-2.16786-.11478 .21531-.25781-.003-.4961c-.002-.27285-.004-.55132-.005-.61882l-.002-.12273-.20898-.0457-.22233-.0486-.0134-.003 .003.52096c.004.80115.0116,1.33311.0185,1.33067l.21847-.25893zm1.81306-.39922 .36181-.51501c.00091-.004-.73008-.98691-.7471-1.00497-.004-.004-.11223.0314-.59819.19653l-.59567.20435c-.003.003.0145,1.25444.0173,1.25726l1.19661.37202 .36523-.51018zm.87926-.33418-.54393-.72559-.54476-.72572c-.004-.004-.016.0192-.0586.111-.0498.10717-.0535.11671-.0486.12488s.16958.23617.37027.51402l.36487.50518 .22888.10043c.12588.0552.23041.10049.23228.10056s.002-.002-.00042-.005zm-1.87079-1.02188 .61655-.222 .0625-.1122 .0612-.11349-.7338.24056-.88801.29289-.15306.0536 .20833.0422 .20774.04 .61852-.22161z" fill="#ffe1ff" filter="url(#filter4103)" opacity=".5062"/>
<path d="m357.34744,286.71987-.12417.22324-1.2309.44307-.42155-.08z" fill="url(#linearGradient7507)" opacity=".6626"/>
<path d="m356.01782,288.70525 1.23267.37608 .0816.7211-1.75123-.54868z" fill="url(#linearGradient7509)" opacity=".65"/>
<path d="m358.00781,288.04724-.69981,1.01263 .10613.72688 1.0808-1.509z" fill="url(#linearGradient7511)" opacity=".65"/>
</g>
<g transform="matrix(.70312,0,0,.70312,102.59788,216.25225)">
<path d="m357.42593,289.88313-1.91259-.59294-.0271-2.00223 1.89584-.6445 1.19882,1.6039-1.15495,1.63577z" fill="url(#radialGradient7497)" opacity=".858"/>
<path d="m357.23735,289.03224-1.19988-.37201-.0173-1.25612 1.1894-.40433 .75207,1.00623-.72457,1.02623z" fill="url(#linearGradient7499)" opacity=".65"/>
<path d="m356.10465,288.59171-.0152-1.13925 1.07872-.36671 .68212.91261c-.41546.26016-.49553.00019-.89781-.0219s-.59934.3273-.84786.61517z" fill="url(#linearGradient7501)" opacity=".65"/>
<path d="m355.54806,287.3319 .44386.0969 .009,1.23234-.43447.52082c-.0137-.41148-.0174-1.76786-.0184-1.85009z" fill="url(#linearGradient7503)" opacity=".65"/>
<path d="m357.3861,286.73558-.10705.23017 .74051,1.02514 .45923.20118z" fill="url(#linearGradient7505)" opacity=".6502"/>
<path d="m356.47811,289.56183-.9372-.29241c-.003-.002-.0289-1.86071-.0273-1.92578l.00092-.0387 .92775-.31547c.8661-.2945.92816-.31503.93418-.30892l1.08818,1.45469 .0836.11222-.56317.79794-.56766.80222c-.003.003-.25515-.0735-.93932-.28576zm.85464.23362c-.00057-.0271-.0811-.71259-.084-.71529-.005-.005-1.2245-.37613-1.23056-.37473s-.44059.54598-.43808.54849l1.74791.54809c.003.00015.005-.003.005-.007zm.62123-.75924 .53998-.75528c.002-.004-.0619-.0357-.24185-.12091l-.24748-.11275-.3398.49135-.34813.5039-.0111.0156 .0527.36046 .0527.36426 .003.004 .54004-.75032zm-2.16786-.11478 .21531-.25781-.003-.4961c-.002-.27285-.004-.55132-.005-.61882l-.002-.12273-.20898-.0457-.22233-.0486-.0134-.003 .003.52096c.004.80115.0116,1.33311.0185,1.33067l.21847-.25893zm1.81306-.39922 .36181-.51501c.00091-.004-.73008-.98691-.7471-1.00497-.004-.004-.11223.0314-.59819.19653l-.59567.20435c-.003.003.0145,1.25444.0173,1.25726l1.19661.37202 .36523-.51018zm.87926-.33418-.54393-.72559-.54476-.72572c-.004-.004-.016.0192-.0586.111-.0498.10717-.0535.11671-.0486.12488s.16958.23617.37027.51402l.36487.50518 .22888.10043c.12588.0552.23041.10049.23228.10056s.002-.002-.00042-.005zm-1.87079-1.02188 .61655-.222 .0625-.1122 .0612-.11349-.7338.24056-.88801.29289-.15306.0536 .20833.0422 .20774.04 .61852-.22161z" fill="#ffe1ff" filter="url(#filter4103)" opacity=".5062"/>
<path d="m357.34744,286.71987-.12417.22324-1.2309.44307-.42155-.08z" fill="url(#linearGradient7507)" opacity=".6626"/>
<path d="m356.01782,288.70525 1.23267.37608 .0816.7211-1.75123-.54868z" fill="url(#linearGradient7509)" opacity=".65"/>
<path d="m358.00781,288.04724-.69981,1.01263 .10613.72688 1.0808-1.509z" fill="url(#linearGradient7511)" opacity=".65"/>
</g>
<g transform="matrix(.70312,0,0,.70312,104.78026,215.97278)">
<path d="m357.42593,289.88313-1.91259-.59294-.0271-2.00223 1.89584-.6445 1.19882,1.6039-1.15495,1.63577z" fill="url(#radialGradient7497)" opacity=".858"/>
<path d="m357.23735,289.03224-1.19988-.37201-.0173-1.25612 1.1894-.40433 .75207,1.00623-.72457,1.02623z" fill="url(#linearGradient7499)" opacity=".65"/>
<path d="m356.10465,288.59171-.0152-1.13925 1.07872-.36671 .68212.91261c-.41546.26016-.49553.00019-.89781-.0219s-.59934.3273-.84786.61517z" fill="url(#linearGradient7501)" opacity=".65"/>
<path d="m355.54806,287.3319 .44386.0969 .009,1.23234-.43447.52082c-.0137-.41148-.0174-1.76786-.0184-1.85009z" fill="url(#linearGradient7503)" opacity=".65"/>
<path d="m357.3861,286.73558-.10705.23017 .74051,1.02514 .45923.20118z" fill="url(#linearGradient7505)" opacity=".6502"/>
<path d="m356.47811,289.56183-.9372-.29241c-.003-.002-.0289-1.86071-.0273-1.92578l.00092-.0387 .92775-.31547c.8661-.2945.92816-.31503.93418-.30892l1.08818,1.45469 .0836.11222-.56317.79794-.56766.80222c-.003.003-.25515-.0735-.93932-.28576zm.85464.23362c-.00057-.0271-.0811-.71259-.084-.71529-.005-.005-1.2245-.37613-1.23056-.37473s-.44059.54598-.43808.54849l1.74791.54809c.003.00015.005-.003.005-.007zm.62123-.75924 .53998-.75528c.002-.004-.0619-.0357-.24185-.12091l-.24748-.11275-.3398.49135-.34813.5039-.0111.0156 .0527.36046 .0527.36426 .003.004 .54004-.75032zm-2.16786-.11478 .21531-.25781-.003-.4961c-.002-.27285-.004-.55132-.005-.61882l-.002-.12273-.20898-.0457-.22233-.0486-.0134-.003 .003.52096c.004.80115.0116,1.33311.0185,1.33067l.21847-.25893zm1.81306-.39922 .36181-.51501c.00091-.004-.73008-.98691-.7471-1.00497-.004-.004-.11223.0314-.59819.19653l-.59567.20435c-.003.003.0145,1.25444.0173,1.25726l1.19661.37202 .36523-.51018zm.87926-.33418-.54393-.72559-.54476-.72572c-.004-.004-.016.0192-.0586.111-.0498.10717-.0535.11671-.0486.12488s.16958.23617.37027.51402l.36487.50518 .22888.10043c.12588.0552.23041.10049.23228.10056s.002-.002-.00042-.005zm-1.87079-1.02188 .61655-.222 .0625-.1122 .0612-.11349-.7338.24056-.88801.29289-.15306.0536 .20833.0422 .20774.04 .61852-.22161z" fill="#ffe1ff" filter="url(#filter4103)" opacity=".5062"/>
<path d="m357.34744,286.71987-.12417.22324-1.2309.44307-.42155-.08z" fill="url(#linearGradient7507)" opacity=".6626"/>
<path d="m356.01782,288.70525 1.23267.37608 .0816.7211-1.75123-.54868z" fill="url(#linearGradient7509)" opacity=".65"/>
<path d="m358.00781,288.04724-.69981,1.01263 .10613.72688 1.0808-1.509z" fill="url(#linearGradient7511)" opacity=".65"/>
</g>
<g transform="matrix(.70312,0,0,.70312,106.38809,212.97163)">
<path d="m357.42593,289.88313-1.91259-.59294-.0271-2.00223 1.89584-.6445 1.19882,1.6039-1.15495,1.63577z" fill="url(#radialGradient7497)" opacity=".858"/>
<path d="m357.23735,289.03224-1.19988-.37201-.0173-1.25612 1.1894-.40433 .75207,1.00623-.72457,1.02623z" fill="url(#linearGradient7499)" opacity=".65"/>
<path d="m356.10465,288.59171-.0152-1.13925 1.07872-.36671 .68212.91261c-.41546.26016-.49553.00019-.89781-.0219s-.59934.3273-.84786.61517z" fill="url(#linearGradient7501)" opacity=".65"/>
<path d="m355.54806,287.3319 .44386.0969 .009,1.23234-.43447.52082c-.0137-.41148-.0174-1.76786-.0184-1.85009z" fill="url(#linearGradient7503)" opacity=".65"/>
<path d="m357.3861,286.73558-.10705.23017 .74051,1.02514 .45923.20118z" fill="url(#linearGradient7505)" opacity=".6502"/>
<path d="m356.47811,289.56183-.9372-.29241c-.003-.002-.0289-1.86071-.0273-1.92578l.00092-.0387 .92775-.31547c.8661-.2945.92816-.31503.93418-.30892l1.08818,1.45469 .0836.11222-.56317.79794-.56766.80222c-.003.003-.25515-.0735-.93932-.28576zm.85464.23362c-.00057-.0271-.0811-.71259-.084-.71529-.005-.005-1.2245-.37613-1.23056-.37473s-.44059.54598-.43808.54849l1.74791.54809c.003.00015.005-.003.005-.007zm.62123-.75924 .53998-.75528c.002-.004-.0619-.0357-.24185-.12091l-.24748-.11275-.3398.49135-.34813.5039-.0111.0156 .0527.36046 .0527.36426 .003.004 .54004-.75032zm-2.16786-.11478 .21531-.25781-.003-.4961c-.002-.27285-.004-.55132-.005-.61882l-.002-.12273-.20898-.0457-.22233-.0486-.0134-.003 .003.52096c.004.80115.0116,1.33311.0185,1.33067l.21847-.25893zm1.81306-.39922 .36181-.51501c.00091-.004-.73008-.98691-.7471-1.00497-.004-.004-.11223.0314-.59819.19653l-.59567.20435c-.003.003.0145,1.25444.0173,1.25726l1.19661.37202 .36523-.51018zm.87926-.33418-.54393-.72559-.54476-.72572c-.004-.004-.016.0192-.0586.111-.0498.10717-.0535.11671-.0486.12488s.16958.23617.37027.51402l.36487.50518 .22888.10043c.12588.0552.23041.10049.23228.10056s.002-.002-.00042-.005zm-1.87079-1.02188 .61655-.222 .0625-.1122 .0612-.11349-.7338.24056-.88801.29289-.15306.0536 .20833.0422 .20774.04 .61852-.22161z" fill="#ffe1ff" filter="url(#filter4103)" opacity=".5062"/>
<path d="m357.34744,286.71987-.12417.22324-1.2309.44307-.42155-.08z" fill="url(#linearGradient7507)" opacity=".6626"/>
<path d="m356.01782,288.70525 1.23267.37608 .0816.7211-1.75123-.54868z" fill="url(#linearGradient7509)" opacity=".65"/>
<path d="m358.00781,288.04724-.69981,1.01263 .10613.72688 1.0808-1.509z" fill="url(#linearGradient7511)" opacity=".65"/>
</g>
<g transform="matrix(.70312,0,0,.70312,98.07048,214.99037)">
<path d="m357.42593,289.88313-1.91259-.59294-.0271-2.00223 1.89584-.6445 1.19882,1.6039-1.15495,1.63577z" fill="url(#radialGradient7497)" opacity=".858"/>
<path d="m357.23735,289.03224-1.19988-.37201-.0173-1.25612 1.1894-.40433 .75207,1.00623-.72457,1.02623z" fill="url(#linearGradient7499)" opacity=".65"/>
<path d="m356.10465,288.59171-.0152-1.13925 1.07872-.36671 .68212.91261c-.41546.26016-.49553.00019-.89781-.0219s-.59934.3273-.84786.61517z" fill="url(#linearGradient7501)" opacity=".65"/>
<path d="m355.54806,287.3319 .44386.0969 .009,1.23234-.43447.52082c-.0137-.41148-.0174-1.76786-.0184-1.85009z" fill="url(#linearGradient7503)" opacity=".65"/>
<path d="m357.3861,286.73558-.10705.23017 .74051,1.02514 .45923.20118z" fill="url(#linearGradient7505)" opacity=".6502"/>
<path d="m356.47811,289.56183-.9372-.29241c-.003-.002-.0289-1.86071-.0273-1.92578l.00092-.0387 .92775-.31547c.8661-.2945.92816-.31503.93418-.30892l1.08818,1.45469 .0836.11222-.56317.79794-.56766.80222c-.003.003-.25515-.0735-.93932-.28576zm.85464.23362c-.00057-.0271-.0811-.71259-.084-.71529-.005-.005-1.2245-.37613-1.23056-.37473s-.44059.54598-.43808.54849l1.74791.54809c.003.00015.005-.003.005-.007zm.62123-.75924 .53998-.75528c.002-.004-.0619-.0357-.24185-.12091l-.24748-.11275-.3398.49135-.34813.5039-.0111.0156 .0527.36046 .0527.36426 .003.004 .54004-.75032zm-2.16786-.11478 .21531-.25781-.003-.4961c-.002-.27285-.004-.55132-.005-.61882l-.002-.12273-.20898-.0457-.22233-.0486-.0134-.003 .003.52096c.004.80115.0116,1.33311.0185,1.33067l.21847-.25893zm1.81306-.39922 .36181-.51501c.00091-.004-.73008-.98691-.7471-1.00497-.004-.004-.11223.0314-.59819.19653l-.59567.20435c-.003.003.0145,1.25444.0173,1.25726l1.19661.37202 .36523-.51018zm.87926-.33418-.54393-.72559-.54476-.72572c-.004-.004-.016.0192-.0586.111-.0498.10717-.0535.11671-.0486.12488s.16958.23617.37027.51402l.36487.50518 .22888.10043c.12588.0552.23041.10049.23228.10056s.002-.002-.00042-.005zm-1.87079-1.02188 .61655-.222 .0625-.1122 .0612-.11349-.7338.24056-.88801.29289-.15306.0536 .20833.0422 .20774.04 .61852-.22161z" fill="#ffe1ff" filter="url(#filter4103)" opacity=".5062"/>
<path d="m357.34744,286.71987-.12417.22324-1.2309.44307-.42155-.08z" fill="url(#linearGradient7507)" opacity=".6626"/>
<path d="m356.01782,288.70525 1.23267.37608 .0816.7211-1.75123-.54868z" fill="url(#linearGradient7509)" opacity=".65"/>
<path d="m358.00781,288.04724-.69981,1.01263 .10613.72688 1.0808-1.509z" fill="url(#linearGradient7511)" opacity=".65"/>
</g>
<g transform="matrix(.70312,0,0,.70312,106.51398,214.65852)">
<path d="m357.42593,289.88313-1.91259-.59294-.0271-2.00223 1.89584-.6445 1.19882,1.6039-1.15495,1.63577z" fill="url(#radialGradient7497)" opacity=".858"/>
<path d="m357.23735,289.03224-1.19988-.37201-.0173-1.25612 1.1894-.40433 .75207,1.00623-.72457,1.02623z" fill="url(#linearGradient7499)" opacity=".65"/>
<path d="m356.10465,288.59171-.0152-1.13925 1.07872-.36671 .68212.91261c-.41546.26016-.49553.00019-.89781-.0219s-.59934.3273-.84786.61517z" fill="url(#linearGradient7501)" opacity=".65"/>
<path d="m355.54806,287.3319 .44386.0969 .009,1.23234-.43447.52082c-.0137-.41148-.0174-1.76786-.0184-1.85009z" fill="url(#linearGradient7503)" opacity=".65"/>
<path d="m357.3861,286.73558-.10705.23017 .74051,1.02514 .45923.20118z" fill="url(#linearGradient7505)" opacity=".6502"/>
<path d="m356.47811,289.56183-.9372-.29241c-.003-.002-.0289-1.86071-.0273-1.92578l.00092-.0387 .92775-.31547c.8661-.2945.92816-.31503.93418-.30892l1.08818,1.45469 .0836.11222-.56317.79794-.56766.80222c-.003.003-.25515-.0735-.93932-.28576zm.85464.23362c-.00057-.0271-.0811-.71259-.084-.71529-.005-.005-1.2245-.37613-1.23056-.37473s-.44059.54598-.43808.54849l1.74791.54809c.003.00015.005-.003.005-.007zm.62123-.75924 .53998-.75528c.002-.004-.0619-.0357-.24185-.12091l-.24748-.11275-.3398.49135-.34813.5039-.0111.0156 .0527.36046 .0527.36426 .003.004 .54004-.75032zm-2.16786-.11478 .21531-.25781-.003-.4961c-.002-.27285-.004-.55132-.005-.61882l-.002-.12273-.20898-.0457-.22233-.0486-.0134-.003 .003.52096c.004.80115.0116,1.33311.0185,1.33067l.21847-.25893zm1.81306-.39922 .36181-.51501c.00091-.004-.73008-.98691-.7471-1.00497-.004-.004-.11223.0314-.59819.19653l-.59567.20435c-.003.003.0145,1.25444.0173,1.25726l1.19661.37202 .36523-.51018zm.87926-.33418-.54393-.72559-.54476-.72572c-.004-.004-.016.0192-.0586.111-.0498.10717-.0535.11671-.0486.12488s.16958.23617.37027.51402l.36487.50518 .22888.10043c.12588.0552.23041.10049.23228.10056s.002-.002-.00042-.005zm-1.87079-1.02188 .61655-.222 .0625-.1122 .0612-.11349-.7338.24056-.88801.29289-.15306.0536 .20833.0422 .20774.04 .61852-.22161z" fill="#ffe1ff" filter="url(#filter4103)" opacity=".5062"/>
<path d="m357.34744,286.71987-.12417.22324-1.2309.44307-.42155-.08z" fill="url(#linearGradient7507)" opacity=".6626"/>
<path d="m356.01782,288.70525 1.23267.37608 .0816.7211-1.75123-.54868z" fill="url(#linearGradient7509)" opacity=".65"/>
<path d="m358.00781,288.04724-.69981,1.01263 .10613.72688 1.0808-1.509z" fill="url(#linearGradient7511)" opacity=".65"/>
</g>
<g transform="matrix(.45467,0,0,.45467,201.49583,227.54468)">
<path d="m365.18324,425.88565-1.91259-.59294-.0271-2.00223 1.89584-.6445 1.19882,1.6039-1.15495,1.63577z" fill="url(#radialGradient7814)" opacity=".858"/>
<path d="m364.99466,425.03476-1.19988-.37201-.0173-1.25612 1.1894-.40433 .75207,1.00623-.72457,1.02623z" fill="url(#linearGradient7816)" opacity=".65"/>
<path d="m363.88498,424.58272-.0152-1.13925 1.07872-.36671 .68212.91261c-.41546.26016-.49553.00019-.89781-.0219s-.59934.3273-.84786.61517z" fill="url(#linearGradient7818)" opacity=".65"/>
<path d="m363.30537,423.33442 .44386.0969 .009,1.23234-.43447.52082c-.0137-.41148-.0174-1.76786-.0184-1.85009z" fill="url(#linearGradient7820)" opacity=".65"/>
<path d="m365.14341,422.7381-.10705.23017 .74051,1.02514 .45923.20118z" fill="url(#linearGradient7822)" opacity=".6502"/>
<path d="m364.23542,425.56435-.9372-.29241c-.003-.002-.0289-1.86071-.0273-1.92578l.00092-.0387 .92775-.31547c.8661-.2945.92816-.31503.93418-.30892l1.08818,1.45469 .0836.11222-.56317.79794-.56766.80222c-.003.003-.25515-.0735-.93932-.28576zm.85464.23362c-.00057-.0271-.0811-.71259-.084-.71529-.005-.005-1.2245-.37613-1.23056-.37473s-.44059.54598-.43808.54849l1.74791.54809c.003.00015.005-.003.005-.007zm.62123-.75924 .53998-.75528c.002-.004-.0619-.0357-.24185-.12091l-.24748-.11275-.3398.49135-.34813.5039-.0111.0156 .0527.36046 .0527.36426 .003.004 .54004-.75032zm-2.16786-.11478 .21531-.25781-.003-.4961c-.002-.27285-.004-.55132-.005-.61882l-.002-.12273-.20898-.0457-.22233-.0486-.0134-.003 .003.52096c.004.80115.0116,1.33311.0185,1.33067l.21847-.25893zm1.81306-.39922 .36181-.51501c.00091-.004-.73008-.98691-.7471-1.00497-.004-.004-.11223.0314-.59819.19653l-.59567.20435c-.003.003.0145,1.25444.0173,1.25726l1.19661.37202 .36523-.51018zm.87926-.33418-.54393-.72559-.54476-.72572c-.004-.004-.016.0192-.0586.111-.0498.10717-.0535.11671-.0486.12488s.16958.23617.37027.51402l.36487.50518 .22888.10043c.12588.0552.23041.10049.23228.10056s.002-.002-.00042-.005zm-1.87079-1.02188 .61655-.222 .0625-.1122 .0612-.11349-.7338.24056-.88801.29289-.15306.0536 .20833.0422 .20774.04 .61852-.22161z" fill="#dce4ff" filter="url(#filter4103)" opacity=".5062"/>
<path d="m365.10475,422.72239-.12417.22324-1.2309.44307-.42155-.08z" fill="url(#linearGradient7824)" opacity=".6626"/>
<path d="m363.8034,424.71614 1.23267.37608 .0816.7211-1.75123-.54868z" fill="url(#linearGradient7826)" opacity=".65"/>
<path d="m365.76512,424.04976-.69981,1.01263 .10613.72688 1.0808-1.509z" fill="url(#linearGradient7828)" opacity=".65"/>
</g>
<g transform="matrix(.45467,0,0,.45467,200.90884,226.2583)">
<path d="m365.18324,425.88565-1.91259-.59294-.0271-2.00223 1.89584-.6445 1.19882,1.6039-1.15495,1.63577z" fill="url(#radialGradient7814)" opacity=".858"/>
<path d="m364.99466,425.03476-1.19988-.37201-.0173-1.25612 1.1894-.40433 .75207,1.00623-.72457,1.02623z" fill="url(#linearGradient7816)" opacity=".65"/>
<path d="m363.88498,424.58272-.0152-1.13925 1.07872-.36671 .68212.91261c-.41546.26016-.49553.00019-.89781-.0219s-.59934.3273-.84786.61517z" fill="url(#linearGradient7818)" opacity=".65"/>
<path d="m363.30537,423.33442 .44386.0969 .009,1.23234-.43447.52082c-.0137-.41148-.0174-1.76786-.0184-1.85009z" fill="url(#linearGradient7820)" opacity=".65"/>
<path d="m365.14341,422.7381-.10705.23017 .74051,1.02514 .45923.20118z" fill="url(#linearGradient7822)" opacity=".6502"/>
<path d="m364.23542,425.56435-.9372-.29241c-.003-.002-.0289-1.86071-.0273-1.92578l.00092-.0387 .92775-.31547c.8661-.2945.92816-.31503.93418-.30892l1.08818,1.45469 .0836.11222-.56317.79794-.56766.80222c-.003.003-.25515-.0735-.93932-.28576zm.85464.23362c-.00057-.0271-.0811-.71259-.084-.71529-.005-.005-1.2245-.37613-1.23056-.37473s-.44059.54598-.43808.54849l1.74791.54809c.003.00015.005-.003.005-.007zm.62123-.75924 .53998-.75528c.002-.004-.0619-.0357-.24185-.12091l-.24748-.11275-.3398.49135-.34813.5039-.0111.0156 .0527.36046 .0527.36426 .003.004 .54004-.75032zm-2.16786-.11478 .21531-.25781-.003-.4961c-.002-.27285-.004-.55132-.005-.61882l-.002-.12273-.20898-.0457-.22233-.0486-.0134-.003 .003.52096c.004.80115.0116,1.33311.0185,1.33067l.21847-.25893zm1.81306-.39922 .36181-.51501c.00091-.004-.73008-.98691-.7471-1.00497-.004-.004-.11223.0314-.59819.19653l-.59567.20435c-.003.003.0145,1.25444.0173,1.25726l1.19661.37202 .36523-.51018zm.87926-.33418-.54393-.72559-.54476-.72572c-.004-.004-.016.0192-.0586.111-.0498.10717-.0535.11671-.0486.12488s.16958.23617.37027.51402l.36487.50518 .22888.10043c.12588.0552.23041.10049.23228.10056s.002-.002-.00042-.005zm-1.87079-1.02188 .61655-.222 .0625-.1122 .0612-.11349-.7338.24056-.88801.29289-.15306.0536 .20833.0422 .20774.04 .61852-.22161z" fill="#dce4ff" filter="url(#filter4103)" opacity=".5062"/>
<path d="m365.10475,422.72239-.12417.22324-1.2309.44307-.42155-.08z" fill="url(#linearGradient7824)" opacity=".6626"/>
<path d="m363.8034,424.71614 1.23267.37608 .0816.7211-1.75123-.54868z" fill="url(#linearGradient7826)" opacity=".65"/>
<path d="m365.76512,424.04976-.69981,1.01263 .10613.72688 1.0808-1.509z" fill="url(#linearGradient7828)" opacity=".65"/>
</g>
<g transform="matrix(.45467,0,0,.45467,202.71978,228.29403)">
<path d="m365.18324,425.88565-1.91259-.59294-.0271-2.00223 1.89584-.6445 1.19882,1.6039-1.15495,1.63577z" fill="url(#radialGradient7814)" opacity=".858"/>
<path d="m364.99466,425.03476-1.19988-.37201-.0173-1.25612 1.1894-.40433 .75207,1.00623-.72457,1.02623z" fill="url(#linearGradient7816)" opacity=".65"/>
<path d="m363.88498,424.58272-.0152-1.13925 1.07872-.36671 .68212.91261c-.41546.26016-.49553.00019-.89781-.0219s-.59934.3273-.84786.61517z" fill="url(#linearGradient7818)" opacity=".65"/>
<path d="m363.30537,423.33442 .44386.0969 .009,1.23234-.43447.52082c-.0137-.41148-.0174-1.76786-.0184-1.85009z" fill="url(#linearGradient7820)" opacity=".65"/>
<path d="m365.14341,422.7381-.10705.23017 .74051,1.02514 .45923.20118z" fill="url(#linearGradient7822)" opacity=".6502"/>
<path d="m364.23542,425.56435-.9372-.29241c-.003-.002-.0289-1.86071-.0273-1.92578l.00092-.0387 .92775-.31547c.8661-.2945.92816-.31503.93418-.30892l1.08818,1.45469 .0836.11222-.56317.79794-.56766.80222c-.003.003-.25515-.0735-.93932-.28576zm.85464.23362c-.00057-.0271-.0811-.71259-.084-.71529-.005-.005-1.2245-.37613-1.23056-.37473s-.44059.54598-.43808.54849l1.74791.54809c.003.00015.005-.003.005-.007zm.62123-.75924 .53998-.75528c.002-.004-.0619-.0357-.24185-.12091l-.24748-.11275-.3398.49135-.34813.5039-.0111.0156 .0527.36046 .0527.36426 .003.004 .54004-.75032zm-2.16786-.11478 .21531-.25781-.003-.4961c-.002-.27285-.004-.55132-.005-.61882l-.002-.12273-.20898-.0457-.22233-.0486-.0134-.003 .003.52096c.004.80115.0116,1.33311.0185,1.33067l.21847-.25893zm1.81306-.39922 .36181-.51501c.00091-.004-.73008-.98691-.7471-1.00497-.004-.004-.11223.0314-.59819.19653l-.59567.20435c-.003.003.0145,1.25444.0173,1.25726l1.19661.37202 .36523-.51018zm.87926-.33418-.54393-.72559-.54476-.72572c-.004-.004-.016.0192-.0586.111-.0498.10717-.0535.11671-.0486.12488s.16958.23617.37027.51402l.36487.50518 .22888.10043c.12588.0552.23041.10049.23228.10056s.002-.002-.00042-.005zm-1.87079-1.02188 .61655-.222 .0625-.1122 .0612-.11349-.7338.24056-.88801.29289-.15306.0536 .20833.0422 .20774.04 .61852-.22161z" fill="#dce4ff" filter="url(#filter4103)" opacity=".5062"/>
<path d="m365.10475,422.72239-.12417.22324-1.2309.44307-.42155-.08z" fill="url(#linearGradient7824)" opacity=".6626"/>
<path d="m363.8034,424.71614 1.23267.37608 .0816.7211-1.75123-.54868z" fill="url(#linearGradient7826)" opacity=".65"/>
<path d="m365.76512,424.04976-.69981,1.01263 .10613.72688 1.0808-1.509z" fill="url(#linearGradient7828)" opacity=".65"/>
</g>
<g transform="matrix(.45467,0,0,.45467,209.92446,209.45647)">
<path d="m365.18324,425.88565-1.91259-.59294-.0271-2.00223 1.89584-.6445 1.19882,1.6039-1.15495,1.63577z" fill="url(#radialGradient7814)" opacity=".858"/>
<path d="m364.99466,425.03476-1.19988-.37201-.0173-1.25612 1.1894-.40433 .75207,1.00623-.72457,1.02623z" fill="url(#linearGradient7816)" opacity=".65"/>
<path d="m363.88498,424.58272-.0152-1.13925 1.07872-.36671 .68212.91261c-.41546.26016-.49553.00019-.89781-.0219s-.59934.3273-.84786.61517z" fill="url(#linearGradient7818)" opacity=".65"/>
<path d="m363.30537,423.33442 .44386.0969 .009,1.23234-.43447.52082c-.0137-.41148-.0174-1.76786-.0184-1.85009z" fill="url(#linearGradient7820)" opacity=".65"/>
<path d="m365.14341,422.7381-.10705.23017 .74051,1.02514 .45923.20118z" fill="url(#linearGradient7822)" opacity=".6502"/>
<path d="m364.23542,425.56435-.9372-.29241c-.003-.002-.0289-1.86071-.0273-1.92578l.00092-.0387 .92775-.31547c.8661-.2945.92816-.31503.93418-.30892l1.08818,1.45469 .0836.11222-.56317.79794-.56766.80222c-.003.003-.25515-.0735-.93932-.28576zm.85464.23362c-.00057-.0271-.0811-.71259-.084-.71529-.005-.005-1.2245-.37613-1.23056-.37473s-.44059.54598-.43808.54849l1.74791.54809c.003.00015.005-.003.005-.007zm.62123-.75924 .53998-.75528c.002-.004-.0619-.0357-.24185-.12091l-.24748-.11275-.3398.49135-.34813.5039-.0111.0156 .0527.36046 .0527.36426 .003.004 .54004-.75032zm-2.16786-.11478 .21531-.25781-.003-.4961c-.002-.27285-.004-.55132-.005-.61882l-.002-.12273-.20898-.0457-.22233-.0486-.0134-.003 .003.52096c.004.80115.0116,1.33311.0185,1.33067l.21847-.25893zm1.81306-.39922 .36181-.51501c.00091-.004-.73008-.98691-.7471-1.00497-.004-.004-.11223.0314-.59819.19653l-.59567.20435c-.003.003.0145,1.25444.0173,1.25726l1.19661.37202 .36523-.51018zm.87926-.33418-.54393-.72559-.54476-.72572c-.004-.004-.016.0192-.0586.111-.0498.10717-.0535.11671-.0486.12488s.16958.23617.37027.51402l.36487.50518 .22888.10043c.12588.0552.23041.10049.23228.10056s.002-.002-.00042-.005zm-1.87079-1.02188 .61655-.222 .0625-.1122 .0612-.11349-.7338.24056-.88801.29289-.15306.0536 .20833.0422 .20774.04 .61852-.22161z" fill="#dce4ff" filter="url(#filter4103)" opacity=".5062"/>
<path d="m365.10475,422.72239-.12417.22324-1.2309.44307-.42155-.08z" fill="url(#linearGradient7824)" opacity=".6626"/>
<path d="m363.8034,424.71614 1.23267.37608 .0816.7211-1.75123-.54868z" fill="url(#linearGradient7826)" opacity=".65"/>
<path d="m365.76512,424.04976-.69981,1.01263 .10613.72688 1.0808-1.509z" fill="url(#linearGradient7828)" opacity=".65"/>
</g>
<g transform="matrix(.45467,0,0,.45467,211.30401,209.94078)">
<path d="m365.18324,425.88565-1.91259-.59294-.0271-2.00223 1.89584-.6445 1.19882,1.6039-1.15495,1.63577z" fill="url(#radialGradient7814)" opacity=".858"/>
<path d="m364.99466,425.03476-1.19988-.37201-.0173-1.25612 1.1894-.40433 .75207,1.00623-.72457,1.02623z" fill="url(#linearGradient7816)" opacity=".65"/>
<path d="m363.88498,424.58272-.0152-1.13925 1.07872-.36671 .68212.91261c-.41546.26016-.49553.00019-.89781-.0219s-.59934.3273-.84786.61517z" fill="url(#linearGradient7818)" opacity=".65"/>
<path d="m363.30537,423.33442 .44386.0969 .009,1.23234-.43447.52082c-.0137-.41148-.0174-1.76786-.0184-1.85009z" fill="url(#linearGradient7820)" opacity=".65"/>
<path d="m365.14341,422.7381-.10705.23017 .74051,1.02514 .45923.20118z" fill="url(#linearGradient7822)" opacity=".6502"/>
<path d="m364.23542,425.56435-.9372-.29241c-.003-.002-.0289-1.86071-.0273-1.92578l.00092-.0387 .92775-.31547c.8661-.2945.92816-.31503.93418-.30892l1.08818,1.45469 .0836.11222-.56317.79794-.56766.80222c-.003.003-.25515-.0735-.93932-.28576zm.85464.23362c-.00057-.0271-.0811-.71259-.084-.71529-.005-.005-1.2245-.37613-1.23056-.37473s-.44059.54598-.43808.54849l1.74791.54809c.003.00015.005-.003.005-.007zm.62123-.75924 .53998-.75528c.002-.004-.0619-.0357-.24185-.12091l-.24748-.11275-.3398.49135-.34813.5039-.0111.0156 .0527.36046 .0527.36426 .003.004 .54004-.75032zm-2.16786-.11478 .21531-.25781-.003-.4961c-.002-.27285-.004-.55132-.005-.61882l-.002-.12273-.20898-.0457-.22233-.0486-.0134-.003 .003.52096c.004.80115.0116,1.33311.0185,1.33067l.21847-.25893zm1.81306-.39922 .36181-.51501c.00091-.004-.73008-.98691-.7471-1.00497-.004-.004-.11223.0314-.59819.19653l-.59567.20435c-.003.003.0145,1.25444.0173,1.25726l1.19661.37202 .36523-.51018zm.87926-.33418-.54393-.72559-.54476-.72572c-.004-.004-.016.0192-.0586.111-.0498.10717-.0535.11671-.0486.12488s.16958.23617.37027.51402l.36487.50518 .22888.10043c.12588.0552.23041.10049.23228.10056s.002-.002-.00042-.005zm-1.87079-1.02188 .61655-.222 .0625-.1122 .0612-.11349-.7338.24056-.88801.29289-.15306.0536 .20833.0422 .20774.04 .61852-.22161z" fill="#dce4ff" filter="url(#filter4103)" opacity=".5062"/>
<path d="m365.10475,422.72239-.12417.22324-1.2309.44307-.42155-.08z" fill="url(#linearGradient7824)" opacity=".6626"/>
<path d="m363.8034,424.71614 1.23267.37608 .0816.7211-1.75123-.54868z" fill="url(#linearGradient7826)" opacity=".65"/>
<path d="m365.76512,424.04976-.69981,1.01263 .10613.72688 1.0808-1.509z" fill="url(#linearGradient7828)" opacity=".65"/>
</g>
<g transform="matrix(.45467,0,0,.45467,212.44875,209.16295)">
<path d="m365.18324,425.88565-1.91259-.59294-.0271-2.00223 1.89584-.6445 1.19882,1.6039-1.15495,1.63577z" fill="url(#radialGradient7814)" opacity=".858"/>
<path d="m364.99466,425.03476-1.19988-.37201-.0173-1.25612 1.1894-.40433 .75207,1.00623-.72457,1.02623z" fill="url(#linearGradient7816)" opacity=".65"/>
<path d="m363.88498,424.58272-.0152-1.13925 1.07872-.36671 .68212.91261c-.41546.26016-.49553.00019-.89781-.0219s-.59934.3273-.84786.61517z" fill="url(#linearGradient7818)" opacity=".65"/>
<path d="m363.30537,423.33442 .44386.0969 .009,1.23234-.43447.52082c-.0137-.41148-.0174-1.76786-.0184-1.85009z" fill="url(#linearGradient7820)" opacity=".65"/>
<path d="m365.14341,422.7381-.10705.23017 .74051,1.02514 .45923.20118z" fill="url(#linearGradient7822)" opacity=".6502"/>
<path d="m364.23542,425.56435-.9372-.29241c-.003-.002-.0289-1.86071-.0273-1.92578l.00092-.0387 .92775-.31547c.8661-.2945.92816-.31503.93418-.30892l1.08818,1.45469 .0836.11222-.56317.79794-.56766.80222c-.003.003-.25515-.0735-.93932-.28576zm.85464.23362c-.00057-.0271-.0811-.71259-.084-.71529-.005-.005-1.2245-.37613-1.23056-.37473s-.44059.54598-.43808.54849l1.74791.54809c.003.00015.005-.003.005-.007zm.62123-.75924 .53998-.75528c.002-.004-.0619-.0357-.24185-.12091l-.24748-.11275-.3398.49135-.34813.5039-.0111.0156 .0527.36046 .0527.36426 .003.004 .54004-.75032zm-2.16786-.11478 .21531-.25781-.003-.4961c-.002-.27285-.004-.55132-.005-.61882l-.002-.12273-.20898-.0457-.22233-.0486-.0134-.003 .003.52096c.004.80115.0116,1.33311.0185,1.33067l.21847-.25893zm1.81306-.39922 .36181-.51501c.00091-.004-.73008-.98691-.7471-1.00497-.004-.004-.11223.0314-.59819.19653l-.59567.20435c-.003.003.0145,1.25444.0173,1.25726l1.19661.37202 .36523-.51018zm.87926-.33418-.54393-.72559-.54476-.72572c-.004-.004-.016.0192-.0586.111-.0498.10717-.0535.11671-.0486.12488s.16958.23617.37027.51402l.36487.50518 .22888.10043c.12588.0552.23041.10049.23228.10056s.002-.002-.00042-.005zm-1.87079-1.02188 .61655-.222 .0625-.1122 .0612-.11349-.7338.24056-.88801.29289-.15306.0536 .20833.0422 .20774.04 .61852-.22161z" fill="#dce4ff" filter="url(#filter4103)" opacity=".5062"/>
<path d="m365.10475,422.72239-.12417.22324-1.2309.44307-.42155-.08z" fill="url(#linearGradient7824)" opacity=".6626"/>
<path d="m363.8034,424.71614 1.23267.37608 .0816.7211-1.75123-.54868z" fill="url(#linearGradient7826)" opacity=".65"/>
<path d="m365.76512,424.04976-.69981,1.01263 .10613.72688 1.0808-1.509z" fill="url(#linearGradient7828)" opacity=".65"/>
</g>
<g transform="matrix(.45467,0,0,.45467,213.34399,208.01821)">
<path d="m365.18324,425.88565-1.91259-.59294-.0271-2.00223 1.89584-.6445 1.19882,1.6039-1.15495,1.63577z" fill="url(#radialGradient7814)" opacity=".858"/>
<path d="m364.99466,425.03476-1.19988-.37201-.0173-1.25612 1.1894-.40433 .75207,1.00623-.72457,1.02623z" fill="url(#linearGradient7816)" opacity=".65"/>
<path d="m363.88498,424.58272-.0152-1.13925 1.07872-.36671 .68212.91261c-.41546.26016-.49553.00019-.89781-.0219s-.59934.3273-.84786.61517z" fill="url(#linearGradient7818)" opacity=".65"/>
<path d="m363.30537,423.33442 .44386.0969 .009,1.23234-.43447.52082c-.0137-.41148-.0174-1.76786-.0184-1.85009z" fill="url(#linearGradient7820)" opacity=".65"/>
<path d="m365.14341,422.7381-.10705.23017 .74051,1.02514 .45923.20118z" fill="url(#linearGradient7822)" opacity=".6502"/>
<path d="m364.23542,425.56435-.9372-.29241c-.003-.002-.0289-1.86071-.0273-1.92578l.00092-.0387 .92775-.31547c.8661-.2945.92816-.31503.93418-.30892l1.08818,1.45469 .0836.11222-.56317.79794-.56766.80222c-.003.003-.25515-.0735-.93932-.28576zm.85464.23362c-.00057-.0271-.0811-.71259-.084-.71529-.005-.005-1.2245-.37613-1.23056-.37473s-.44059.54598-.43808.54849l1.74791.54809c.003.00015.005-.003.005-.007zm.62123-.75924 .53998-.75528c.002-.004-.0619-.0357-.24185-.12091l-.24748-.11275-.3398.49135-.34813.5039-.0111.0156 .0527.36046 .0527.36426 .003.004 .54004-.75032zm-2.16786-.11478 .21531-.25781-.003-.4961c-.002-.27285-.004-.55132-.005-.61882l-.002-.12273-.20898-.0457-.22233-.0486-.0134-.003 .003.52096c.004.80115.0116,1.33311.0185,1.33067l.21847-.25893zm1.81306-.39922 .36181-.51501c.00091-.004-.73008-.98691-.7471-1.00497-.004-.004-.11223.0314-.59819.19653l-.59567.20435c-.003.003.0145,1.25444.0173,1.25726l1.19661.37202 .36523-.51018zm.87926-.33418-.54393-.72559-.54476-.72572c-.004-.004-.016.0192-.0586.111-.0498.10717-.0535.11671-.0486.12488s.16958.23617.37027.51402l.36487.50518 .22888.10043c.12588.0552.23041.10049.23228.10056s.002-.002-.00042-.005zm-1.87079-1.02188 .61655-.222 .0625-.1122 .0612-.11349-.7338.24056-.88801.29289-.15306.0536 .20833.0422 .20774.04 .61852-.22161z" fill="#dce4ff" filter="url(#filter4103)" opacity=".5062"/>
<path d="m365.10475,422.72239-.12417.22324-1.2309.44307-.42155-.08z" fill="url(#linearGradient7824)" opacity=".6626"/>
<path d="m363.8034,424.71614 1.23267.37608 .0816.7211-1.75123-.54868z" fill="url(#linearGradient7826)" opacity=".65"/>
<path d="m365.76512,424.04976-.69981,1.01263 .10613.72688 1.0808-1.509z" fill="url(#linearGradient7828)" opacity=".65"/>
</g>
<g transform="matrix(.99988,.01547,-.01547,.99988,1933.2476,1334.8499)">
<path d="m-1578.0393-887.81471c0,0 4.6321-37.4615 13.7957-36.50305 29.9404,3.12738 53.5044,23.91284 53.5044,23.91284z" fill="url(#radialGradient3381)" opacity=".4239"/>
<path d="m-1564.9056-923.57865c.2111-2.3117 28.4779,5.36831 51.3243,21.76625-35.1622-21.24481-51.5316-19.45455-51.3243-21.76625z" fill="#fff" opacity=".1235"/>
</g>
</g>
</svg>
